<?xml version="1.0" encoding="UTF-8"?>
<svg id="Layer_2" data-name="Layer 2" xmlns="http://www.w3.org/2000/svg" viewBox="0 0 1497.37 2272.11">
  <defs>
    <style>
      .cls-1 {
        fill: #f9f183;
      }

      .cls-1, .cls-2, .cls-3, .cls-4, .cls-5, .cls-6, .cls-7, .cls-8, .cls-9, .cls-10 {
        stroke-width: 0px;
      }

      .cls-2 {
        fill: #0158fd;
      }

      .cls-3 {
        fill: #652507;
      }

      .cls-4 {
        fill: #0a59f5;
      }

      .cls-5 {
        fill: #fe8d38;
      }

      .cls-6 {
        fill: #fe8c36;
      }

      .cls-7 {
        fill: #61230a;
      }

      .cls-8 {
        fill: #612209;
      }

      .cls-9 {
        fill: #fdf787;
      }

      .cls-10 {
        fill: #fe8d37;
      }
    </style>
  </defs>
  <g id="Layer_1-2" data-name="Layer 1">
    <g>
      <path class="cls-2" d="M1497.37,29.42v2224.58c-18.4.35-36.82.18-55.18,1.16-47.42,2.51-94.8-4.72-142.54,4.71-26.99,5.33-56.21-1.63-84.38-1.07-57.95,1.14-115.88,3.63-173.82,5.54-87.11,2.87-174.26,10.08-261.27-1.74-8.22-19.18-19.47-37.66-24.07-57.67-11.65-50.6-6.03-101.22,3.52-151.96,7.37-39.16,12.21-79.01,14.84-118.78,2.45-37.16-.05-74.63.83-111.94.28-12.11,1.21-26.1,7.3-35.79,13.02-20.71,30.36-38.19,52.35-50.51,18.37-10.3,36.14-21.7,54.03-32.83,26.51-16.49,52.3-34.24,79.5-49.47,23.55-13.19,47.73-26.61,73.3-34.48,26.54-8.16,51.26-18.03,75.31-32.12,47.7-27.93,96.76-53.58,145.68-79.38,28.03-14.79,52.39-33.64,73.97-56.84,15.87-17.07,32.59-33.63,50.66-48.28,17.67-14.32,30.19-31.04,37.38-52.48,3.33-9.92,8.43-19.28,13.09-28.71,3.49-7.04,5.68-14.08-2.72-18.57-7.54-4.02-13.31.42-16.63,7.07-5.88,11.78-11.79,23.63-16.38,35.94-5.56,14.92-14.06,26.8-26.46,37.09-17.35,14.39-33.18,30.62-49.63,46.11-13.97,13.15-26.16,29.2-42.17,39-42.99,26.29-87.58,49.99-131.61,74.58-19.05,10.64-38.02,21.46-57.52,31.2-14.69,7.33-29.99,13.55-45.36,19.36-12.28,4.64-26.05,6.09-37.46,12.14-46.53,24.66-94.95,46.1-136.46,79.58-11.95,9.63-25.25,18.15-39.09,24.73-29.17,13.86-52.38,34.53-70.28,60.61-25.78,37.56-50.21,76.06-74.61,114.55-39.25,61.92-97.32,95.18-167.38,108.67-28.35,5.46-57.59,6.55-86.49,8.74-46.89,3.55-93.03-.68-135.81-21.52-32.78-15.98-63.91-35.3-96.45-51.81-40.84-20.73-67.39-53.75-84.48-95.01-21.04-50.81-42.1-101.64-61.31-153.16-10.62-28.49-20.61-57.9-25.35-87.77-9.9-62.43-9.51-125.58.63-188.03,10.69-65.81,31.53-127.41,76.2-179.69,30.01-35.11,62.81-64.29,106.53-81.04,30.24-11.58,57.91-8.68,83.59,5.3-3.68,23.05-7.37,44.46-10.4,65.96-1.03,7.32-.26,15.46,9.55,16.14,9.2.64,12.45-6.41,12.64-14.16,1.05-43.09,20.67-79.77,39.84-116.59,6.56-12.6,16.88-21.11,30.52-25.33,13.68-4.23,27.4-8.33,41.12-12.43,35.77-10.67,71.54-21.17,109.37-21.43,57.12-.4,112.8-8.81,168.39-23.09,81.82-21.02,149.94-63.28,209.25-121.77,3.36-3.32,7.27-7.71,7.69-11.93.43-4.31-2.1-11.64-5.22-12.87-3.89-1.54-11.09.28-14.44,3.32-13.06,11.83-24.03,26.17-37.82,36.97-49.94,39.09-103.62,70.72-166.85,84.44-38.26,8.3-75.66,20.4-115.4,20.45-8.62.01-12.86-3.22-13.5-11.33-.65-8.25-.23-16.62-1.25-24.82-7.47-60.16,13.98-109.77,59.57-147.06,47.22-38.63,101.17-62.43,164.49-62,37.18.25,74.48-3.6,111.56-7.28,27.83-2.76,54.71-10.54,79.72-23.62,6.92-3.62,12.1-9.26,7.49-17.33-4.24-7.42-11.09-5.52-17.95-2.74-12.87,5.22-25.8,10.47-39.05,14.56-37.96,11.72-77.68,8.65-116.52,13.01-10.7,1.2-21.53,1.31-32.23,1.91-.2-2.12-.52-2.93-.3-3.57.73-2.14,1.68-4.2,2.5-6.31,17.06-43.85,48.43-75.94,85.87-102.49,56.76-40.25,107.46-85.74,143.6-146.6,35.23-59.34,89.41-99.32,147.6-133.78,12.54-7.43,27.97-10.43,42.44-13.98,12.73-3.13,26.11-3.52,38.97-6.26,32.12-6.84,58.4-25.66,85.24-43.08,20.93-13.58,36.57-31.87,48.81-53.84,18.73-33.63,27.89-69.9,32.72-107.49,5.78-45.02,44.9-91.51,88.19-103.58ZM1334.94,1568.99c-.99-.26-1.99-.53-2.98-.79.25-9.61-5.42-17.06-13.06-16.42-9.8.82-10.1,7.72-10.05,15.62.05,7.07-1.37,14.21-2.64,21.23-10.18,56.07-29.4,108.46-59.04,157.55-26.48,43.84-58.04,83.28-93.12,120.18-5.58,5.87-11.37,11.74-4.62,19.16,6.55,7.19,14.12,3.3,19.77-2.37,9.54-9.59,18.84-19.48,27.65-29.75,46.11-53.75,86.58-111.3,109.59-178.91,11.71-34.41,19.14-70.28,28.51-105.49ZM1491.5,2024.07c-.93-7.84,2.38-19.03-10.28-20.03-12.64-1-11.15,10.18-12.9,18.46-2.95,13.93-4.72,28.54-10.32,41.4-25.49,58.51-69.58,98.16-128.12,122.34-4.17,1.72-9.38,2.34-12.31,5.28-3.21,3.22-7.07,9.91-5.71,12.6,1.91,3.81,8.14,6.68,12.92,7.43,3.98.63,8.6-2.18,12.81-3.81,42.44-16.39,77.7-42.86,106.67-77.61,25.56-30.68,43.32-65.12,47.25-106.07ZM1481.12,1541.79c-2.44-2.5-5.21-7.63-9.23-8.95-7.52-2.48-11.25,3.11-13.83,9.72-9.42,24.07-19.04,48.05-28.73,72.01-2.8,6.92-5.78,14.23,2.44,18.85,8.8,4.94,14.46-.91,17.62-8.4,9.93-23.49,19.42-47.16,28.92-70.82,1.24-3.09,1.52-6.57,2.81-12.4Z"/>
      <path class="cls-3" d="M899.96,586.28c34.87-27.45,65.61-58.67,88.13-97.3,38.97-66.86,97.71-112.54,162.41-151.81,18.1-10.98,38.18-16.07,59.06-17.32,28.2-1.69,53.65-11.04,77.08-26.21,15.13-9.79,29.91-20.13,44.5-30.71,3.8-2.75,6.29-7.32,9.38-11.05,3.9-4.85,8.33-9.37,11.61-14.61,22.81-36.44,31.48-77.25,36.29-119.2,15.32-53.85,49.76-90.38,101-111.77,2.09-.87,3.8-2.67,5.69-4.04.75,9.05,1.51,18.1,2.26,27.16-43.3,12.06-82.41,58.56-88.19,103.58-4.83,37.59-13.99,73.86-32.72,107.49-12.24,21.98-27.89,40.26-48.81,53.84-26.84,17.42-53.13,36.24-85.24,43.08-12.85,2.74-26.23,3.13-38.97,6.26-14.46,3.55-29.9,6.56-42.44,13.98-58.19,34.46-112.37,74.45-147.6,133.78-36.14,60.86-86.84,106.35-143.6,146.6-37.44,26.55-68.8,58.63-85.87,102.49-.82,2.11-1.76,4.17-2.5,6.31-.22.64.1,1.45.3,3.57,10.7-.61,21.53-.71,32.23-1.91,38.85-4.35,78.56-1.29,116.52-13.01,13.26-4.09,26.18-9.35,39.05-14.56,6.85-2.78,13.71-4.68,17.95,2.74,4.61,8.07-.58,13.71-7.49,17.33-25.01,13.08-51.89,20.86-79.72,23.62-37.08,3.68-74.38,7.53-111.56,7.28-63.32-.43-117.27,23.37-164.49,62-45.58,37.29-67.04,86.9-59.57,147.06,1.02,8.2.59,16.56,1.25,24.82.64,8.11,4.88,11.34,13.5,11.33,39.74-.05,77.13-12.15,115.4-20.45,63.23-13.72,116.91-45.34,166.85-84.44,13.79-10.8,24.76-25.13,37.82-36.97,3.35-3.04,10.56-4.86,14.44-3.32,3.12,1.23,5.64,8.57,5.22,12.87-.42,4.22-4.32,8.62-7.69,11.93-59.31,58.49-127.42,100.75-209.25,121.77-55.58,14.28-111.27,22.69-168.39,23.09-37.84.26-73.61,10.76-109.37,21.43-13.72,4.09-27.44,8.2-41.12,12.43-13.64,4.21-23.95,12.72-30.52,25.33-19.18,36.82-38.79,73.5-39.84,116.59-.19,7.75-3.44,14.8-12.64,14.16-9.81-.68-10.58-8.82-9.55-16.14,3.03-21.5,6.72-42.91,10.4-65.96-25.67-13.98-53.35-16.88-83.59-5.3-43.72,16.75-76.52,45.92-106.53,81.04-44.68,52.27-65.52,113.88-76.2,179.69-10.14,62.45-10.54,125.6-.63,188.03,4.74,29.87,14.73,59.27,25.35,87.77,19.2,51.51,40.26,102.35,61.31,153.16,17.09,41.26,43.64,74.28,84.48,95.01,32.54,16.51,63.67,35.84,96.45,51.81,42.78,20.85,88.91,25.08,135.81,21.52,28.9-2.19,58.15-3.28,86.49-8.74,70.06-13.48,128.12-46.74,167.38-108.67,24.4-38.49,48.82-76.99,74.61-114.55,17.9-26.07,41.11-46.74,70.28-60.61,13.85-6.58,27.15-15.1,39.09-24.73,41.51-33.48,89.93-54.91,136.46-79.58,11.42-6.05,25.19-7.49,37.46-12.14,15.37-5.81,30.67-12.03,45.36-19.36,19.5-9.74,38.47-20.57,57.52-31.2,44.03-24.59,88.61-48.28,131.61-74.58,16.01-9.79,28.2-25.84,42.17-39,16.44-15.48,32.27-31.72,49.63-46.11,12.41-10.29,20.9-22.17,26.46-37.09,4.59-12.31,10.5-24.16,16.38-35.94,3.32-6.64,9.09-11.09,16.63-7.07,8.4,4.48,6.21,11.52,2.72,18.57-4.67,9.43-9.76,18.79-13.09,28.71-7.19,21.44-19.71,38.16-37.38,52.48-18.07,14.65-34.79,31.21-50.66,48.28-21.57,23.2-45.94,42.05-73.97,56.84-48.91,25.81-97.97,51.45-145.68,79.38-24.06,14.09-48.77,23.96-75.31,32.12-25.58,7.86-49.75,21.28-73.3,34.48-27.2,15.24-53,32.98-79.5,49.47-17.9,11.14-35.66,22.54-54.03,32.83-21.99,12.33-39.34,29.8-52.35,50.51-6.09,9.7-7.02,23.68-7.3,35.79-.87,37.31,1.63,74.77-.83,111.94-2.63,39.77-7.47,79.62-14.84,118.78-9.55,50.74-15.17,101.36-3.52,151.96,4.61,20.01,15.85,38.49,24.07,57.67-1.18,7.11-4.42,8.56-11.9,7.03-25.32-5.2-30.11-27.05-35.28-45.88-12.57-45.78-16.67-92.47-5.52-139.56,6.83-28.87,14.51-57.67,18.99-86.94,7.83-51.19,8.59-102.85,4.47-154.51-.11-1.37-.77-2.69-1.99-6.72-5.99,9.13-11.16,16.23-15.52,23.79-21.2,36.76-44.75,71.66-77.71,99.15-7.21,6.01-14.36,12.46-22.51,16.93-47.76,26.18-97.97,44.47-153.25,45.7-31.6.7-63.22,3.04-94.79,2.36-47.86-1.03-91.07-18.76-132.27-41.68-22.71-12.63-44.59-26.8-67.54-38.95-35.24-18.66-61.38-47.22-76.36-82.39-34.32-80.6-71.83-160.23-93.57-245.62-4.98-19.56-7.22-40.12-8.18-60.34-3.37-70.97-1.68-141.46,17.29-210.87,19.98-73.11,60.54-132.73,116.19-182.29,26.1-23.25,58.45-37.52,92.4-45.58,27.25-6.47,53.8.1,79.65,13.48,2.83-5.7,5.36-11.38,8.39-16.8,6.6-11.81,11.1-26.11,20.66-34.7,23.15-20.78,24.65-47.48,20.93-73.57-5.51-38.64-14.58-76.9-24.29-114.78-10.96-42.76-21.9-85.56-24-129.69-3.25-68.12-6.08-136.33-5.97-204.5.07-40.56,5.36-81.28,23.66-118.74,8.17-16.73,17.29-32.68,35.44-41.03,2.23-1.02,3.72-5.29,4.16-8.26,1.32-8.94,1.9-17.98,2.84-26.98,3.52-33.33,22.21-50.93,56.58-52,1.02-19.85,3.78-39.44,21.51-52.88,12.06-9.14,26.07-13.49,40.28-12.39,27.39,2.13,39.54,22.81,49.87,46.13,13.75-10.6,29.87-16.06,45.32-5.66,13.45,9.05,24.51,21.66,36.97,33,.33-.57,1.9-3.29,3.52-5.97,8.8-14.55,23.93-17.92,36.1-6.07,9,8.77,16.74,19.5,22.72,30.6,23.91,44.42,39.69,92.1,50.85,141.03,11.63,50.96,21.81,102.33,30.33,153.9,4.22,25.52,3.28,51.9,4.72,78.74,3.38-5.88,6.72-11.86,10.22-17.74,17.92-30.11,45.03-50.88,72.5-71.28,9.35-6.94,18.65-13.95,27.97-20.93,5.3-4.3,10.6-8.59,15.9-12.89ZM383.07,1051.35c54.36-15.24,106.23-31.92,161.63-32.77-1.41-16.29-2-31.7-4.21-46.86-3.68-25.27,8.76-46.91,14.19-70.16,10.32-44.21,37.12-75.8,74.64-99.31,13.72-8.6,28.12-16.13,41.75-24.88,3.99-2.56,8.63-7.32,9.14-11.54,3.31-27.09,9.38-54.58,7.4-81.42-4.93-66.87-14.32-133.36-30.47-198.64-11.51-46.52-24.26-92.74-46.52-135.46-7.2-13.82-16.92-26.76-27.48-38.26-9.74-10.6-18.22-8.45-27.19,3.12-8.5,10.96-9.69,23.7-8.19,36.49,3.2,27.33,7.39,54.55,11.19,81.81,9.83,70.55,19.67,141.1,29.48,211.66,1.24,8.94.2,17.69-10.32,19.47-10.71,1.81-14.08-6.41-15.76-15.2-.49-2.58-.71-5.22-1.07-7.83-2.66-19.03-5.52-38.03-7.94-57.09-10.41-82.06-20.61-164.14-31.09-246.19-1.99-15.55-2.84-31.76-8.21-46.17-3.33-8.94-13.16-19.39-21.9-21.46-13.9-3.3-27.53,3.49-33.01,18.8-2.6,7.27-4.52,15.36-4.21,22.98,1.21,30.11,2.99,60.21,5.36,90.25,5.59,71.02,11.68,141.99,17.47,212.99.89,10.97-3.87,18.29-11.99,18.42-10.15.16-13.44-6.4-14.17-15.38-2.06-25.55-4.36-51.07-6.44-76.62-5.51-67.63-11.06-135.26-16.29-202.91-.62-8.07-4.71-8.69-10.49-6.69-12.08,4.18-19.53,12.58-21.01,25.53-2.17,19.03-3.66,38.15-6.23,57.12-7.78,57.41-6.93,115.09-4.2,172.65,1.75,36.85,7.23,73.52,10.9,110.28.74,7.38.72,15.39-8.82,16.82-10.41,1.56-12.38-6.63-13.37-14.38-1.7-13.45-2.71-26.99-4.37-40.46-6.73-54.72-10.35-109.52-7.56-164.72,1.14-22.6.19-45.31.19-68.67-4.72,8.72-9.98,17.07-13.92,25.99-14.74,33.41-18.77,69.27-19.18,104.99-.6,51.59,2.47,103.21,3.24,154.83.87,57.7,10.93,113.82,25.76,169.43,14.59,54.73,33.33,109.05,23.27,169.43ZM743.3,753.12c0-37.16,3.02-74.31-.6-110.8-8.52-85.8-28.94-169.3-58.24-250.4-7.36-20.38-18.06-39.65-28.39-58.8-4.88-9.06-11.1-8.44-15.6.74-1.89,3.85-2.42,9.59-1.05,13.59,3.78,11.01,9.31,21.41,13.44,32.32,30.85,81.64,46.04,166.81,56.31,253.04,2.35,19.73,4.83,39.51,5.73,59.33.99,21.71.23,43.49.23,65.67,8.1-1.35,17.65-2.94,28.17-4.7Z"/>
      <path class="cls-8" d="M1334.94,1568.99c-9.37,35.21-16.8,71.08-28.51,105.49-23.02,67.62-63.48,125.16-109.59,178.91-8.81,10.27-18.1,20.16-27.65,29.75-5.65,5.68-13.22,9.57-19.77,2.37-6.75-7.41-.95-13.29,4.62-19.16,35.08-36.9,66.65-76.34,93.12-120.18,29.64-49.08,48.87-101.48,59.04-157.55,1.27-7.02,2.69-14.16,2.64-21.23-.06-7.9.25-14.8,10.05-15.62,7.65-.64,13.32,6.81,13.06,16.42.99.26,1.99.53,2.98.79Z"/>
      <path class="cls-8" d="M1491.5,2024.07c-3.93,40.95-21.69,75.39-47.25,106.07-28.96,34.76-64.23,61.22-106.67,77.61-4.21,1.62-8.83,4.43-12.81,3.81-4.78-.75-11.01-3.62-12.92-7.43-1.36-2.7,2.5-9.38,5.71-12.6,2.92-2.93,8.14-3.55,12.31-5.28,58.54-24.18,102.64-63.83,128.12-122.34,5.6-12.87,7.37-27.47,10.32-41.4,1.75-8.28.26-19.46,12.9-18.46,12.65,1,9.34,12.19,10.28,20.03Z"/>
      <path class="cls-7" d="M1481.12,1541.79c-1.29,5.84-1.57,9.31-2.81,12.4-9.5,23.66-18.99,47.33-28.92,70.82-3.16,7.49-8.82,13.35-17.62,8.4-8.22-4.62-5.24-11.93-2.44-18.85,9.7-23.95,19.31-47.94,28.73-72.01,2.59-6.61,6.31-12.19,13.83-9.72,4.02,1.32,6.79,6.46,9.23,8.95Z"/>
      <path class="cls-10" d="M153.2,647.5c-.26-44.34,6.34-87.78,17.32-130.62,1.45-5.65,2.59-13.37,11.12-10.74,8.24,2.53,5.19,9.53,3.71,15.28-14.99,58.17-21.82,117.2-13.27,176.86,4.19,29.27,13.12,57.86,19.96,86.74.52,2.18,2.42,4.4,2.1,6.34-.65,3.89-2.39,7.6-3.68,11.38-3.5-2-9.1-3.24-10.14-6.13-5.77-15.9-12.1-31.9-15.12-48.43-6.05-33.22-10.09-66.82-14.96-100.26.98-.14,1.97-.29,2.95-.43Z"/>
      <path class="cls-6" d="M899.96,586.28c-5.3,4.3-10.6,8.59-15.9,12.89-2.18-67.21-16.81-131.19-48.64-190.89-1.84-3.45-1.3-11.48,1.14-13.26,6.4-4.67,9.75,1.49,12.54,6.61,24.97,45.85,39.95,94.88,46.59,146.55,1.63,12.68,2.86,25.4,4.27,38.1Z"/>
      <path class="cls-5" d="M832.25,596.61c-.46,6.16-1.29,17.05-2.05,27.95-.43,6.16-.74,13.73-8.75,13.21-9.24-.6-7.51-8.91-6.79-15.08,3.58-30.62,3.13-61.18-4.99-90.92-5.13-18.77-13.65-36.59-19.9-55.08-1.38-4.08-1.4-11.62,1.01-13.4,6.42-4.74,9.85,1.55,12.57,6.61,20.45,38.08,28.74,79.05,28.9,126.72Z"/>
      <path class="cls-5" d="M217.66,643.26c3.26-20.22,6.99-44.35,11.16-68.41,1.01-5.81,2.62-13.38,11.06-10.79,8.1,2.49,5.28,9.6,3.82,15.37-12.68,50.15-13.22,99.89,4.95,148.99,2.1,5.67,2.38,11.68-4.08,12.68-3.17.49-9.29-4.57-10.63-8.35-4.4-12.37-8.15-25.14-10.42-38.06-2.72-15.53-3.67-31.36-5.86-51.42Z"/>
      <path class="cls-4" d="M1388.41,118.07c-4.81,41.96-13.48,82.77-36.29,119.2-3.28,5.24-7.71,9.76-11.61,14.61,11.28-43.59,18.21-88.67,43.44-127.5,1.4-2.16,2.96-4.21,4.45-6.31Z"/>
      <path class="cls-9" d="M383.07,1051.35c10.05-60.38-8.68-114.7-23.27-169.43-14.83-55.6-24.89-111.72-25.76-169.43-.78-51.62-3.84-103.24-3.24-154.83.41-35.71,4.44-71.58,19.18-104.99,3.94-8.93,9.2-17.27,13.92-25.99,0,23.36.95,46.07-.19,68.67-2.79,55.19.83,110,7.56,164.72,1.66,13.46,2.66,27,4.37,40.46.98,7.75,2.95,15.95,13.37,14.38,9.54-1.43,9.56-9.45,8.82-16.82-3.67-36.76-9.15-73.43-10.9-110.28-2.73-57.56-3.58-115.24,4.2-172.65,2.57-18.97,4.06-38.09,6.23-57.12,1.48-12.95,8.93-21.35,21.01-25.53,5.77-2,9.86-1.38,10.49,6.69,5.23,67.65,10.78,135.28,16.29,202.91,2.08,25.54,4.38,51.07,6.44,76.62.73,8.98,4.01,15.55,14.17,15.38,8.12-.13,12.89-7.45,11.99-18.42-5.79-71-11.88-141.98-17.47-212.99-2.37-30.04-4.15-60.15-5.36-90.25-.31-7.62,1.62-15.71,4.21-22.98,5.48-15.31,19.1-22.11,33.01-18.8,8.74,2.08,18.58,12.53,21.9,21.46,5.37,14.41,6.22,30.62,8.21,46.17,10.49,82.05,20.68,164.13,31.09,246.19,2.42,19.06,5.28,38.06,7.94,57.09.36,2.61.58,5.25,1.07,7.83,1.67,8.8,5.04,17.02,15.76,15.2,10.51-1.78,11.56-10.52,10.32-19.47-9.81-70.55-19.65-141.1-29.48-211.66-3.8-27.26-7.98-54.48-11.19-81.81-1.5-12.79-.3-25.53,8.19-36.49,8.97-11.57,17.45-13.73,27.19-3.12,10.57,11.5,20.28,24.44,27.48,38.26,22.26,42.71,35.01,88.94,46.52,135.46,16.15,65.28,25.54,131.77,30.47,198.64,1.98,26.83-4.09,54.33-7.4,81.42-.52,4.22-5.16,8.98-9.14,11.54-13.63,8.74-28.03,16.27-41.75,24.88-37.52,23.51-64.32,55.1-74.64,99.31-5.43,23.24-17.87,44.89-14.19,70.16,2.21,15.17,2.8,30.57,4.21,46.86-55.39.85-107.27,17.53-161.63,32.77Z"/>
      <path class="cls-1" d="M743.3,753.12c-10.52,1.75-20.08,3.35-28.17,4.7,0-22.18.77-43.96-.23-65.67-.9-19.82-3.38-39.6-5.73-59.33-10.28-86.23-25.46-171.4-56.31-253.04-4.12-10.91-9.65-21.31-13.44-32.32-1.38-4.01-.84-9.74,1.05-13.59,4.49-9.18,10.71-9.79,15.6-.74,10.33,19.15,21.03,38.43,28.39,58.8,29.3,81.09,49.73,164.59,58.24,250.4,3.62,36.49.6,73.64.6,110.8Z"/>
    </g>
  </g>
</svg>