<svg viewBox="0 0 300 300" xmlns="http://www.w3.org/2000/svg" height="2048" width="2048"><svg xmlns="http://www.w3.org/2000/svg"><svg width="300" height="300"><defs style="transform: scale(1) translate(0px, 0px);"><clipPath id="clip-path-dot-color"><path d="M 19 109v 9h 4.5a 4.5 4.5, 0, 0, 0, 0 -9" transform="rotate(180,23.5,113.5)"/><path d="M 19 145v 9h 4.5a 4.5 4.5, 0, 0, 0, 0 -9" transform="rotate(-90,23.5,149.5)"/><path d="M 19 154v 9h 4.5a 4.5 4.5, 0, 0, 0, 0 -9" transform="rotate(90,23.5,158.5)"/><path d="M 19 190v 9h 9a 9 9, 0, 0, 0, -9 -9" transform="rotate(-90,23.5,194.5)"/><path d="M 19 199v 9h 4.5a 4.5 4.5, 0, 0, 0, 0 -9" transform="rotate(90,23.5,203.5)"/><path d="M 28 109v 9h 9a 9 9, 0, 0, 0, -9 -9" transform="rotate(0,32.5,113.5)"/><rect x="28" y="118" width="9" height="9" transform="rotate(0,32.5,122.5)"/><path d="M 28 127v 9h 4.5a 4.5 4.5, 0, 0, 0, 0 -9" transform="rotate(90,32.5,131.5)"/><path d="M 28 190v 9h 4.5a 4.5 4.5, 0, 0, 0, 0 -9" transform="rotate(0,32.5,194.5)"/><path d="M 37 91v 9h 4.5a 4.5 4.5, 0, 0, 0, 0 -9" transform="rotate(-90,41.5,95.5)"/><path d="M 37 100v 9h 4.5a 4.5 4.5, 0, 0, 0, 0 -9" transform="rotate(90,41.5,104.5)"/><path d="M 37 118v 9h 4.5a 4.5 4.5, 0, 0, 0, 0 -9" transform="rotate(0,41.5,122.5)"/><path d="M 37 145v 9h 9a 9 9, 0, 0, 0, -9 -9" transform="rotate(-90,41.5,149.5)"/><rect x="37" y="154" width="9" height="9" transform="rotate(0,41.5,158.5)"/><rect x="37" y="163" width="9" height="9" transform="rotate(0,41.5,167.5)"/><path d="M 37 172v 9h 4.5a 4.5 4.5, 0, 0, 0, 0 -9" transform="rotate(90,41.5,176.5)"/><circle cx="50.5" cy="113.5" r="4.5" transform="rotate(0,50.5,113.5)"/><rect x="46" y="145" width="9" height="9" transform="rotate(0,50.5,149.5)"/><path d="M 46 163v 9h 4.5a 4.5 4.5, 0, 0, 0, 0 -9" transform="rotate(0,50.5,167.5)"/><circle cx="50.5" cy="203.5" r="4.5" transform="rotate(0,50.5,203.5)"/><path d="M 55 91v 9h 9a 9 9, 0, 0, 0, -9 -9" transform="rotate(-90,59.5,95.5)"/><path d="M 55 100v 9h 4.5a 4.5 4.5, 0, 0, 0, 0 -9" transform="rotate(90,59.5,104.5)"/><path d="M 55 127v 9h 4.5a 4.5 4.5, 0, 0, 0, 0 -9" transform="rotate(180,59.5,131.5)"/><rect x="55" y="145" width="9" height="9" transform="rotate(0,59.5,149.5)"/><path d="M 55 154v 9h 4.5a 4.5 4.5, 0, 0, 0, 0 -9" transform="rotate(90,59.5,158.5)"/><path d="M 55 172v 9h 9a 9 9, 0, 0, 0, -9 -9" transform="rotate(-90,59.5,176.5)"/><path d="M 55 181v 9h 4.5a 4.5 4.5, 0, 0, 0, 0 -9" transform="rotate(90,59.5,185.5)"/><rect x="64" y="91" width="9" height="9" transform="rotate(0,68.5,95.5)"/><path d="M 64 118v 9h 4.5a 4.5 4.5, 0, 0, 0, 0 -9" transform="rotate(-90,68.5,122.5)"/><rect x="64" y="127" width="9" height="9" transform="rotate(0,68.5,131.5)"/><rect x="64" y="145" width="9" height="9" transform="rotate(0,68.5,149.5)"/><path d="M 64 163v 9h 9a 9 9, 0, 0, 0, -9 -9" transform="rotate(-90,68.5,167.5)"/><path d="M 64 172v 9h 9a 9 9, 0, 0, 0, -9 -9" transform="rotate(90,68.5,176.5)"/><circle cx="68.5" cy="194.5" r="4.5" transform="rotate(0,68.5,194.5)"/><path d="M 73 91v 9h 4.5a 4.5 4.5, 0, 0, 0, 0 -9" transform="rotate(0,77.5,95.5)"/><circle cx="77.5" cy="113.5" r="4.5" transform="rotate(0,77.5,113.5)"/><rect x="73" y="127" width="9" height="9" transform="rotate(0,77.5,131.5)"/><path d="M 73 145v 9h 4.5a 4.5 4.5, 0, 0, 0, 0 -9" transform="rotate(0,77.5,149.5)"/><rect x="73" y="163" width="9" height="9" transform="rotate(0,77.5,167.5)"/><circle cx="77.5" cy="185.5" r="4.5" transform="rotate(0,77.5,185.5)"/><path d="M 73 199v 9h 4.5a 4.5 4.5, 0, 0, 0, 0 -9" transform="rotate(180,77.5,203.5)"/><path d="M 82 118v 9h 4.5a 4.5 4.5, 0, 0, 0, 0 -9" transform="rotate(-90,86.5,122.5)"/><rect x="82" y="127" width="9" height="9" transform="rotate(0,86.5,131.5)"/><path d="M 82 154v 9h 9a 9 9, 0, 0, 0, -9 -9" transform="rotate(-90,86.5,158.5)"/><rect x="82" y="163" width="9" height="9" transform="rotate(0,86.5,167.5)"/><rect x="82" y="199" width="9" height="9" transform="rotate(0,86.5,203.5)"/><path d="M 91 28v 9h 4.5a 4.5 4.5, 0, 0, 0, 0 -9" transform="rotate(180,95.5,32.5)"/><circle cx="95.5" cy="59.5" r="4.5" transform="rotate(0,95.5,59.5)"/><circle cx="95.5" cy="77.5" r="4.5" transform="rotate(0,95.5,77.5)"/><circle cx="95.5" cy="95.5" r="4.5" transform="rotate(0,95.5,95.5)"/><circle cx="95.5" cy="113.5" r="4.5" transform="rotate(0,95.5,113.5)"/><rect x="91" y="127" width="9" height="9" transform="rotate(0,95.5,131.5)"/><rect x="91" y="136" width="9" height="9" transform="rotate(0,95.5,140.5)"/><rect x="91" y="145" width="9" height="9" transform="rotate(0,95.5,149.5)"/><rect x="91" y="154" width="9" height="9" transform="rotate(0,95.5,158.5)"/><path d="M 91 163v 9h 9a 9 9, 0, 0, 0, -9 -9" transform="rotate(90,95.5,167.5)"/><path d="M 91 190v 9h 9a 9 9, 0, 0, 0, -9 -9" transform="rotate(-90,95.5,194.5)"/><rect x="91" y="199" width="9" height="9" transform="rotate(0,95.5,203.5)"/><path d="M 91 208v 9h 4.5a 4.5 4.5, 0, 0, 0, 0 -9" transform="rotate(90,95.5,212.5)"/><path d="M 91 226v 9h 9a 9 9, 0, 0, 0, -9 -9" transform="rotate(-90,95.5,230.5)"/><path d="M 91 235v 9h 9a 9 9, 0, 0, 0, -9 -9" transform="rotate(180,95.5,239.5)"/><circle cx="95.5" cy="257.5" r="4.5" transform="rotate(0,95.5,257.5)"/><rect x="100" y="28" width="9" height="9" transform="rotate(0,104.5,32.5)"/><path d="M 100 64v 9h 4.5a 4.5 4.5, 0, 0, 0, 0 -9" transform="rotate(180,104.5,68.5)"/><path d="M 100 127v 9h 4.5a 4.5 4.5, 0, 0, 0, 0 -9" transform="rotate(0,104.5,131.5)"/><path d="M 100 145v 9h 9a 9 9, 0, 0, 0, -9 -9" transform="rotate(0,104.5,149.5)"/><path d="M 100 154v 9h 9a 9 9, 0, 0, 0, -9 -9" transform="rotate(90,104.5,158.5)"/><path d="M 100 172v 9h 9a 9 9, 0, 0, 0, -9 -9" transform="rotate(-90,104.5,176.5)"/><rect x="100" y="181" width="9" height="9" transform="rotate(0,104.5,185.5)"/><rect x="100" y="190" width="9" height="9" transform="rotate(0,104.5,194.5)"/><path d="M 100 217v 9h 4.5a 4.5 4.5, 0, 0, 0, 0 -9" transform="rotate(-90,104.5,221.5)"/><rect x="100" y="226" width="9" height="9" transform="rotate(0,104.5,230.5)"/><path d="M 100 235v 9h 9a 9 9, 0, 0, 0, -9 -9" transform="rotate(90,104.5,239.5)"/><path d="M 100 262v 9h 4.5a 4.5 4.5, 0, 0, 0, 0 -9" transform="rotate(-90,104.5,266.5)"/><path d="M 100 271v 9h 9a 9 9, 0, 0, 0, -9 -9" transform="rotate(180,104.5,275.5)"/><path d="M 109 28v 9h 9a 9 9, 0, 0, 0, -9 -9" transform="rotate(0,113.5,32.5)"/><rect x="109" y="37" width="9" height="9" transform="rotate(0,113.5,41.5)"/><path d="M 109 46v 9h 9a 9 9, 0, 0, 0, -9 -9" transform="rotate(180,113.5,50.5)"/><rect x="109" y="64" width="9" height="9" transform="rotate(0,113.5,68.5)"/><path d="M 109 73v 9h 4.5a 4.5 4.5, 0, 0, 0, 0 -9" transform="rotate(90,113.5,77.5)"/><path d="M 109 91v 9h 4.5a 4.5 4.5, 0, 0, 0, 0 -9" transform="rotate(180,113.5,95.5)"/><circle cx="113.5" cy="113.5" r="4.5" transform="rotate(0,113.5,113.5)"/><path d="M 109 163v 9h 4.5a 4.5 4.5, 0, 0, 0, 0 -9" transform="rotate(-90,113.5,167.5)"/><rect x="109" y="172" width="9" height="9" transform="rotate(0,113.5,176.5)"/><rect x="109" y="181" width="9" height="9" transform="rotate(0,113.5,185.5)"/><rect x="109" y="190" width="9" height="9" transform="rotate(0,113.5,194.5)"/><path d="M 109 208v 9h 4.5a 4.5 4.5, 0, 0, 0, 0 -9" transform="rotate(180,113.5,212.5)"/><path d="M 109 226v 9h 4.5a 4.5 4.5, 0, 0, 0, 0 -9" transform="rotate(0,113.5,230.5)"/><circle cx="113.5" cy="248.5" r="4.5" transform="rotate(0,113.5,248.5)"/><rect x="109" y="271" width="9" height="9" transform="rotate(0,113.5,275.5)"/><path d="M 118 37v 9h 9a 9 9, 0, 0, 0, -9 -9" transform="rotate(0,122.5,41.5)"/><rect x="118" y="46" width="9" height="9" transform="rotate(0,122.5,50.5)"/><rect x="118" y="64" width="9" height="9" transform="rotate(0,122.5,68.5)"/><path d="M 118 82v 9h 4.5a 4.5 4.5, 0, 0, 0, 0 -9" transform="rotate(-90,122.5,86.5)"/><path d="M 118 91v 9h 9a 9 9, 0, 0, 0, -9 -9" transform="rotate(90,122.5,95.5)"/><path d="M 118 136v 9h 4.5a 4.5 4.5, 0, 0, 0, 0 -9" transform="rotate(-90,122.5,140.5)"/><path d="M 118 145v 9h 9a 9 9, 0, 0, 0, -9 -9" transform="rotate(180,122.5,149.5)"/><rect x="118" y="172" width="9" height="9" transform="rotate(0,122.5,176.5)"/><rect x="118" y="181" width="9" height="9" transform="rotate(0,122.5,185.5)"/><rect x="118" y="190" width="9" height="9" transform="rotate(0,122.5,194.5)"/><rect x="118" y="199" width="9" height="9" transform="rotate(0,122.5,203.5)"/><path d="M 118 208v 9h 9a 9 9, 0, 0, 0, -9 -9" transform="rotate(90,122.5,212.5)"/><path d="M 118 262v 9h 4.5a 4.5 4.5, 0, 0, 0, 0 -9" transform="rotate(-90,122.5,266.5)"/><rect x="118" y="271" width="9" height="9" transform="rotate(0,122.5,275.5)"/><path d="M 127 28v 9h 4.5a 4.5 4.5, 0, 0, 0, 0 -9" transform="rotate(180,131.5,32.5)"/><rect x="127" y="46" width="9" height="9" transform="rotate(0,131.5,50.5)"/><rect x="127" y="55" width="9" height="9" transform="rotate(0,131.5,59.5)"/><rect x="127" y="64" width="9" height="9" transform="rotate(0,131.5,68.5)"/><path d="M 127 73v 9h 4.5a 4.5 4.5, 0, 0, 0, 0 -9" transform="rotate(90,131.5,77.5)"/><path d="M 127 100v 9h 4.5a 4.5 4.5, 0, 0, 0, 0 -9" transform="rotate(180,131.5,104.5)"/><path d="M 127 118v 9h 9a 9 9, 0, 0, 0, -9 -9" transform="rotate(-90,131.5,122.5)"/><path d="M 127 127v 9h 4.5a 4.5 4.5, 0, 0, 0, 0 -9" transform="rotate(90,131.5,131.5)"/><rect x="127" y="145" width="9" height="9" transform="rotate(0,131.5,149.5)"/><path d="M 127 154v 9h 9a 9 9, 0, 0, 0, -9 -9" transform="rotate(180,131.5,158.5)"/><path d="M 127 172v 9h 4.5a 4.5 4.5, 0, 0, 0, 0 -9" transform="rotate(0,131.5,176.5)"/><path d="M 127 199v 9h 4.5a 4.5 4.5, 0, 0, 0, 0 -9" transform="rotate(0,131.5,203.5)"/><circle cx="131.5" cy="230.5" r="4.5" transform="rotate(0,131.5,230.5)"/><circle cx="131.5" cy="248.5" r="4.5" transform="rotate(0,131.5,248.5)"/><rect x="127" y="271" width="9" height="9" transform="rotate(0,131.5,275.5)"/><rect x="136" y="28" width="9" height="9" transform="rotate(0,140.5,32.5)"/><rect x="136" y="37" width="9" height="9" transform="rotate(0,140.5,41.5)"/><path d="M 136 46v 9h 9a 9 9, 0, 0, 0, -9 -9" transform="rotate(90,140.5,50.5)"/><path d="M 136 64v 9h 4.5a 4.5 4.5, 0, 0, 0, 0 -9" transform="rotate(0,140.5,68.5)"/><path d="M 136 100v 9h 4.5a 4.5 4.5, 0, 0, 0, 0 -9" transform="rotate(0,140.5,104.5)"/><path d="M 136 118v 9h 4.5a 4.5 4.5, 0, 0, 0, 0 -9" transform="rotate(0,140.5,122.5)"/><path d="M 136 145v 9h 9a 9 9, 0, 0, 0, -9 -9" transform="rotate(0,140.5,149.5)"/><rect x="136" y="154" width="9" height="9" transform="rotate(0,140.5,158.5)"/><path d="M 136 217v 9h 4.5a 4.5 4.5, 0, 0, 0, 0 -9" transform="rotate(180,140.5,221.5)"/><path d="M 136 235v 9h 4.5a 4.5 4.5, 0, 0, 0, 0 -9" transform="rotate(180,140.5,239.5)"/><circle cx="140.5" cy="257.5" r="4.5" transform="rotate(0,140.5,257.5)"/><rect x="136" y="271" width="9" height="9" transform="rotate(0,140.5,275.5)"/><path d="M 145 19v 9h 9a 9 9, 0, 0, 0, -9 -9" transform="rotate(-90,149.5,23.5)"/><path d="M 145 28v 9h 9a 9 9, 0, 0, 0, -9 -9" transform="rotate(90,149.5,32.5)"/><circle cx="149.5" cy="59.5" r="4.5" transform="rotate(0,149.5,59.5)"/><circle cx="149.5" cy="77.5" r="4.5" transform="rotate(0,149.5,77.5)"/><circle cx="149.5" cy="95.5" r="4.5" transform="rotate(0,149.5,95.5)"/><path d="M 145 127v 9h 9a 9 9, 0, 0, 0, -9 -9" transform="rotate(-90,149.5,131.5)"/><path d="M 145 136v 9h 9a 9 9, 0, 0, 0, -9 -9" transform="rotate(180,149.5,140.5)"/><rect x="145" y="154" width="9" height="9" transform="rotate(0,149.5,158.5)"/><rect x="145" y="163" width="9" height="9" transform="rotate(0,149.5,167.5)"/><path d="M 145 172v 9h 9a 9 9, 0, 0, 0, -9 -9" transform="rotate(180,149.5,176.5)"/><path d="M 145 199v 9h 4.5a 4.5 4.5, 0, 0, 0, 0 -9" transform="rotate(180,149.5,203.5)"/><rect x="145" y="217" width="9" height="9" transform="rotate(0,149.5,221.5)"/><path d="M 145 235v 9h 4.5a 4.5 4.5, 0, 0, 0, 0 -9" transform="rotate(0,149.5,239.5)"/><path d="M 145 271v 9h 4.5a 4.5 4.5, 0, 0, 0, 0 -9" transform="rotate(0,149.5,275.5)"/><rect x="154" y="19" width="9" height="9" transform="rotate(0,158.5,23.5)"/><path d="M 154 46v 9h 4.5a 4.5 4.5, 0, 0, 0, 0 -9" transform="rotate(180,158.5,50.5)"/><circle cx="158.5" cy="86.5" r="4.5" transform="rotate(0,158.5,86.5)"/><path d="M 154 100v 9h 4.5a 4.5 4.5, 0, 0, 0, 0 -9" transform="rotate(180,158.5,104.5)"/><rect x="154" y="127" width="9" height="9" transform="rotate(0,158.5,131.5)"/><rect x="154" y="136" width="9" height="9" transform="rotate(0,158.5,140.5)"/><rect x="154" y="145" width="9" height="9" transform="rotate(0,158.5,149.5)"/><path d="M 154 154v 9h 9a 9 9, 0, 0, 0, -9 -9" transform="rotate(90,158.5,158.5)"/><path d="M 154 172v 9h 9a 9 9, 0, 0, 0, -9 -9" transform="rotate(0,158.5,176.5)"/><rect x="154" y="181" width="9" height="9" transform="rotate(0,158.5,185.5)"/><rect x="154" y="190" width="9" height="9" transform="rotate(0,158.5,194.5)"/><rect x="154" y="199" width="9" height="9" transform="rotate(0,158.5,203.5)"/><rect x="154" y="208" width="9" height="9" transform="rotate(0,158.5,212.5)"/><rect x="154" y="217" width="9" height="9" transform="rotate(0,158.5,221.5)"/><path d="M 154 226v 9h 4.5a 4.5 4.5, 0, 0, 0, 0 -9" transform="rotate(90,158.5,230.5)"/><circle cx="158.5" cy="248.5" r="4.5" transform="rotate(0,158.5,248.5)"/><rect x="163" y="19" width="9" height="9" transform="rotate(0,167.5,23.5)"/><path d="M 163 37v 9h 4.5a 4.5 4.5, 0, 0, 0, 0 -9" transform="rotate(-90,167.5,41.5)"/><rect x="163" y="46" width="9" height="9" transform="rotate(0,167.5,50.5)"/><rect x="163" y="55" width="9" height="9" transform="rotate(0,167.5,59.5)"/><rect x="163" y="64" width="9" height="9" transform="rotate(0,167.5,68.5)"/><path d="M 163 73v 9h 4.5a 4.5 4.5, 0, 0, 0, 0 -9" transform="rotate(90,167.5,77.5)"/><path d="M 163 100v 9h 4.5a 4.5 4.5, 0, 0, 0, 0 -9" transform="rotate(0,167.5,104.5)"/><rect x="163" y="127" width="9" height="9" transform="rotate(0,167.5,131.5)"/><path d="M 163 136v 9h 9a 9 9, 0, 0, 0, -9 -9" transform="rotate(90,167.5,140.5)"/><path d="M 163 181v 9h 9a 9 9, 0, 0, 0, -9 -9" transform="rotate(0,167.5,185.5)"/><rect x="163" y="190" width="9" height="9" transform="rotate(0,167.5,194.5)"/><rect x="163" y="199" width="9" height="9" transform="rotate(0,167.5,203.5)"/><path d="M 163 235v 9h 4.5a 4.5 4.5, 0, 0, 0, 0 -9" transform="rotate(180,167.5,239.5)"/><path d="M 163 262v 9h 4.5a 4.5 4.5, 0, 0, 0, 0 -9" transform="rotate(-90,167.5,266.5)"/><path d="M 163 271v 9h 9a 9 9, 0, 0, 0, -9 -9" transform="rotate(180,167.5,275.5)"/><path d="M 172 19v 9h 4.5a 4.5 4.5, 0, 0, 0, 0 -9" transform="rotate(0,176.5,23.5)"/><path d="M 172 55v 9h 4.5a 4.5 4.5, 0, 0, 0, 0 -9" transform="rotate(0,176.5,59.5)"/><path d="M 172 82v 9h 4.5a 4.5 4.5, 0, 0, 0, 0 -9" transform="rotate(-90,176.5,86.5)"/><path d="M 172 91v 9h 4.5a 4.5 4.5, 0, 0, 0, 0 -9" transform="rotate(90,176.5,95.5)"/><path d="M 172 109v 9h 9a 9 9, 0, 0, 0, -9 -9" transform="rotate(-90,176.5,113.5)"/><rect x="172" y="118" width="9" height="9" transform="rotate(0,176.5,122.5)"/><rect x="172" y="127" width="9" height="9" transform="rotate(0,176.5,131.5)"/><path d="M 172 163v 9h 4.5a 4.5 4.5, 0, 0, 0, 0 -9" transform="rotate(180,176.5,167.5)"/><path d="M 172 190v 9h 9a 9 9, 0, 0, 0, -9 -9" transform="rotate(0,176.5,194.5)"/><rect x="172" y="199" width="9" height="9" transform="rotate(0,176.5,203.5)"/><rect x="172" y="208" width="9" height="9" transform="rotate(0,176.5,212.5)"/><rect x="172" y="217" width="9" height="9" transform="rotate(0,176.5,221.5)"/><rect x="172" y="226" width="9" height="9" transform="rotate(0,176.5,230.5)"/><path d="M 172 235v 9h 9a 9 9, 0, 0, 0, -9 -9" transform="rotate(90,176.5,239.5)"/><rect x="172" y="271" width="9" height="9" transform="rotate(0,176.5,275.5)"/><circle cx="185.5" cy="77.5" r="4.5" transform="rotate(0,185.5,77.5)"/><path d="M 181 109v 9h 9a 9 9, 0, 0, 0, -9 -9" transform="rotate(0,185.5,113.5)"/><rect x="181" y="118" width="9" height="9" transform="rotate(0,185.5,122.5)"/><rect x="181" y="127" width="9" height="9" transform="rotate(0,185.5,131.5)"/><rect x="181" y="136" width="9" height="9" transform="rotate(0,185.5,140.5)"/><path d="M 181 145v 9h 4.5a 4.5 4.5, 0, 0, 0, 0 -9" transform="rotate(90,185.5,149.5)"/><path d="M 181 163v 9h 9a 9 9, 0, 0, 0, -9 -9" transform="rotate(0,185.5,167.5)"/><path d="M 181 172v 9h 9a 9 9, 0, 0, 0, -9 -9" transform="rotate(180,185.5,176.5)"/><path d="M 181 199v 9h 4.5a 4.5 4.5, 0, 0, 0, 0 -9" transform="rotate(0,185.5,203.5)"/><rect x="181" y="226" width="9" height="9" transform="rotate(0,185.5,230.5)"/><path d="M 181 244v 9h 4.5a 4.5 4.5, 0, 0, 0, 0 -9" transform="rotate(-90,185.5,248.5)"/><path d="M 181 253v 9h 4.5a 4.5 4.5, 0, 0, 0, 0 -9" transform="rotate(90,185.5,257.5)"/><rect x="181" y="271" width="9" height="9" transform="rotate(0,185.5,275.5)"/><path d="M 190 46v 9h 4.5a 4.5 4.5, 0, 0, 0, 0 -9" transform="rotate(180,194.5,50.5)"/><path d="M 190 64v 9h 4.5a 4.5 4.5, 0, 0, 0, 0 -9" transform="rotate(180,194.5,68.5)"/><circle cx="194.5" cy="95.5" r="4.5" transform="rotate(0,194.5,95.5)"/><path d="M 190 127v 9h 9a 9 9, 0, 0, 0, -9 -9" transform="rotate(0,194.5,131.5)"/><rect x="190" y="136" width="9" height="9" transform="rotate(0,194.5,140.5)"/><rect x="190" y="172" width="9" height="9" transform="rotate(0,194.5,176.5)"/><path d="M 190 181v 9h 4.5a 4.5 4.5, 0, 0, 0, 0 -9" transform="rotate(90,194.5,185.5)"/><rect x="190" y="226" width="9" height="9" transform="rotate(0,194.5,230.5)"/><path d="M 190 235v 9h 9a 9 9, 0, 0, 0, -9 -9" transform="rotate(180,194.5,239.5)"/><rect x="190" y="271" width="9" height="9" transform="rotate(0,194.5,275.5)"/><path d="M 199 19v 9h 4.5a 4.5 4.5, 0, 0, 0, 0 -9" transform="rotate(-90,203.5,23.5)"/><rect x="199" y="28" width="9" height="9" transform="rotate(0,203.5,32.5)"/><rect x="199" y="37" width="9" height="9" transform="rotate(0,203.5,41.5)"/><path d="M 199 46v 9h 9a 9 9, 0, 0, 0, -9 -9" transform="rotate(90,203.5,50.5)"/><path d="M 199 64v 9h 9a 9 9, 0, 0, 0, -9 -9" transform="rotate(0,203.5,68.5)"/><rect x="199" y="73" width="9" height="9" transform="rotate(0,203.5,77.5)"/><path d="M 199 82v 9h 4.5a 4.5 4.5, 0, 0, 0, 0 -9" transform="rotate(90,203.5,86.5)"/><path d="M 199 100v 9h 4.5a 4.5 4.5, 0, 0, 0, 0 -9" transform="rotate(-90,203.5,104.5)"/><path d="M 199 109v 9h 4.5a 4.5 4.5, 0, 0, 0, 0 -9" transform="rotate(90,203.5,113.5)"/><rect x="199" y="136" width="9" height="9" transform="rotate(0,203.5,140.5)"/><path d="M 199 154v 9h 4.5a 4.5 4.5, 0, 0, 0, 0 -9" transform="rotate(180,203.5,158.5)"/><rect x="199" y="172" width="9" height="9" transform="rotate(0,203.5,176.5)"/><path d="M 199 199v 9h 9a 9 9, 0, 0, 0, -9 -9" transform="rotate(-90,203.5,203.5)"/><rect x="199" y="208" width="9" height="9" transform="rotate(0,203.5,212.5)"/><rect x="199" y="217" width="9" height="9" transform="rotate(0,203.5,221.5)"/><rect x="199" y="226" width="9" height="9" transform="rotate(0,203.5,230.5)"/><rect x="199" y="235" width="9" height="9" transform="rotate(0,203.5,239.5)"/><path d="M 199 244v 9h 4.5a 4.5 4.5, 0, 0, 0, 0 -9" transform="rotate(90,203.5,248.5)"/><rect x="199" y="271" width="9" height="9" transform="rotate(0,203.5,275.5)"/><circle cx="212.5" cy="95.5" r="4.5" transform="rotate(0,212.5,95.5)"/><circle cx="212.5" cy="122.5" r="4.5" transform="rotate(0,212.5,122.5)"/><rect x="208" y="136" width="9" height="9" transform="rotate(0,212.5,140.5)"/><rect x="208" y="145" width="9" height="9" transform="rotate(0,212.5,149.5)"/><rect x="208" y="154" width="9" height="9" transform="rotate(0,212.5,158.5)"/><rect x="208" y="163" width="9" height="9" transform="rotate(0,212.5,167.5)"/><path d="M 208 172v 9h 9a 9 9, 0, 0, 0, -9 -9" transform="rotate(90,212.5,176.5)"/><path d="M 208 190v 9h 9a 9 9, 0, 0, 0, -9 -9" transform="rotate(-90,212.5,194.5)"/><rect x="208" y="199" width="9" height="9" transform="rotate(0,212.5,203.5)"/><rect x="208" y="235" width="9" height="9" transform="rotate(0,212.5,239.5)"/><circle cx="212.5" cy="257.5" r="4.5" transform="rotate(0,212.5,257.5)"/><rect x="208" y="271" width="9" height="9" transform="rotate(0,212.5,275.5)"/><circle cx="221.5" cy="113.5" r="4.5" transform="rotate(0,221.5,113.5)"/><path d="M 217 127v 9h 4.5a 4.5 4.5, 0, 0, 0, 0 -9" transform="rotate(-90,221.5,131.5)"/><rect x="217" y="136" width="9" height="9" transform="rotate(0,221.5,140.5)"/><path d="M 217 154v 9h 9a 9 9, 0, 0, 0, -9 -9" transform="rotate(0,221.5,158.5)"/><path d="M 217 163v 9h 9a 9 9, 0, 0, 0, -9 -9" transform="rotate(90,221.5,167.5)"/><path d="M 217 181v 9h 4.5a 4.5 4.5, 0, 0, 0, 0 -9" transform="rotate(-90,221.5,185.5)"/><rect x="217" y="190" width="9" height="9" transform="rotate(0,221.5,194.5)"/><rect x="217" y="199" width="9" height="9" transform="rotate(0,221.5,203.5)"/><circle cx="221.5" cy="221.5" r="4.5" transform="rotate(0,221.5,221.5)"/><rect x="217" y="235" width="9" height="9" transform="rotate(0,221.5,239.5)"/><path d="M 217 271v 9h 4.5a 4.5 4.5, 0, 0, 0, 0 -9" transform="rotate(0,221.5,275.5)"/><circle cx="230.5" cy="104.5" r="4.5" transform="rotate(0,230.5,104.5)"/><circle cx="230.5" cy="122.5" r="4.5" transform="rotate(0,230.5,122.5)"/><rect x="226" y="136" width="9" height="9" transform="rotate(0,230.5,140.5)"/><rect x="226" y="190" width="9" height="9" transform="rotate(0,230.5,194.5)"/><rect x="226" y="199" width="9" height="9" transform="rotate(0,230.5,203.5)"/><rect x="226" y="235" width="9" height="9" transform="rotate(0,230.5,239.5)"/><path d="M 226 244v 9h 4.5a 4.5 4.5, 0, 0, 0, 0 -9" transform="rotate(90,230.5,248.5)"/><circle cx="239.5" cy="95.5" r="4.5" transform="rotate(0,239.5,95.5)"/><rect x="235" y="136" width="9" height="9" transform="rotate(0,239.5,140.5)"/><path d="M 235 154v 9h 4.5a 4.5 4.5, 0, 0, 0, 0 -9" transform="rotate(-90,239.5,158.5)"/><path d="M 235 163v 9h 4.5a 4.5 4.5, 0, 0, 0, 0 -9" transform="rotate(90,239.5,167.5)"/><path d="M 235 190v 9h 9a 9 9, 0, 0, 0, -9 -9" transform="rotate(0,239.5,194.5)"/><rect x="235" y="199" width="9" height="9" transform="rotate(0,239.5,203.5)"/><rect x="235" y="208" width="9" height="9" transform="rotate(0,239.5,212.5)"/><rect x="235" y="217" width="9" height="9" transform="rotate(0,239.5,221.5)"/><rect x="235" y="226" width="9" height="9" transform="rotate(0,239.5,230.5)"/><path d="M 235 235v 9h 9a 9 9, 0, 0, 0, -9 -9" transform="rotate(90,239.5,239.5)"/><path d="M 244 127v 9h 4.5a 4.5 4.5, 0, 0, 0, 0 -9" transform="rotate(-90,248.5,131.5)"/><rect x="244" y="136" width="9" height="9" transform="rotate(0,248.5,140.5)"/><circle cx="248.5" cy="185.5" r="4.5" transform="rotate(0,248.5,185.5)"/><path d="M 244 226v 9h 4.5a 4.5 4.5, 0, 0, 0, 0 -9" transform="rotate(0,248.5,230.5)"/><path d="M 244 262v 9h 4.5a 4.5 4.5, 0, 0, 0, 0 -9" transform="rotate(180,248.5,266.5)"/><path d="M 253 100v 9h 4.5a 4.5 4.5, 0, 0, 0, 0 -9" transform="rotate(180,257.5,104.5)"/><rect x="253" y="136" width="9" height="9" transform="rotate(0,257.5,140.5)"/><rect x="253" y="145" width="9" height="9" transform="rotate(0,257.5,149.5)"/><path d="M 253 154v 9h 9a 9 9, 0, 0, 0, -9 -9" transform="rotate(180,257.5,158.5)"/><path d="M 253 190v 9h 9a 9 9, 0, 0, 0, -9 -9" transform="rotate(-90,257.5,194.5)"/><rect x="253" y="199" width="9" height="9" transform="rotate(0,257.5,203.5)"/><path d="M 253 208v 9h 4.5a 4.5 4.5, 0, 0, 0, 0 -9" transform="rotate(90,257.5,212.5)"/><circle cx="257.5" cy="248.5" r="4.5" transform="rotate(0,257.5,248.5)"/><rect x="253" y="262" width="9" height="9" transform="rotate(0,257.5,266.5)"/><path d="M 253 271v 9h 9a 9 9, 0, 0, 0, -9 -9" transform="rotate(180,257.5,275.5)"/><path d="M 262 91v 9h 4.5a 4.5 4.5, 0, 0, 0, 0 -9" transform="rotate(-90,266.5,95.5)"/><rect x="262" y="100" width="9" height="9" transform="rotate(0,266.5,104.5)"/><rect x="262" y="109" width="9" height="9" transform="rotate(0,266.5,113.5)"/><path d="M 262 118v 9h 9a 9 9, 0, 0, 0, -9 -9" transform="rotate(180,266.5,122.5)"/><rect x="262" y="136" width="9" height="9" transform="rotate(0,266.5,140.5)"/><path d="M 262 154v 9h 9a 9 9, 0, 0, 0, -9 -9" transform="rotate(0,266.5,158.5)"/><rect x="262" y="163" width="9" height="9" transform="rotate(0,266.5,167.5)"/><path d="M 262 172v 9h 9a 9 9, 0, 0, 0, -9 -9" transform="rotate(180,266.5,176.5)"/><path d="M 262 190v 9h 9a 9 9, 0, 0, 0, -9 -9" transform="rotate(0,266.5,194.5)"/><rect x="262" y="199" width="9" height="9" transform="rotate(0,266.5,203.5)"/><path d="M 262 217v 9h 4.5a 4.5 4.5, 0, 0, 0, 0 -9" transform="rotate(-90,266.5,221.5)"/><path d="M 262 226v 9h 4.5a 4.5 4.5, 0, 0, 0, 0 -9" transform="rotate(90,266.5,230.5)"/><rect x="262" y="262" width="9" height="9" transform="rotate(0,266.5,266.5)"/><path d="M 262 271v 9h 9a 9 9, 0, 0, 0, -9 -9" transform="rotate(90,266.5,275.5)"/><path d="M 271 100v 9h 9a 9 9, 0, 0, 0, -9 -9" transform="rotate(0,275.5,104.5)"/><rect x="271" y="109" width="9" height="9" transform="rotate(0,275.5,113.5)"/><path d="M 271 118v 9h 9a 9 9, 0, 0, 0, -9 -9" transform="rotate(90,275.5,122.5)"/><path d="M 271 136v 9h 4.5a 4.5 4.5, 0, 0, 0, 0 -9" transform="rotate(0,275.5,140.5)"/><path d="M 271 172v 9h 9a 9 9, 0, 0, 0, -9 -9" transform="rotate(0,275.5,176.5)"/><path d="M 271 181v 9h 4.5a 4.5 4.5, 0, 0, 0, 0 -9" transform="rotate(90,275.5,185.5)"/><path d="M 271 199v 9h 9a 9 9, 0, 0, 0, -9 -9" transform="rotate(0,275.5,203.5)"/><path d="M 271 208v 9h 4.5a 4.5 4.5, 0, 0, 0, 0 -9" transform="rotate(90,275.5,212.5)"/><circle cx="275.5" cy="239.5" r="4.5" transform="rotate(0,275.5,239.5)"/><path d="M 271 262v 9h 4.5a 4.5 4.5, 0, 0, 0, 0 -9" transform="rotate(0,275.5,266.5)"/></clipPath><clipPath id="clip-path-corners-square-color-0-0"><path clip-rule="evenodd" d="M 19 19v 63h 63v -63zM 28 28h 45v 45h -45z" transform="rotate(0,50.5,50.5)"/></clipPath><clipPath id="clip-path-corners-dot-color-0-0"><rect x="37" y="37" width="27" height="27" transform="rotate(0,50.5,50.5)"/></clipPath><clipPath id="clip-path-corners-square-color-1-0"><path clip-rule="evenodd" d="M 217 19v 63h 63v -63zM 226 28h 45v 45h -45z" transform="rotate(90,248.5,50.5)"/></clipPath><clipPath id="clip-path-corners-dot-color-1-0"><rect x="235" y="37" width="27" height="27" transform="rotate(90,248.5,50.5)"/></clipPath><clipPath id="clip-path-corners-square-color-0-1"><path clip-rule="evenodd" d="M 19 217v 63h 63v -63zM 28 226h 45v 45h -45z" transform="rotate(-90,50.5,248.5)"/></clipPath><clipPath id="clip-path-corners-dot-color-0-1"><rect x="37" y="235" width="27" height="27" transform="rotate(-90,50.5,248.5)"/></clipPath></defs><rect x="0" y="0" height="300" width="300" clip-path="url('#clip-path-background-color')" fill="#ffffff" style="transform: scale(1) translate(0px, 0px);"/><rect x="0" y="0" height="300" width="300" clip-path="url('#clip-path-dot-color')" fill="#000000" style="transform: scale(1) translate(0px, 0px);"/><rect x="19" y="19" height="63" width="63" clip-path="url('#clip-path-corners-square-color-0-0')" fill="#000000" style="transform: scale(1) translate(0px, 0px);"/><rect x="37" y="37" height="27" width="27" clip-path="url('#clip-path-corners-dot-color-0-0')" fill="#000000" style="transform: scale(1) translate(0px, 0px);"/><rect x="217" y="19" height="63" width="63" clip-path="url('#clip-path-corners-square-color-1-0')" fill="#000000" style="transform: scale(1) translate(0px, 0px);"/><rect x="235" y="37" height="27" width="27" clip-path="url('#clip-path-corners-dot-color-1-0')" fill="#000000" style="transform: scale(1) translate(0px, 0px);"/><rect x="19" y="217" height="63" width="63" clip-path="url('#clip-path-corners-square-color-0-1')" fill="#000000" style="transform: scale(1) translate(0px, 0px);"/><rect x="37" y="235" height="27" width="27" clip-path="url('#clip-path-corners-dot-color-0-1')" fill="#000000" style="transform: scale(1) translate(0px, 0px);"/></svg></svg></svg>