<svg width="1920" height="1080" viewBox="0 0 1920 1080" fill="none" xmlns="http://www.w3.org/2000/svg">
<mask id="mask0_11_17426" style="mask-type:luminance" maskUnits="userSpaceOnUse" x="0" y="0" width="1920" height="1080">
<path d="M1920 0H0V1080H1920V0Z" fill="white"/>
</mask>
<g mask="url(#mask0_11_17426)">
<path d="M1920 0H0V1080H1920V0Z" fill="#FED851"/>
<mask id="mask1_11_17426" style="mask-type:luminance" maskUnits="userSpaceOnUse" x="0" y="-37" width="1920" height="1118">
<path d="M1920 -37H0V1080.02H1920V-37Z" fill="white"/>
</mask>
<g mask="url(#mask1_11_17426)">
<g style="mix-blend-mode:color-burn" opacity="0.43">
<path d="M1144.01 1080.01H760.01C755.54 1074.18 752.48 1066.54 743.56 1066.43C743.02 1066.43 742.5 1065.77 741.96 1065.42C743.35 1064.44 744.74 1063.47 746.14 1062.5C749.2 1061.48 747.83 1059.93 746.59 1058.38C743.22 1054.22 739.93 1049.99 736.42 1045.96C735.73 1045.18 734.16 1045.22 733 1044.89C731.34 1045.41 729.68 1045.95 728.02 1046.48C727.05 1046.65 726.09 1046.81 725.12 1046.98C726.26 1042.64 725.47 1038.35 722.65 1035.32C718.28 1030.62 718.66 1021.41 709.94 1020.9C710.62 1020.25 711.3 1019.6 711.98 1018.95C713.26 1018.59 714.53 1018.21 715.81 1017.85C716.47 1017.16 717.82 1016.13 717.69 1015.82C715.37 1010.64 712.93 1005.51 710.33 1000.48C710.01 999.845 708.64 999.793 707.76 999.483C706.49 999.7 705.21 999.917 703.94 1000.13L702.91 999.721C701.7 994.881 700.2 990.092 699.36 985.179C698.64 981.042 698.46 976.978 692.89 977.174C692.62 977.174 692.31 976.098 692.01 975.53C692.66 975.499 693.31 975.457 693.96 975.426C695.04 975.157 696.12 974.888 697.2 974.619C699.6 974.64 701.28 974.402 700.78 970.917C699.03 958.692 697.66 946.405 695.88 934.18C695.67 932.763 693.82 931.605 692.73 930.322C691.14 930.291 689.54 930.26 687.95 930.229C686.32 930.146 684.69 930.064 683.06 929.981C682.94 929.784 682.87 929.577 682.86 929.35C682.56 928.626 682.27 927.902 681.91 927.023C682.56 927.023 683.09 926.888 683.53 927.043C690.01 929.246 689.83 928.171 690.89 921.686C692.04 914.663 692.38 907.506 693.07 900.401C694.35 900.267 695.62 900.122 696.9 899.987C700.02 897.443 701.6 890.007 699.98 885.549C697.64 884.566 695.3 883.594 692.95 882.612C692.31 882.508 691.68 882.415 691.04 882.312C691.86 881.681 692.74 880.44 693.49 880.512C697.4 880.884 699.18 878.95 699.1 875.206C699.06 873.034 698.36 870.873 697.96 868.701C704.82 869.766 704.58 869.663 707.26 862.744C709.2 857.748 705.01 857.686 702.88 855.876C709.3 851.677 710.77 844.137 714.11 837.88C716.64 833.164 722.15 829.389 719.03 822.687C719.68 822.718 720.33 822.749 720.98 822.77C725.19 826.679 725.89 826.514 728.65 820.701C727.47 819.656 726.22 818.55 724.97 817.443C726.79 815.695 728.86 814.154 730.39 812.179C740.28 799.385 750.65 787.108 763.24 776.983C764.94 775.618 765.13 772.256 766.02 769.815C767.65 770.581 769.27 771.346 770.9 772.111C772.38 772.38 774.87 773.301 775.16 772.815C776.65 770.301 782.6 770.85 780.03 765.575C789.29 755.832 800.52 749.203 812.41 743.576C819.29 740.318 826.03 736.74 832.83 733.285C834.92 732.22 836.99 731.113 839.06 730.027C837.74 727.866 836.89 726.48 836.05 725.104C838.31 725.477 840.57 725.839 842.84 726.211C844.62 726.532 846.56 727.504 848.14 727.059C852.86 725.725 857.35 723.481 862.09 722.219C877.12 718.206 892.03 713.645 907.71 712.652C922.88 711.69 938 709.787 953.17 708.846C959.75 708.442 966.42 709.208 973.01 709.808C981.89 710.614 990.79 711.452 999.59 712.879C1007.73 714.193 1015.85 715.93 1023.81 718.133C1035.61 721.402 1047.42 724.784 1058.92 729.014C1068.24 732.448 1077.39 736.647 1086.11 741.487C1098.46 748.334 1110.51 755.801 1122.36 763.558C1127.91 767.188 1132.94 771.832 1137.76 776.497C1146.72 785.164 1155.35 794.203 1164.12 803.077C1162.28 805.322 1162.05 806.945 1165.6 806.956C1166.72 806.956 1167.85 806.79 1168.98 806.697C1176.99 819.543 1185 832.378 1193 845.223C1192.06 845.596 1191.11 845.968 1190.17 846.34C1186.62 848.523 1186.97 851.429 1191.13 854.449L1191.11 854.428C1191.2 857.035 1190.34 860.189 1194.37 860.541L1199.79 860.189C1200.52 863.478 1201.75 866.746 1201.85 870.056C1201.98 874.451 1202.11 877.761 1207.74 875.403C1208.3 875.165 1209.35 876.189 1210.18 876.623C1209.81 876.892 1209.45 877.161 1209.08 877.43C1206.25 877.958 1203.43 878.495 1200.98 878.95C1199.51 885.994 1204.96 885.787 1208.73 887.814C1207.5 888.662 1206.76 889.179 1206.01 889.696C1204.83 890.638 1203.65 891.589 1202.47 892.53C1203.65 893.316 1204.83 894.092 1206.02 894.878C1206.68 894.94 1207.33 894.992 1207.99 895.054C1208.67 902.48 1209.56 909.895 1209.95 917.342C1210.17 921.562 1210.01 925.44 1215.73 925.109C1216.13 925.089 1216.6 926.33 1217.03 926.981C1216.29 927.219 1215.55 927.457 1214.81 927.695C1212.29 928.057 1209.77 928.419 1207.25 928.791C1207.22 929.484 1207.2 930.177 1207.17 930.87L1214.22 932.742C1215.42 933.487 1216.62 934.221 1217.22 934.594C1215.96 937.634 1213.57 940.572 1214.07 942.837C1214.97 946.953 1215.19 950.211 1211.76 952.879C1212.72 953.645 1213.41 954.203 1214.3 954.927C1212.37 956.541 1210.81 957.844 1208.81 959.519C1211.01 960.336 1212.46 960.874 1214.32 961.557C1212.7 963.387 1211.39 964.856 1209.95 966.48C1211 967.349 1211.86 968.052 1212.98 968.972C1211.47 969.448 1210.23 969.841 1208.99 970.234C1206.51 969.903 1204.02 969.562 1201.93 969.283C1202.33 974.785 1203.37 979.563 1202.81 984.124C1202.2 989.058 1200.1 993.795 1198.65 998.614C1197.23 998.573 1195.8 998.542 1194.38 998.511C1190.38 998.894 1191.22 1002.03 1191.14 1004.63L1191.16 1004.61C1189.47 1007.44 1187.75 1010.24 1186.2 1013.15C1186.12 1013.3 1187.45 1014.25 1188.12 1014.84C1188.45 1015.12 1188.77 1015.41 1189.1 1015.69C1187.66 1019 1186.11 1022.27 1184.79 1025.64C1182.96 1030.35 1177.9 1033.83 1179.71 1039.92L1176.13 1039.3C1174.4 1036.2 1172.44 1037.63 1170.98 1039.33C1167.81 1043.04 1164.78 1046.88 1161.93 1050.84C1160.29 1053.12 1160.49 1055.1 1163.88 1055.28C1164.95 1056.24 1166.02 1057.22 1167.09 1058.18C1166.51 1058.88 1165.84 1060.26 1165.36 1060.18C1161.63 1059.67 1160.32 1062.69 1158.38 1064.88C1156.86 1066.61 1155.22 1068.23 1153.64 1069.9C1150.44 1073.27 1147.24 1076.65 1144.03 1080.02L1144.01 1080.01Z" fill="#FEFEFE"/>
<path d="M715.01 -36.9895C766.01 -36.9895 817.01 -36.9895 868.01 -36.9895C868.1 -34.4246 868.01 -31.8493 868.3 -29.305C872.8 11.3517 877.33 52.0188 881.9 92.6652C885.98 128.885 889.8 165.146 894.34 201.314C899.34 241.195 905.26 280.962 910.23 320.854C911.42 330.39 910.41 340.215 910.41 349.71C909.54 348.872 908.53 347.372 907.14 346.679C904.82 345.521 902.26 344.89 899.8 344.032C899.21 346.224 898 348.469 898.13 350.609C899.09 366.041 899.16 381.668 901.7 396.841C907.63 432.254 914.15 467.595 921.63 502.697C930.66 545.029 941.18 587.02 950.46 629.301C952.42 638.237 960.5 639.499 964.87 645.135C964.92 645.208 965.42 644.898 965.93 644.67C966.21 642.602 966.64 640.43 966.8 638.227C968.83 610.457 970.83 582.687 972.82 554.927C975.17 522.183 977.58 489.438 979.82 456.683C981.97 425.314 984 393.945 985.99 362.565C988.31 326.025 990.56 289.474 992.78 252.934C994.3 228.05 995.7 203.165 997.19 178.281C998.67 153.573 1000.27 128.885 1001.65 104.177C1002.95 80.8229 1004 57.459 1005.21 34.1054C1006.44 10.4002 1007.74 -13.2947 1009.01 -36.9895C1057.01 -36.9895 1105.01 -36.9895 1153.01 -36.9895C1149.16 -9.6127 1145.67 17.8158 1141.33 45.11C1137.72 67.8326 1132.72 90.3278 1129.01 113.04C1123.34 147.802 1118.57 182.718 1112.84 217.469C1108.93 241.195 1103.79 264.704 1099.64 288.399C1095.88 309.88 1093.08 331.548 1089.19 352.999C1082.73 388.66 1075.6 424.187 1068.99 459.817C1061.87 498.157 1056.08 536.807 1047.77 574.868C1039.68 611.915 1029.13 648.393 1019.71 685.13C1019.19 687.157 1019.09 689.309 1018.76 691.615C1022.08 691.45 1024.66 691.315 1027.69 691.16C1027.69 693.57 1027.69 695.431 1027.69 697.293C1026.49 696.29 1025.42 694.749 1024.06 694.387C1019.34 693.125 1014.55 691.936 1009.72 691.325C997.09 689.722 984.44 687.364 971.78 687.25C950.38 687.075 928.96 688.14 907.59 689.35C904.15 689.547 899.33 689.743 897.1 694.211C896.66 692.908 896.16 691.625 895.81 690.302C884.26 646.49 872.31 602.793 861.26 558.847C837.41 463.933 814.05 368.895 790.44 273.919C777.14 220.427 763.44 167.039 750.44 113.474C738.27 63.406 726.79 13.172 715.01 -36.9895Z" fill="#F9F3E5"/>
<path d="M0.0100098 130.56C0.0100098 74.8242 0.0100098 19.0776 0.0100098 -36.9895C29.68 -36.9895 59.34 -36.9895 89.01 -36.9895C97.09 -27.2882 105.17 -17.5765 113.25 -7.87515C113 -7.50282 112.75 -7.13048 112.49 -6.75815C109.13 -8.25782 105.77 -9.76784 102.42 -11.2675C102.65 -9.66442 103.27 -8.86804 103.92 -8.11303C150.31 44.8824 196.69 97.8985 243.11 150.863C315.72 233.707 388.55 316.344 460.91 399.416C500.92 445.358 540.21 491.982 579.74 538.369C593.06 554.007 605.64 570.348 619.42 585.521C638.1 606.102 658.23 625.288 676.61 646.139C705.54 678.956 733.52 712.652 761.9 745.986C764.57 748.789 767.24 751.581 769.92 754.384C770.34 755.336 770.76 756.277 771.18 757.228C768.03 759.752 764.88 762.286 761.73 764.81C759.52 763.217 757.32 761.634 755.11 760.042C753.53 758.697 751.95 757.363 750.36 756.018L750.28 756.08C749.9 755.677 749.53 755.263 749.15 754.86C745.28 751.344 741.64 747.486 737.48 744.373C720.49 731.682 703.33 719.219 686.24 706.664C633.67 668.044 583.65 626.074 534.13 583.432C491.38 546.612 448.36 510.144 405.48 473.49C379.94 451.657 354.41 429.803 328.91 407.907C293.29 377.324 257.6 346.834 222.14 316.044C199.58 296.466 177.39 276.432 155.04 256.606C128.27 232.849 101.51 209.081 74.73 185.335C68.81 180.091 62.82 174.941 56.87 169.749C56.7 169.976 56.53 170.204 56.36 170.431C57.16 172.179 57.96 173.927 58.76 175.675C56.87 175.675 55.56 175.096 54.45 174.237C50.6 171.238 46.81 168.125 43 165.063C28.66 153.573 14.34 142.061 0.0100098 130.56Z" fill="#F05A2B"/>
<path d="M1825.01 -36.9895C1856.68 -36.9895 1888.34 -36.9895 1920.01 -36.9895V119.184C1916.89 121.469 1914.67 125.4 1909.4 125.782C1910.92 122.835 1911.96 120.818 1913 118.801C1910.92 119.639 1909.33 120.818 1907.85 122.121C1885.22 142.155 1862.61 162.219 1839.97 182.242C1802.03 215.794 1764.15 249.397 1726.09 282.803C1704.16 302.051 1681.88 320.885 1659.85 340.029C1647.12 351.096 1634.69 362.534 1621.91 373.539C1604.37 388.639 1586.75 403.636 1568.94 418.385C1551.15 433.112 1533.11 447.52 1515.11 461.989C1506.71 468.743 1497.92 475.01 1489.7 481.991C1466.69 501.56 1444.12 521.707 1420.91 541.027C1402.91 556.024 1384.21 570.11 1365.83 584.631C1350.9 596.432 1336.02 608.316 1321.06 620.096C1308.76 629.787 1296.34 639.344 1284.04 649.045C1264.86 664.176 1246.14 679.969 1226.51 694.418C1199.68 714.162 1172.18 732.913 1144.96 752.099L1137.95 756.091C1136.25 756.701 1134.55 757.311 1131.93 758.252C1133.4 756.308 1134.19 755.263 1134.99 754.208C1137.29 751.778 1139.6 749.347 1141.9 746.917C1142.65 746.234 1143.43 745.593 1144.13 744.869C1198.54 688.306 1249.8 628.732 1301.06 569.148C1361.39 499.026 1421.77 428.944 1482.55 359.246C1536.66 297.211 1591.73 236.076 1645.65 173.875C1679.88 134.377 1712.85 93.6995 1746.24 53.4254C1764.11 31.8714 1780.1 8.65232 1800.32 -10.8331C1808.94 -19.1175 1816.81 -28.2397 1825.01 -36.9895Z" fill="#F05A2B"/>
<path d="M761.89 745.996C733.51 712.673 705.52 678.966 676.6 646.149C658.22 625.298 638.09 606.113 619.41 585.531C605.63 570.348 593.06 554.007 579.73 538.379C540.2 491.982 500.92 445.368 460.9 399.426C388.54 316.355 315.71 233.717 243.1 150.873C196.68 97.9089 150.3 44.8928 103.91 -8.10268C103.25 -8.85769 102.64 -9.65407 102.41 -11.2572C105.77 -9.7575 109.13 -8.24748 112.48 -6.7478C112.73 -7.12014 112.98 -7.49248 113.24 -7.86481C105.17 -17.5765 97.09 -27.2882 89.01 -36.9895C158.34 -36.9895 227.68 -36.9895 297.01 -36.9895C300.15 -31.7148 303.3 -26.4504 306.41 -21.155C334.33 26.1933 362.61 73.3245 390.02 120.983C410.06 155.838 432.58 188.851 455.58 221.606C526.51 322.643 596.91 424.083 668.32 524.748C707.42 579.863 748.14 633.759 788.19 688.161C795.64 698.276 803.34 708.194 810.93 718.206C807.94 719.478 804.84 720.543 801.97 722.064C795.25 725.621 788.53 729.2 782 733.12C775.18 737.205 768.59 741.694 761.9 746.017L761.89 745.996Z" fill="#F9F3E5"/>
<path d="M1144.98 752.099C1172.19 732.923 1199.7 714.162 1226.53 694.418C1246.17 679.959 1264.89 664.176 1284.06 649.045C1296.36 639.344 1308.77 629.787 1321.08 620.096C1336.03 608.316 1350.91 596.432 1365.85 584.631C1384.22 570.11 1402.92 556.013 1420.93 541.027C1444.13 521.697 1466.7 501.56 1489.72 481.991C1497.94 475 1506.72 468.743 1515.13 461.989C1533.13 447.52 1551.17 433.112 1568.96 418.384C1586.77 403.636 1604.39 388.639 1621.93 373.539C1634.71 362.534 1647.14 351.096 1659.87 340.029C1681.9 320.895 1704.18 302.061 1726.11 282.803C1764.17 249.397 1802.05 215.794 1839.99 182.242C1862.63 162.219 1885.23 142.155 1907.87 122.121C1909.35 120.807 1910.94 119.639 1913.02 118.801C1911.98 120.818 1910.94 122.835 1909.42 125.782C1914.69 125.4 1916.91 121.469 1920.03 119.184V307.419C1918.57 308.112 1916.99 308.619 1915.67 309.518C1861.52 346.245 1807.53 383.22 1753.23 419.719C1662.77 480.502 1572.53 541.647 1481.44 601.397C1397.51 656.45 1312.61 709.932 1228.05 763.951C1213.62 773.166 1198.75 781.637 1184.08 790.449C1183.84 788.143 1183.82 786.126 1181.71 784.161C1175.59 778.472 1170.27 771.843 1164.02 766.33C1158.09 761.097 1151.37 756.815 1145 752.109L1144.98 752.099Z" fill="#F9F3E5"/>
<path d="M0.0100098 130.56C14.34 142.061 28.66 153.573 42.99 165.074C46.8 168.135 50.58 171.238 54.44 174.248C55.55 175.106 56.86 175.685 58.75 175.685C57.95 173.937 57.15 172.189 56.35 170.441C56.52 170.214 56.69 169.986 56.86 169.759C62.82 174.951 68.81 180.101 74.72 185.345C101.5 209.092 128.26 232.859 155.03 256.616C177.38 276.453 199.57 296.476 222.13 316.055C257.59 346.834 293.28 377.335 328.9 407.918C354.4 429.813 379.92 451.667 405.47 473.5C448.35 510.154 491.37 546.622 534.12 583.442C583.64 626.084 633.66 668.065 686.23 706.674C703.32 719.23 720.48 731.693 737.47 744.383C741.63 747.486 745.26 751.354 749.14 754.87C749.52 755.284 749.89 755.687 750.27 756.091C750.27 756.091 750.35 756.029 750.34 756.029C749.65 756.763 749.01 757.559 748.28 758.232C740.41 765.472 732.07 772.246 724.78 780.065C717.89 787.46 712.1 795.961 705.82 803.977C702.09 801.433 698.3 798.961 694.63 796.323C640.43 757.27 586.2 718.247 532.06 679.111C499.46 655.55 467.4 631.173 434.36 608.305C380.26 570.855 325.52 534.418 271.14 497.402C222.74 464.461 174.55 431.178 126.11 398.309C84.2 369.888 42.05 341.839 0.0100098 313.624C0.0100098 252.603 0.0100098 191.582 0.0100098 130.56Z" fill="#F9F3E5"/>
<path d="M1825.01 -36.9895C1816.81 -28.2397 1808.94 -19.1175 1800.33 -10.8228C1780.11 8.66265 1764.13 31.8818 1746.25 53.4357C1712.86 93.7098 1679.89 134.387 1645.66 173.886C1591.74 236.096 1536.67 297.221 1482.56 359.256C1421.77 428.955 1361.4 499.036 1301.07 569.159C1249.81 628.742 1198.55 688.316 1144.14 744.879C1143.44 745.603 1142.66 746.245 1141.91 746.927C1132.94 741.218 1123.96 735.54 1115.01 729.8C1112.57 728.238 1110.21 726.532 1107.81 724.898C1113.91 717.161 1119.96 709.384 1126.11 701.699C1147.57 674.912 1169.27 648.311 1190.53 621.347C1232.95 567.545 1273.81 512.585 1310.21 454.097C1330.65 421.26 1353.55 390.056 1375.14 357.973C1403.59 315.714 1431.76 273.268 1460.2 231.008C1491.6 184.373 1523.24 137.914 1554.66 91.3C1581.41 51.6051 1608 11.7965 1634.71 -27.9294C1635.51 -29.1188 1636.91 -29.8738 1638.02 -30.8254C1638.39 -28.9327 1638.77 -27.04 1639.14 -25.1473C1639.59 -24.9611 1640.03 -24.7749 1640.48 -24.5888C1642.98 -28.7258 1645.49 -32.8628 1647.99 -36.9895C1706.99 -36.9895 1765.99 -36.9895 1824.99 -36.9895H1825.01Z" fill="#F9F3E5"/>
<path d="M1638.04 -30.8255C1636.92 -29.8739 1635.52 -29.1086 1634.73 -27.9295C1608.02 11.7964 1581.43 51.605 1554.68 91.2999C1523.26 137.914 1491.62 184.373 1460.22 231.008C1431.77 273.257 1403.6 315.714 1375.16 357.973C1353.56 390.056 1330.67 421.26 1310.23 454.097C1273.83 512.585 1232.97 567.545 1190.55 621.348C1169.29 648.311 1147.6 674.901 1126.13 701.699C1119.97 709.384 1113.93 717.161 1107.83 724.898C1106.1 726.325 1104.36 727.752 1101.96 729.738C1102.26 726.614 1102.48 724.37 1102.7 722.126C1102.74 720.399 1102.79 718.682 1102.83 716.954C1102.59 716.21 1102.36 715.465 1102.12 714.72C1097.28 712.269 1092.45 709.808 1087.33 707.212C1087.26 707.408 1087.46 706.581 1087.83 705.857C1104.09 674.819 1120.27 643.75 1136.65 612.784C1172.38 545.267 1207.65 477.513 1239.87 408.104C1265.96 351.913 1291.96 295.68 1318.51 239.727C1337.58 199.546 1358.18 160.13 1376.87 119.763C1400.23 69.3012 1422.32 18.2088 1444.92 -32.6251C1445.52 -33.9696 1445.67 -35.5313 1446.03 -37C1510.7 -37 1575.36 -37 1640.03 -37C1639.36 -34.9211 1638.69 -32.8423 1638.01 -30.7634L1638.05 -30.8358L1638.04 -30.8255Z" fill="#F05A2B"/>
<path d="M810.93 718.195C803.34 708.184 795.64 698.265 788.19 688.15C748.15 633.748 707.43 579.853 668.32 524.737C596.9 424.073 526.51 322.633 455.58 221.596C432.59 188.841 410.06 155.827 390.02 120.973C362.61 73.3039 334.32 26.183 306.41 -21.1654C303.3 -26.4504 300.15 -31.7148 297.01 -36.9895C350.01 -36.9895 403.01 -36.9895 456.01 -36.9895C456.4 -35.4278 456.54 -33.7316 457.21 -32.3147C460.51 -25.3645 464.1 -18.5487 467.3 -11.5468C469.16 -7.49247 471.52 -4.26558 475.65 -2.52803C479.84 -0.759449 482.48 2.57087 484.52 6.73893C491.36 20.7118 498.45 34.5398 505.39 48.461C544.74 127.406 584.06 206.361 623.41 285.317C663.98 366.723 704.54 448.119 745.13 529.505C774.96 589.316 804.82 649.097 834.67 708.897C836.09 711.618 837.51 714.348 838.94 717.068C839.09 718.02 839.24 718.982 839.38 719.943C837.9 721.309 836.42 722.663 834.94 724.029C830.88 726.428 826.83 728.817 822.37 731.455C820.38 729.231 818.16 726.738 815.93 724.246C814.26 722.229 812.59 720.212 810.92 718.185L810.93 718.195Z" fill="#F05A2B"/>
<path d="M715.01 -36.9895C726.79 13.172 738.27 63.406 750.43 113.464C763.44 167.028 777.13 220.417 790.43 273.909C814.05 368.885 837.4 463.923 861.25 558.837C872.29 602.783 884.24 646.48 895.8 690.291C896.15 691.615 896.66 692.897 897.09 694.201C897.23 697.531 895.88 698.689 893.57 696.031C890.07 692.008 886.29 692.701 882.4 694.676C880.36 695.711 878.6 697.355 876.48 698.896C875.34 698.048 874.17 697.179 873 696.311C871.84 694.428 870.54 692.629 869.55 690.653C850.85 653.203 831.35 616.145 813.71 578.167C782.59 511.168 753.03 443.382 722.03 376.321C682.19 290.147 641.55 204.365 601.3 118.398C592.24 99.0362 582.74 79.8507 574.56 60.0964C563.95 34.4881 554.46 8.37307 544.49 -17.5144C541.99 -23.9992 539.5 -30.4944 537.01 -36.9895C596.34 -36.9895 655.68 -36.9895 715.01 -36.9895Z" fill="#F05A2B"/>
<path d="M1102.8 716.954C1102.76 718.682 1102.71 720.398 1102.67 722.126C1098.35 720.202 1094.08 718.154 1089.7 716.386C1079.55 712.29 1069.45 708.008 1059.13 704.419C1050.9 701.554 1042.37 699.62 1033.97 697.262C1035.97 692.732 1038.28 688.305 1039.92 683.641C1044.28 671.188 1047.47 658.219 1052.68 646.17C1081.95 578.56 1106.35 508.944 1132.45 440.042C1149.81 394.224 1166.82 348.251 1183.96 302.351C1195.65 271.044 1207.91 239.944 1218.82 208.347C1236.66 156.644 1253.6 104.611 1270.95 52.7221C1280.94 22.8217 1290.98 -7.07877 1301.01 -36.9895C1349.34 -36.9895 1397.68 -36.9895 1446.01 -36.9895C1445.65 -35.5312 1445.49 -33.9695 1444.9 -32.6146C1422.3 18.2192 1400.21 69.3116 1376.85 119.773C1358.17 160.14 1337.56 199.556 1318.49 239.737C1291.94 295.69 1265.93 351.923 1239.85 408.114C1207.63 477.523 1172.35 545.278 1136.63 612.794C1120.25 643.76 1104.07 674.829 1087.81 705.867C1087.43 706.591 1087.23 707.419 1087.31 707.222C1092.43 709.818 1097.27 712.28 1102.1 714.731C1102.34 715.475 1102.57 716.22 1102.81 716.965L1102.8 716.954Z" fill="#F9F3E5"/>
<path d="M1920.01 901.084V1043.81C1911.25 1043.15 1902.47 1042.62 1893.73 1041.79C1860.1 1038.62 1826.48 1035.37 1792.85 1032.11C1748.13 1027.79 1703.41 1023.41 1658.69 1019.09C1620.26 1015.39 1581.83 1011.78 1543.4 1008.1C1498.68 1003.82 1453.95 999.566 1409.24 995.18C1373.47 991.674 1337.71 987.93 1301.94 984.424C1280.42 982.314 1258.87 980.473 1237.34 978.508C1236.71 978.488 1236.08 978.467 1235.45 978.446C1233.97 978.198 1232.5 977.939 1231.02 977.691C1228.78 977.639 1226.53 977.577 1224.29 977.515L1223.02 976.522L1221.05 976.471L1217.4 975.147C1216.23 974.981 1215.07 974.826 1213.9 974.661C1217.35 973.378 1218.57 970.627 1219.02 967.049C1219.94 959.788 1221.43 952.59 1222.1 945.309C1222.62 939.589 1222.26 933.777 1222.3 928.016L1235.84 925.13C1238.03 925.171 1240.21 925.202 1242.4 925.234L1243.98 925.585C1244.68 925.585 1245.38 925.564 1246.08 925.554C1248.17 925.368 1250.26 925.171 1252.36 924.985C1268.64 924.106 1284.92 923.237 1301.2 922.338C1328.12 920.848 1355.04 919.162 1381.97 917.859C1405.08 916.742 1428.21 916.091 1451.33 915.17C1480.77 914.001 1510.2 912.678 1539.64 911.581C1556.94 910.93 1574.25 910.661 1591.55 910.071C1625.15 908.923 1658.75 907.589 1692.36 906.482C1716.48 905.686 1740.61 905.034 1764.74 904.476C1797.03 903.731 1829.33 903.162 1861.62 902.47C1881.09 902.056 1900.56 901.539 1920.03 901.073L1920.01 901.084Z" fill="#F05A2B"/>
<path d="M0.0100098 1040.71C0.0100098 992.44 0.0100098 944.181 0.0100098 895.912C1.81001 896.192 3.61001 896.647 5.42001 896.729C29.68 897.867 53.94 899.025 78.21 900.029C110.46 901.363 142.71 902.656 174.96 903.742C178.67 903.866 183.29 905.831 185.91 900.722C186.12 900.318 187.44 900.432 188.24 900.463C217.33 901.797 246.43 902.987 275.5 904.538C306.89 906.214 338.25 908.272 369.63 910.113C396.87 911.705 424.11 913.164 451.35 914.767C488.71 916.97 526.07 919.235 563.42 921.541C579.69 922.544 595.94 923.827 612.21 924.851C629.46 925.937 646.73 926.868 663.99 927.871C666.98 928.098 669.96 928.326 672.95 928.554C674.62 928.75 676.28 928.957 677.95 929.153C679.02 940.799 679.78 952.497 681.35 964.07C681.89 968.011 680.83 973.296 685.99 975.488C684.33 975.861 682.67 976.223 681.02 976.595C677.68 976.936 674.35 977.277 671.01 977.619C670 977.67 668.99 977.722 667.98 977.774C666.47 978.001 664.96 978.239 663.44 978.467C661.78 978.508 660.11 978.446 658.47 978.601C621.7 982.17 584.94 985.841 548.17 989.316C500.8 993.795 453.42 998.18 406.04 1002.48C365.94 1006.12 325.81 1009.43 285.72 1013.18C237.18 1017.71 188.66 1022.56 140.13 1027.23C93.43 1031.75 46.72 1036.22 0.0100098 1040.71Z" fill="#F05A2B"/>
<path d="M1184.05 790.449C1198.72 781.637 1213.6 773.166 1228.02 763.951C1312.58 709.932 1397.48 656.45 1481.41 601.397C1572.5 541.647 1662.75 480.502 1753.2 419.719C1807.5 383.23 1861.49 346.245 1915.64 309.518C1916.97 308.619 1918.54 308.112 1920 307.419V461.523C1881.45 480.709 1842.78 499.646 1804.37 519.132C1728.44 557.648 1652.82 596.825 1576.75 635.041C1506.94 670.113 1435.64 701.616 1362.78 729.397C1321.4 745.179 1280.39 761.986 1239.24 778.4C1223.73 784.585 1208.3 790.966 1192.83 797.254C1189.89 798.402 1186.94 799.561 1184 800.709C1181.4 801.505 1178.79 802.312 1176.19 803.108C1175.14 801.298 1174.09 799.488 1173.04 797.689C1174.01 796.965 1174.99 796.23 1175.96 795.506C1178.66 793.821 1181.35 792.124 1184.05 790.439V790.449Z" fill="#F05A2B"/>
<path d="M1192.84 797.254C1208.31 790.966 1223.74 784.585 1239.25 778.4C1280.4 761.986 1321.41 745.169 1362.79 729.397C1435.64 701.616 1506.95 670.113 1576.76 635.041C1652.83 596.825 1728.45 557.648 1804.38 519.132C1842.79 499.646 1881.46 480.709 1920.01 461.523V600.114C1857.61 622.03 1795.29 644.215 1732.78 665.79C1650.04 694.335 1567.21 722.602 1484.29 750.599C1413.88 774.366 1343.31 797.637 1272.76 820.98C1253.58 827.331 1234.25 833.174 1214.99 839.245C1214.58 836.929 1214.71 834.302 1213.67 832.347C1209.47 824.455 1204.99 816.729 1200.46 809.035C1198.09 805.011 1195.39 801.185 1192.84 797.265V797.254Z" fill="#F9F3E5"/>
<path d="M0.0100098 568.052C0.0100098 522.545 0.0100098 477.037 0.0100098 431.53C1.30001 432.306 2.58001 433.112 3.90001 433.847C32.52 449.671 61.28 465.236 89.76 481.34C150.96 515.936 211.66 551.483 273.23 585.355C343.02 623.757 413.52 660.784 483.73 698.369C540.49 728.755 597.25 759.111 654.06 789.394C669.29 797.513 684.69 805.26 700.02 813.182C698.52 814.133 697.84 815.83 696.84 817.05C689.4 826.079 685.34 836.773 681.49 847.654C678.95 846.837 676.37 846.165 673.89 845.192C645.09 833.909 616.29 822.604 587.52 811.258C519.85 784.564 451.86 758.708 384.62 730.886C301.12 696.342 218.27 660.122 135.11 624.688C91.83 606.247 48.51 587.931 5.19001 569.583C3.54001 568.88 1.74001 568.559 0.0100098 568.063V568.052Z" fill="#F9F3E5"/>
<path d="M1301.01 -36.9895C1290.98 -7.07877 1280.94 22.8217 1270.94 52.7324C1253.6 104.621 1236.66 156.655 1218.81 208.357C1207.9 239.954 1195.64 271.054 1183.95 302.361C1166.81 348.272 1149.8 394.234 1132.44 440.052C1106.34 508.965 1081.94 578.57 1052.67 646.18C1047.46 658.219 1044.27 671.199 1039.91 683.651C1038.27 688.326 1035.96 692.742 1033.96 697.272C1032.94 698.989 1031.92 700.706 1030.91 702.433C1030.26 702.051 1029.62 701.658 1028.97 701.275L1027.68 697.293V691.16C1024.66 691.315 1022.07 691.439 1018.75 691.615C1019.08 689.309 1019.17 687.168 1019.7 685.13C1029.12 648.393 1039.68 611.915 1047.76 574.868C1056.07 536.807 1061.86 498.167 1068.98 459.817C1075.59 424.187 1082.72 388.66 1089.18 352.999C1093.07 331.538 1095.86 309.88 1099.63 288.399C1103.78 264.714 1108.92 241.195 1112.83 217.469C1118.56 182.718 1123.34 147.802 1129 113.04C1132.7 90.3278 1137.7 67.843 1141.32 45.11C1145.67 17.8158 1149.16 -9.6127 1153.01 -36.9895C1202.34 -36.9895 1251.68 -36.9895 1301.01 -36.9895Z" fill="#F05A2B"/>
<path d="M1009.01 -36.9895C1007.74 -13.2947 1006.45 10.4002 1005.21 34.1054C1004 57.459 1002.95 80.8229 1001.65 104.177C1000.27 128.885 998.67 153.583 997.19 178.281C995.7 203.165 994.29 228.05 992.78 252.934C990.55 289.485 988.31 326.025 985.99 362.566C984 393.945 981.97 425.324 979.82 456.683C977.57 489.438 975.17 522.183 972.82 554.927C970.83 582.697 968.83 610.467 966.8 638.227C966.64 640.419 966.22 642.602 965.93 644.67C965.42 644.898 964.92 645.198 964.87 645.136C960.5 639.488 952.42 638.237 950.46 629.301C941.18 587.02 930.66 545.03 921.63 502.697C914.15 467.605 907.63 432.254 901.7 396.841C899.16 381.668 899.09 366.051 898.13 350.609C898 348.458 899.21 346.224 899.8 344.032C902.26 344.89 904.82 345.521 907.14 346.679C908.53 347.372 909.54 348.872 910.41 349.71C910.41 340.215 911.42 330.39 910.23 320.854C905.26 280.962 899.34 241.206 894.34 201.314C889.81 165.146 885.98 128.895 881.9 92.6652C877.32 52.0085 872.8 11.3517 868.3 -29.305C868.02 -31.8493 868.1 -34.4246 868.01 -36.9895C915.01 -36.9895 962.01 -36.9895 1009.01 -36.9895Z" fill="#F05A2B"/>
<path d="M700.01 813.172C684.69 805.249 669.28 797.492 654.05 789.384C597.24 759.111 540.47 728.745 483.72 698.358C413.51 660.773 343.01 623.747 273.22 585.345C211.66 551.463 150.95 515.915 89.75 481.33C61.27 465.236 32.52 449.661 3.89 433.836C2.57 433.112 1.3 432.295 0 431.52C0 392.218 0 352.916 0 313.614C42.04 341.829 84.19 369.878 126.09 398.31C174.54 431.178 222.72 464.461 271.12 497.402C325.5 534.418 380.24 570.855 434.34 608.306C467.38 631.173 499.44 655.551 532.04 679.111C586.19 718.247 640.41 757.27 694.61 796.324C698.28 798.961 702.07 801.433 705.8 803.977C708.16 805.715 710.53 807.462 712.89 809.2C714.32 810.772 715.76 812.344 717.19 813.916C715.64 815.581 714.09 817.257 712.54 818.922C710.59 818.126 708.64 817.34 706.69 816.543C704.45 815.416 702.22 814.289 699.98 813.161L700.01 813.172Z" fill="#F05A2B"/>
<path d="M1214.99 839.235C1234.25 833.164 1253.58 827.32 1272.76 820.97C1343.3 797.616 1413.87 774.356 1484.29 750.589C1567.21 722.601 1650.04 694.325 1732.78 665.779C1795.29 644.215 1857.61 622.02 1920.01 600.104V703.53C1919.02 703.644 1918.01 703.654 1917.04 703.881C1869.16 715.186 1821.31 726.666 1773.39 737.805C1709.23 752.709 1645.16 768.026 1580.79 781.885C1533.04 792.166 1484.8 800.016 1436.91 809.645C1387.88 819.501 1339 830.185 1290.05 840.528C1268.03 845.182 1246.02 849.908 1224.01 854.604C1221 855.297 1218 856 1214.99 856.693C1212.39 857.066 1209.79 857.438 1207.19 857.81C1205.81 852.959 1204.42 848.119 1203.04 843.279C1205.04 842.565 1207.04 841.862 1209.04 841.148C1211.02 840.507 1213.01 839.866 1214.99 839.225V839.235Z" fill="#F05A2B"/>
<path d="M664 927.871C646.74 926.868 629.48 925.937 612.22 924.851C595.95 923.827 579.7 922.555 563.43 921.541C526.08 919.225 488.72 916.97 451.36 914.767C424.12 913.153 396.88 911.705 369.64 910.113C338.26 908.282 306.9 906.224 275.51 904.538C246.43 902.987 217.34 901.797 188.25 900.463C187.45 900.422 186.12 900.318 185.92 900.722C183.29 905.821 178.68 903.866 174.97 903.742C142.71 902.656 110.46 901.373 78.22 900.029C53.95 899.025 29.69 897.867 5.43001 896.729C3.62001 896.647 1.82001 896.192 0.0200098 895.912C0.0100098 862.475 0.0100098 829.027 0.0100098 795.589C14.4 797.161 28.87 798.175 43.15 800.419C86.27 807.194 129.3 814.63 172.41 821.466C211.74 827.703 251.17 833.298 290.51 839.524C323.43 844.737 356.24 850.705 389.17 855.876C419.95 860.716 450.82 864.936 481.64 869.456C525.49 875.879 569.33 882.301 613.17 888.776C631.13 891.424 649.06 894.216 667.01 896.936C664 907.041 663.63 917.425 664 927.881V927.871Z" fill="#F9F3E5"/>
<path d="M537.01 -36.9895C539.5 -30.4944 541.99 -23.9992 544.49 -17.5144C554.46 8.38341 563.95 34.4881 574.56 60.0964C582.74 79.8507 592.24 99.0362 601.3 118.398C641.55 204.365 682.19 290.147 722.03 376.321C753.03 443.382 782.59 511.168 813.71 578.167C831.35 616.145 850.85 653.203 869.55 690.653C870.54 692.629 871.84 694.428 873 696.311C867.24 697.665 861.45 698.896 855.74 700.427C852.93 701.182 850.29 703.24 847.52 703.364C842.43 703.602 838.36 705.567 834.69 708.897C804.84 649.097 774.98 589.316 745.15 529.505C704.56 448.119 663.99 366.713 623.43 285.317C584.09 206.372 544.76 127.406 505.41 48.461C498.47 34.5398 491.38 20.7118 484.54 6.73893C482.5 2.56052 479.86 -0.769791 475.67 -2.52803C471.54 -4.26558 469.17 -7.49247 467.32 -11.5468C464.12 -18.5487 460.53 -25.3645 457.23 -32.3147C456.56 -33.7316 456.41 -35.4278 456.03 -36.9895C483.03 -36.9895 510.03 -36.9895 537.03 -36.9895H537.01Z" fill="#F9F2E4"/>
<path d="M1242.39 925.244C1240.2 925.213 1238.02 925.182 1235.83 925.151C1236.55 923.879 1237.87 922.627 1237.89 921.345C1238.07 911.55 1237.91 901.766 1233.01 892.892C1236.41 892.272 1239.79 891.444 1243.22 891.072C1266.38 888.507 1289.55 886.035 1312.71 883.522C1364.52 877.906 1416.33 872.311 1468.13 866.653C1526.55 860.272 1584.96 853.808 1643.37 847.385C1697.15 841.469 1750.91 835.387 1804.71 829.699C1843.11 825.645 1881.57 822.118 1920 818.353V901.094C1900.53 901.559 1881.06 902.076 1861.59 902.49C1829.3 903.183 1797 903.752 1764.71 904.497C1740.58 905.055 1716.45 905.707 1692.33 906.503C1658.73 907.61 1625.13 908.944 1591.52 910.092C1574.22 910.682 1556.91 910.95 1539.61 911.602C1510.17 912.709 1480.74 914.022 1451.3 915.191C1428.18 916.111 1405.05 916.773 1381.94 917.88C1355.01 919.183 1328.1 920.859 1301.17 922.358C1284.89 923.258 1268.61 924.127 1252.33 925.006C1250.24 925.192 1248.15 925.389 1246.06 925.575C1245.36 925.575 1244.66 925.596 1243.96 925.606C1243.43 925.492 1242.91 925.368 1242.38 925.254L1242.39 925.244Z" fill="#F9F3E5"/>
<path d="M0.0100098 568.052C1.74001 568.549 3.54001 568.869 5.19001 569.572C48.51 587.91 91.83 606.227 135.11 624.678C218.27 660.112 301.12 696.331 384.62 730.876C451.85 758.697 519.85 784.543 587.52 811.248C616.3 822.604 645.09 833.898 673.89 845.182C676.37 846.154 678.95 846.837 681.49 847.643C683.94 848.657 686.39 849.681 688.84 850.695C691.66 851.894 694.47 853.094 697.29 854.304C695.54 858.4 693.79 862.495 692.04 866.601C689.36 866.012 686.69 865.422 684.01 864.823C681.36 864.109 678.72 863.395 676.07 862.682C674.39 862.061 672.74 861.327 671.02 860.83C614.23 844.634 557.36 828.727 500.65 812.23C408.55 785.433 316.51 758.428 225.57 727.556C150.46 702.051 75.2 677.053 0.0100098 651.827C0.0100098 623.902 0.0100098 595.977 0.0100098 568.052Z" fill="#F05A2C"/>
<path d="M667.99 977.784C669 977.733 670.01 977.681 671.02 977.629C670.56 987.299 674.13 995.646 679.03 1003.56C678.27 1003.89 677.54 1004.4 676.76 1004.52C651.45 1008.66 626.11 1012.65 600.82 1016.89C540.04 1027.09 479.27 1037.33 418.52 1047.7C369.75 1056.03 321.01 1064.56 272.27 1073.07C259.83 1075.24 247.44 1077.69 235.02 1080.01H0.0100098C0.0100098 1066.91 0.0100098 1053.81 0.0100098 1040.71C46.72 1036.22 93.43 1031.75 140.13 1027.25C188.66 1022.57 237.18 1017.73 285.72 1013.2C325.81 1009.45 365.94 1006.14 406.04 1002.5C453.42 998.201 500.8 993.815 548.17 989.337C584.95 985.862 621.7 982.18 658.47 978.622C660.12 978.467 661.79 978.529 663.45 978.488C664.96 978.26 666.47 978.022 667.98 977.795L667.99 977.784Z" fill="#F9F3E5"/>
<path d="M1237.34 978.519C1258.87 980.484 1280.42 982.325 1301.94 984.435C1337.71 987.941 1373.47 991.685 1409.24 995.191C1453.95 999.576 1498.68 1003.83 1543.4 1008.11C1581.83 1011.79 1620.26 1015.4 1658.69 1019.1C1703.41 1023.41 1748.13 1027.79 1792.85 1032.12C1826.47 1035.38 1860.1 1038.63 1893.73 1041.8C1902.48 1042.63 1911.25 1043.16 1920.01 1043.82V1080.02H1673.01C1667.99 1079 1662.99 1077.81 1657.94 1076.97C1594.86 1066.44 1531.76 1055.98 1468.67 1045.47C1428.26 1038.73 1387.83 1032.08 1347.45 1025.14C1305.6 1017.95 1263.79 1010.47 1221.96 1003.11C1228.34 1001.26 1228.37 996.101 1228.06 990.712C1228.01 989.895 1228.34 989.047 1228.53 988.23C1229.35 984.714 1230.19 981.208 1231.02 977.702C1232.5 977.95 1233.97 978.208 1235.45 978.457C1236.08 978.477 1236.71 978.498 1237.34 978.519Z" fill="#F9F2E5"/>
<path d="M0.0100098 651.827C75.2 677.053 150.46 702.051 225.57 727.556C316.5 758.428 408.55 785.433 500.65 812.23C557.36 828.737 614.23 844.634 671.02 860.83C672.74 861.316 674.39 862.061 676.07 862.682C674.07 867.315 670.16 871.256 671.2 876.996C610.65 863.675 550.18 850.002 489.54 837.115C433.14 825.138 376.6 813.813 320.06 802.529C241.92 786.943 164.45 768.295 87.11 749.027C58.15 741.818 29.05 735.23 0.0200098 728.362C0.0200098 702.847 0.0200098 677.342 0.0200098 651.827H0.0100098Z" fill="#F9F2E4"/>
<path d="M1920.01 818.343C1881.58 822.108 1843.13 825.624 1804.72 829.689C1750.92 835.377 1697.16 841.459 1643.38 847.375C1584.97 853.797 1526.56 860.251 1468.14 866.643C1416.34 872.311 1364.53 877.896 1312.72 883.512C1289.55 886.025 1266.38 888.497 1243.23 891.062C1239.8 891.444 1236.42 892.272 1233.02 892.882C1230.71 892.882 1228.4 892.872 1226.09 892.861C1225.64 892.913 1225.19 892.975 1224.73 893.027C1222.5 893.234 1220.27 893.44 1218.03 893.647C1217.78 887.504 1217.72 881.309 1212.91 876.634C1215.32 875.899 1217.73 875.175 1220.14 874.441L1230.1 872.186C1251.72 868.194 1273.33 864.192 1294.95 860.22C1325.59 854.594 1356.16 848.44 1386.91 843.506C1426.21 837.197 1465.71 832.264 1505.02 826.038C1549.11 819.056 1593.09 811.289 1637.12 803.863C1697.9 793.614 1758.67 783.344 1819.46 773.115C1852.97 767.478 1886.49 761.893 1920.01 756.287V818.343Z" fill="#F05A2C"/>
<path d="M0.0100098 728.362C29.05 735.23 58.15 741.818 87.1 749.027C164.44 768.295 241.91 786.932 320.05 802.529C376.59 813.813 433.13 825.128 489.53 837.115C550.16 849.991 610.64 863.664 671.18 876.985C674.73 877.896 678.29 878.816 681.84 879.726L686.99 881.433C686.23 882.012 684.93 882.477 684.78 883.201C683.73 888.321 682.91 893.482 682.02 898.632C680.67 898.539 679.31 898.457 677.96 898.364C677.44 898.436 676.92 898.498 676.4 898.57C676.12 898.446 675.83 898.322 675.55 898.198C672.7 897.774 669.85 897.34 667 896.916C649.05 894.195 631.12 891.403 613.16 888.755C569.32 882.281 525.47 875.858 481.63 869.435C450.8 864.916 419.93 860.696 389.16 855.855C356.23 850.684 323.43 844.716 290.5 839.504C251.16 833.278 211.73 827.682 172.4 821.446C129.29 814.609 86.26 807.173 43.14 800.398C28.87 798.175 14.4 797.161 0.0100098 795.589C0.0100098 773.177 0.0100098 750.775 0.0100098 728.362Z" fill="#F05A2C"/>
<path d="M1920.01 756.287C1886.49 761.893 1852.97 767.478 1819.46 773.115C1758.68 783.344 1697.9 793.614 1637.12 803.863C1593.09 811.289 1549.11 819.057 1505.02 826.038C1465.71 832.264 1426.21 837.208 1386.91 843.506C1356.16 848.44 1325.59 854.583 1294.95 860.22C1273.33 864.192 1251.71 868.194 1230.1 872.186C1228.07 866.333 1226.04 860.479 1224.02 854.614C1246.03 849.919 1268.04 845.192 1290.06 840.538C1339 830.185 1387.88 819.501 1436.92 809.655C1484.81 800.026 1533.04 792.176 1580.8 781.896C1645.17 768.037 1709.25 752.719 1773.4 737.815C1821.32 726.676 1869.17 715.207 1917.05 703.892C1918.01 703.664 1919.03 703.654 1920.02 703.54V756.287H1920.01Z" fill="#F9F2E4"/>
<path d="M235.01 1080.01C247.43 1077.69 259.82 1075.24 272.26 1073.07C321 1064.56 369.74 1056.04 418.51 1047.7C479.26 1037.33 540.03 1027.09 600.81 1016.89C626.11 1012.65 651.44 1008.66 676.75 1004.52C677.54 1004.4 678.27 1003.89 679.02 1003.56C681.69 1003.15 684.36 1002.76 687.02 1002.36C689.41 1002.17 691.8 1001.99 694.19 1001.81C695.08 1009.53 697.82 1016.23 704 1021.05C701.62 1022 699.24 1022.95 696.86 1023.9L690.45 1026.01C689.97 1026.08 689.49 1026.17 689.01 1026.24L688.03 1026.46C686.58 1026.77 685.1 1026.98 683.67 1027.4C633.9 1041.72 584.13 1056.05 534.38 1070.44C523.88 1073.48 513.46 1076.81 503.01 1080.01H235.01Z" fill="#F05B2C"/>
<path d="M1221.96 1003.11C1263.79 1010.47 1305.6 1017.95 1347.45 1025.14C1387.83 1032.08 1428.26 1038.73 1468.67 1045.47C1531.76 1055.97 1594.85 1066.44 1657.94 1076.97C1662.99 1077.81 1667.99 1079 1673.01 1080.02H1406.01C1405.11 1079.64 1404.25 1079.14 1403.32 1078.87C1366.88 1068.14 1330.44 1057.42 1294 1046.72C1267.62 1038.96 1241.24 1031.22 1214.87 1023.48C1210.94 1022.3 1207 1021.11 1203.07 1019.92C1203 1019.72 1202.94 1019.52 1202.88 1019.32C1204.46 1015.31 1205.74 1011.13 1207.72 1007.34C1209.25 1004.43 1208.87 1002.79 1206.08 1001.53C1206.15 1001.31 1206.18 1001.09 1206.17 1000.85C1209.44 1001.23 1212.7 1001.62 1215.97 1002.01C1217.97 1002.38 1219.97 1002.75 1221.97 1003.11H1221.96Z" fill="#F05B2C"/>
<path d="M503.01 1080.01C513.46 1076.81 523.88 1073.47 534.38 1070.44C584.13 1056.05 633.9 1041.73 683.67 1027.4C685.1 1026.98 686.58 1026.77 688.03 1026.46C688.36 1026.38 688.68 1026.31 689.01 1026.24C689.49 1026.17 689.97 1026.08 690.46 1026.01C690.84 1026.66 691.5 1027.3 691.52 1027.97C691.56 1029.07 690.66 1030.52 691.08 1031.27C693.63 1035.76 696.52 1040.06 699.15 1044.51C701.23 1048.03 703.09 1051.69 705.05 1055.28C697.97 1058.2 690.92 1061.17 683.82 1064.03C670.56 1069.39 657.28 1074.68 644.01 1080H503.01V1080.01Z" fill="#F9F2E4"/>
<path d="M1214.86 1023.46C1241.24 1031.2 1267.62 1038.95 1293.99 1046.7C1330.43 1057.41 1366.88 1068.13 1403.31 1078.85C1404.24 1079.12 1405.1 1079.62 1406 1080H1287C1278.94 1076.89 1270.9 1073.69 1262.8 1070.68C1241.52 1062.76 1220.22 1054.91 1198.92 1047.03C1201.18 1045.38 1203.74 1044.02 1205.62 1041.99C1207.11 1040.38 1207.79 1037.97 1208.81 1035.89C1210.83 1031.75 1212.84 1027.59 1214.85 1023.45L1214.86 1023.46Z" fill="#F9F2E4"/>
<path d="M1198.94 1047.04C1220.23 1054.92 1241.54 1062.76 1262.82 1070.69C1270.92 1073.71 1278.95 1076.9 1287.02 1080.01H1211.02C1209.26 1078.83 1207.6 1077.48 1205.74 1076.51C1195.2 1071.07 1184.61 1065.73 1174.04 1060.35C1178.52 1054.73 1183 1049.12 1187.48 1043.51C1189.33 1043.97 1191.17 1044.41 1193.02 1044.87C1195 1045.59 1196.97 1046.32 1198.95 1047.05L1198.94 1047.04Z" fill="#F05B2C"/>
<path d="M644.01 1080.01C657.28 1074.68 670.56 1069.39 683.82 1064.04C690.92 1061.18 697.97 1058.21 705.05 1055.29C708.06 1054 711.07 1052.71 714.08 1051.41C716.72 1050.61 719.37 1049.8 722.01 1048.99C722.81 1050.68 723.38 1052.55 724.46 1054.02C727.9 1058.68 731.54 1063.19 735.1 1067.75C733.65 1069.06 732.2 1070.35 730.75 1071.65C725.17 1074.45 719.59 1077.23 714 1080.02H644L644.01 1080.01Z" fill="#F05B2C"/>
<path d="M1174.02 1060.34C1184.59 1065.72 1195.18 1071.06 1205.72 1076.5C1207.58 1077.47 1209.25 1078.82 1211 1080H1144C1147.2 1076.63 1150.4 1073.25 1153.61 1069.87C1155.19 1068.21 1156.83 1066.59 1158.35 1064.86C1160.28 1062.67 1161.6 1059.65 1165.33 1060.16C1165.81 1060.23 1166.48 1058.86 1167.06 1058.16C1168.01 1058.24 1168.95 1058.33 1169.9 1058.42C1171.27 1059.06 1172.65 1059.7 1174.02 1060.34Z" fill="#F9F2E4"/>
<path d="M730.76 1071.64C732.21 1070.34 733.66 1069.05 735.11 1067.74C737.05 1066.96 738.99 1066.16 740.93 1065.38C741.28 1065.39 741.63 1065.4 741.98 1065.41C742.51 1065.76 743.04 1066.41 743.58 1066.42C752.49 1066.53 755.56 1074.17 760.03 1080H741.03C738.58 1075.94 737.1 1070.61 730.78 1071.63L730.76 1071.64Z" fill="#FCF6EA"/>
<path d="M730.76 1071.64C737.09 1070.62 738.57 1075.95 741.01 1080.01H714.01C719.59 1077.22 725.17 1074.44 730.76 1071.64Z" fill="#FAEBD3"/>
<path d="M1175.97 795.517C1175 796.241 1174.02 796.975 1173.05 797.699C1170.08 799.488 1167.1 801.278 1164.13 803.067C1155.36 794.183 1146.73 785.154 1137.77 776.486C1132.95 771.822 1127.93 767.178 1122.37 763.548C1110.52 755.801 1098.47 748.324 1086.12 741.477C1077.4 736.647 1068.25 732.437 1058.93 729.004C1047.43 724.773 1035.62 721.391 1023.82 718.123C1015.86 715.92 1007.74 714.183 999.6 712.869C990.8 711.452 981.9 710.604 973.02 709.797C966.42 709.198 959.75 708.422 953.18 708.836C938.01 709.777 922.89 711.68 907.72 712.642C892.04 713.634 877.14 718.196 862.1 722.208C857.36 723.47 852.87 725.715 848.15 727.049C846.58 727.494 844.63 726.521 842.85 726.201C841.7 724.112 840.56 722.033 839.41 719.943C839.26 718.992 839.11 718.03 838.97 717.079C841.5 715.775 843.91 714.1 846.58 713.252C854.08 710.852 861.61 708.546 869.25 706.684C877.98 704.554 886.77 702.537 895.63 701.213C906.84 699.538 918.13 697.934 929.43 697.49C945.4 696.869 961.43 696.807 977.4 697.51C988.58 698.007 999.78 699.662 1010.79 701.761C1021.06 703.716 1031.14 706.808 1041.24 709.663C1049.4 711.98 1057.55 714.421 1065.53 717.316C1072.04 719.685 1078.36 722.674 1084.64 725.653C1090.86 728.59 1097.07 731.6 1103.03 735.044C1113.8 741.249 1124.38 747.806 1135.03 754.208C1134.24 755.253 1133.44 756.308 1131.97 758.252C1134.6 757.311 1136.29 756.701 1137.99 756.091C1138.35 756.825 1138.55 757.746 1139.1 758.252C1145.15 763.693 1151.55 768.75 1157.26 774.552C1163.82 781.213 1169.77 788.505 1175.99 795.517H1175.97Z" fill="#FCF6EA"/>
<path d="M717.22 813.927C715.79 812.354 714.35 810.782 712.92 809.21C715.32 806.676 717.73 804.153 720.1 801.598C730.45 790.47 740.67 779.206 751.23 768.285C753.62 765.813 755.54 763.682 755.09 760.062C757.3 761.655 759.5 763.238 761.71 764.83C762.92 766.061 764.14 767.292 765.35 768.533C765.57 768.967 765.79 769.391 766.02 769.826C765.13 772.267 764.94 775.628 763.24 776.993C750.64 787.129 740.28 799.395 730.39 812.189C728.86 814.175 726.79 815.716 724.97 817.453C724.45 817.453 723.93 817.453 723.41 817.453C721.34 816.285 719.28 815.106 717.22 813.937V813.927Z" fill="#FCF6EA"/>
<path d="M815.94 724.256C818.17 726.749 820.39 729.241 822.38 731.465C826.84 728.828 830.89 726.439 834.95 724.039C835.32 724.391 835.68 724.753 836.05 725.104C836.89 726.48 837.74 727.866 839.06 730.027C836.99 731.113 834.92 732.22 832.83 733.285C826.03 736.74 819.29 740.318 812.41 743.576C800.51 749.203 789.29 755.832 780.03 765.575C779.71 765.575 779.38 765.585 779.06 765.585C778.11 764.51 777.16 763.434 776.21 762.358L772.6 758.335C772.08 757.973 771.56 757.622 771.04 757.26H771.17C770.75 756.308 770.33 755.356 769.91 754.405C782.67 742.19 798.3 735.106 814.15 726.79C814.31 726.563 815.13 725.415 815.95 724.267L815.94 724.256Z" fill="#FCF6EA"/>
<path d="M1209.04 841.159C1207.04 841.872 1205.04 842.576 1203.04 843.289C1200.98 843.879 1198.92 844.458 1196.86 845.047C1195.95 845.203 1195.04 845.347 1194.13 845.503C1193.75 845.409 1193.38 845.316 1193 845.213C1184.99 832.367 1176.98 819.532 1168.98 806.687C1171.39 805.497 1173.79 804.308 1176.2 803.119C1178.8 802.322 1181.41 801.515 1184.01 800.719C1185.72 803.998 1187.28 807.369 1189.19 810.514C1191.98 815.147 1195.01 819.625 1197.96 824.155C1201.65 829.833 1205.36 835.491 1209.06 841.159H1209.04Z" fill="#FCF5E9"/>
<path d="M697.28 854.294C694.46 853.094 691.65 851.894 688.83 850.684C690.26 848.978 691.95 847.437 693.06 845.534C697.22 838.366 700.73 830.733 705.46 824C707.43 821.187 708.38 819.45 706.72 816.554C708.67 817.35 710.62 818.136 712.57 818.932C714.72 820.184 716.88 821.435 719.03 822.697C722.15 829.399 716.64 833.174 714.11 837.89C710.76 844.137 709.3 851.677 702.88 855.886C701.02 855.359 699.15 854.832 697.29 854.304L697.28 854.294Z" fill="#FCF6EA"/>
<path d="M1218.03 893.647C1220.26 893.44 1222.49 893.234 1224.73 893.027C1225.07 893.234 1225.4 893.44 1225.74 893.647C1226.23 903.938 1226.72 914.229 1227.21 924.623C1230.58 924.83 1233.2 924.985 1235.82 925.14C1231.31 926.102 1226.79 927.064 1222.28 928.026C1220.52 927.685 1218.77 927.333 1217.01 926.981C1216.57 926.33 1216.11 925.089 1215.71 925.109C1209.99 925.44 1210.15 921.552 1209.93 917.342C1209.54 909.895 1208.65 902.48 1207.97 895.054C1208.73 894.826 1209.49 894.599 1210.26 894.371C1210.83 894.495 1211.41 894.619 1211.98 894.744C1214.61 895.323 1217.25 895.892 1219.88 896.471C1219.95 896.026 1220.01 895.592 1220.08 895.147C1218.99 895.012 1217.91 894.878 1216.82 894.754C1216.91 894.495 1217.02 894.237 1217.13 893.989C1217.47 893.999 1217.78 893.895 1218.04 893.658L1218.03 893.647Z" fill="#FCF5E9"/>
<path d="M722.01 1048.98C719.37 1049.79 716.72 1050.6 714.08 1051.4C710.28 1044.62 706.6 1037.75 702.62 1031.08C701.06 1028.46 698.81 1026.28 696.87 1023.9C699.25 1022.95 701.63 1022 704.01 1021.05C705.29 1020.9 706.57 1020.75 707.85 1020.6C708.55 1020.71 709.25 1020.8 709.95 1020.9C718.67 1021.41 718.3 1030.62 722.66 1035.32C725.48 1038.35 726.27 1042.64 725.13 1046.98C724.09 1047.65 723.05 1048.32 722.01 1048.98Z" fill="#FCF5E9"/>
<path d="M677.97 898.374C679.32 898.467 680.68 898.55 682.03 898.643C683.29 898.87 684.54 899.098 685.8 899.325C688.22 899.687 690.64 900.039 693.06 900.401C692.37 907.506 692.03 914.663 690.88 921.686C689.82 928.171 690 929.236 683.52 927.043C683.08 926.888 682.55 927.023 681.9 927.023C682.26 927.892 682.55 928.616 682.85 929.35C681.22 929.288 679.59 929.226 677.96 929.174C676.29 928.978 674.63 928.771 672.96 928.574C673.65 926.226 674.64 923.92 674.95 921.521C675.65 916.142 675.44 910.568 676.73 905.376C677.47 902.366 677.79 900.318 675.56 898.229C675.84 898.353 676.13 898.477 676.41 898.601C676.93 898.529 677.45 898.467 677.96 898.395L677.97 898.374Z" fill="#FCF5E9"/>
<path d="M1215.95 1002C1212.68 1001.61 1209.42 1001.22 1206.15 1000.84C1203.77 1000.46 1201.38 1000.06 1199 999.68C1198.88 999.328 1198.75 998.966 1198.63 998.614C1200.08 993.795 1202.19 989.047 1202.79 984.114C1203.35 979.553 1202.31 974.775 1201.91 969.272C1204 969.552 1206.49 969.893 1208.97 970.224C1207.53 975.343 1211.02 974.64 1213.88 974.681C1215.05 974.847 1216.21 975.002 1217.38 975.168C1218.6 975.602 1219.81 976.047 1221.03 976.491C1221.69 976.512 1222.34 976.523 1223 976.543C1223 976.905 1223 977.267 1223 977.629C1222.33 977.97 1221.66 978.322 1221 978.663C1220.06 979.253 1218.55 979.625 1218.26 980.463C1216.36 985.893 1214.57 991.374 1213.18 996.949C1212.97 997.787 1215 999.225 1215.99 1000.38C1215.97 1000.92 1215.96 1001.47 1215.94 1002.01L1215.95 1002Z" fill="#FCF5E9"/>
<path d="M694.19 1001.8C691.8 1001.99 689.41 1002.17 687.02 1002.36C686.57 997.766 686.14 993.164 685.64 988.582C685.59 988.137 685.01 987.775 684.84 987.31C683.54 983.752 682.28 980.184 681.01 976.616C682.67 976.243 684.33 975.881 685.98 975.509C686.32 975.488 686.66 975.478 687 975.457C688.66 975.488 690.33 975.509 691.99 975.54C692.28 976.119 692.59 977.195 692.87 977.195C698.44 976.988 698.62 981.053 699.34 985.2C700.19 990.113 701.68 994.901 702.9 999.742C701.59 1000.29 700.27 1000.84 698.96 1001.39C697.37 1001.53 695.78 1001.68 694.19 1001.82V1001.8Z" fill="#FCF5E9"/>
<path d="M1193.01 1044.86C1191.16 1044.4 1189.32 1043.96 1187.47 1043.51C1185.4 1042.78 1183.32 1042.04 1181.25 1041.32C1180.73 1040.85 1180.2 1040.39 1179.68 1039.92C1177.87 1033.83 1182.93 1030.35 1184.76 1025.64C1186.07 1022.28 1187.62 1019.01 1189.07 1015.7C1190.02 1015.8 1190.97 1015.91 1191.91 1016.01C1193.2 1016.41 1194.49 1016.82 1195.79 1017.22C1198.15 1017.92 1200.51 1018.63 1202.86 1019.32C1202.92 1019.53 1202.99 1019.72 1203.05 1019.92C1201.66 1023.3 1200.25 1026.68 1198.88 1030.08C1196.9 1035 1194.95 1039.93 1192.99 1044.87L1193.01 1044.86Z" fill="#FCF6EA"/>
<path d="M1213.89 974.671C1211.03 974.63 1207.53 975.333 1208.98 970.214C1210.22 969.82 1211.45 969.427 1212.97 968.952C1211.85 968.031 1210.99 967.318 1209.94 966.459C1211.38 964.835 1212.69 963.367 1214.31 961.536C1212.45 960.843 1211.01 960.316 1208.8 959.499C1210.8 957.823 1212.36 956.52 1214.29 954.906C1213.4 954.193 1212.7 953.634 1211.75 952.859C1215.19 950.19 1214.96 946.932 1214.06 942.816C1213.56 940.551 1215.95 937.614 1217.21 934.573C1216.61 934.201 1215.41 933.466 1214.21 932.722C1214.41 931.046 1214.61 929.36 1214.8 927.685C1215.54 927.447 1216.28 927.209 1217.02 926.971C1218.78 927.323 1220.53 927.664 1222.29 928.016C1222.26 933.787 1222.62 939.589 1222.09 945.309C1221.42 952.59 1219.93 959.788 1219.01 967.049C1218.56 970.627 1217.34 973.368 1213.89 974.661V974.671Z" fill="#F38751"/>
<path d="M1220.14 874.441C1217.73 875.175 1215.32 875.899 1212.91 876.634C1212 876.634 1211.09 876.634 1210.18 876.634C1209.36 876.199 1208.31 875.175 1207.74 875.413C1202.11 877.771 1201.99 874.451 1201.85 870.066C1201.75 866.757 1200.52 863.488 1199.79 860.21C1199.86 859.941 1199.9 859.672 1199.93 859.393C1200.96 859.124 1202 858.865 1203.03 858.596C1204.04 858.576 1205.05 858.555 1206.06 858.545C1206.43 858.276 1206.79 858.017 1207.16 857.748L1207.18 857.852C1209.78 857.479 1212.38 857.107 1214.98 856.735C1214.67 857.738 1213.83 858.958 1214.12 859.724C1215.98 864.688 1218.09 869.559 1220.12 874.462L1220.14 874.441Z" fill="#FCF5E9"/>
<path d="M687.01 975.447C686.67 975.468 686.33 975.478 685.99 975.499C680.83 973.306 681.89 968.011 681.35 964.08C679.78 952.507 679.03 940.81 677.95 929.164C679.58 929.226 681.21 929.288 682.84 929.34C682.86 929.567 682.93 929.784 683.04 929.971C683.36 933.187 683.59 936.424 684.01 939.631C685.46 950.718 687.02 961.795 688.4 972.892C688.5 973.668 687.49 974.588 687 975.437L687.01 975.447Z" fill="#F2763B"/>
<path d="M687 881.443C685.28 880.874 683.57 880.305 681.85 879.736C682.38 877.172 683.02 874.627 683.4 872.031C683.75 869.652 683.81 867.222 684 864.812C686.68 865.402 689.35 865.991 692.03 866.581C694 867.284 695.97 867.998 697.95 868.701C698.35 870.863 699.05 873.024 699.09 875.206C699.16 878.95 697.38 880.885 693.48 880.512C692.72 880.44 691.85 881.681 691.03 882.312C689.69 882.022 688.35 881.733 687 881.443Z" fill="#FCF5E9"/>
<path d="M687.01 975.447C687.5 974.599 688.5 973.678 688.41 972.903C687.03 961.805 685.47 950.728 684.02 939.641C683.6 936.435 683.37 933.197 683.05 929.981C684.68 930.064 686.31 930.146 687.94 930.229C687.73 945.608 689.84 960.667 693.96 975.437C693.31 975.478 692.66 975.509 692.01 975.54C690.35 975.509 688.68 975.488 687.02 975.457L687.01 975.447Z" fill="#F6925E"/>
<path d="M693.95 975.426C689.83 960.657 687.73 945.609 687.93 930.219C689.52 930.25 691.12 930.281 692.72 930.312C693.14 938.048 693.29 945.815 694.06 953.521C694.76 960.585 696.12 967.576 697.19 974.609C696.11 974.878 695.03 975.147 693.95 975.416V975.426Z" fill="#F9B58D"/>
<path d="M697.95 868.711C695.98 868.008 694.01 867.294 692.03 866.591C693.78 862.495 695.53 858.4 697.28 854.294C699.15 854.821 701.01 855.349 702.88 855.876C705 857.696 709.19 857.759 707.26 862.744C704.57 869.663 704.81 869.766 697.96 868.701L697.95 868.711Z" fill="#F7A476"/>
<path d="M722.01 1048.98C723.05 1048.31 724.09 1047.64 725.13 1046.98C726.1 1046.81 727.06 1046.65 728.03 1046.48C728.77 1047.92 729.35 1049.46 730.27 1050.75C733.76 1055.67 737.37 1060.51 740.93 1065.39C738.99 1066.17 737.05 1066.97 735.11 1067.75C731.55 1063.18 727.91 1058.67 724.47 1054.02C723.39 1052.55 722.82 1050.68 722.02 1048.99L722.01 1048.98Z" fill="#F38751"/>
<path d="M697.19 974.609C696.12 967.586 694.76 960.585 694.06 953.521C693.3 945.815 693.14 938.048 692.72 930.312C693.81 931.594 695.67 932.753 695.87 934.17C697.65 946.394 699.01 958.682 700.77 970.906C701.27 974.392 699.59 974.63 697.19 974.609Z" fill="#FAEBD3"/>
<path d="M693.05 900.401C690.63 900.039 688.21 899.687 685.79 899.325C687.17 897.764 689.14 896.44 689.81 894.609C691.21 890.751 691.93 886.635 692.93 882.622C695.27 883.605 697.61 884.577 699.96 885.559C698.93 890.369 697.91 895.178 696.88 899.998C695.6 900.132 694.33 900.277 693.05 900.411V900.401Z" fill="#F9B58D"/>
<path d="M1179.68 1039.9C1180.2 1040.37 1180.73 1040.83 1181.25 1041.31C1178.34 1045.25 1175.35 1049.13 1172.56 1053.15C1171.45 1054.74 1170.78 1056.66 1169.9 1058.42C1168.95 1058.33 1168.01 1058.24 1167.06 1058.16C1165.99 1057.19 1164.92 1056.22 1163.85 1055.26C1167.93 1049.93 1172.02 1044.61 1176.1 1039.28L1179.68 1039.9Z" fill="#F7A476"/>
<path d="M740.92 1065.39C737.36 1060.51 733.76 1055.67 730.26 1050.75C729.34 1049.46 728.76 1047.91 728.02 1046.48C729.68 1045.94 731.34 1045.41 733 1044.89C733.25 1045.32 733.46 1045.8 733.76 1046.19C737.88 1051.63 742.01 1057.07 746.13 1062.5C744.74 1063.47 743.35 1064.44 741.95 1065.42C741.6 1065.41 741.25 1065.4 740.9 1065.38L740.92 1065.39Z" fill="#F9B58D"/>
<path d="M692.93 882.612C691.93 886.625 691.21 890.741 689.81 894.599C689.14 896.429 687.17 897.764 685.79 899.315C684.53 899.087 683.28 898.86 682.02 898.632C682.91 893.482 683.73 888.311 684.78 883.201C684.93 882.488 686.22 882.022 686.99 881.433C688.33 881.722 689.67 882.012 691.02 882.301C691.66 882.405 692.29 882.498 692.93 882.601V882.612Z" fill="#F38751"/>
<path d="M1210.18 876.623C1211.09 876.623 1212 876.623 1212.91 876.623C1217.72 881.298 1217.78 887.493 1218.03 893.637C1217.77 893.875 1217.47 893.989 1217.12 893.968C1215.74 894.102 1214.36 894.237 1212.98 894.371L1211.98 894.733C1211.41 894.609 1210.83 894.485 1210.26 894.361C1210.24 891.206 1210.36 888.042 1210.16 884.897C1210 882.394 1209.46 879.912 1209.08 877.42C1209.45 877.151 1209.81 876.882 1210.18 876.613V876.623Z" fill="#F38751"/>
<path d="M1209.08 877.43C1209.45 879.923 1210 882.405 1210.16 884.908C1210.36 888.052 1210.24 891.217 1210.26 894.371C1209.5 894.599 1208.74 894.826 1207.98 895.054C1207.32 895.002 1206.67 894.94 1206.01 894.878C1206.01 893.151 1206.01 891.424 1206.01 889.696C1206.75 889.179 1207.49 888.673 1208.73 887.814C1204.96 885.777 1199.52 885.994 1200.98 878.951C1203.43 878.485 1206.26 877.958 1209.08 877.43Z" fill="#F9B58D"/>
<path d="M1191.92 1015.99C1190.97 1015.89 1190.02 1015.78 1189.08 1015.68C1188.75 1015.39 1188.43 1015.11 1188.1 1014.83C1189.11 1011.43 1190.13 1008.02 1191.14 1004.61C1191.14 1004.61 1191.12 1004.63 1191.12 1004.62C1192.2 1002.59 1193.28 1000.54 1194.37 998.5C1195.79 998.532 1197.22 998.573 1198.64 998.604C1198.76 998.966 1198.89 999.318 1199.01 999.68C1196.65 1005.12 1194.29 1010.55 1191.93 1015.99H1191.92Z" fill="#F9B58D"/>
<path d="M698.96 1001.37C700.28 1000.82 701.59 1000.27 702.9 999.721C703.24 999.866 703.58 1000 703.93 1000.13C706.61 1006.4 709.3 1012.68 711.98 1018.95C711.3 1019.6 710.62 1020.25 709.94 1020.9C709.24 1020.8 708.54 1020.71 707.84 1020.6C707.79 1019.93 707.92 1019.18 707.68 1018.6C705.43 1013.3 703.16 1008.03 700.78 1002.79C700.49 1002.16 699.58 1001.83 698.96 1001.37Z" fill="#F7A476"/>
<path d="M711.99 1018.95C709.31 1012.67 706.62 1006.4 703.94 1000.13C705.22 999.918 706.49 999.7 707.77 999.483C710.46 1005.61 713.14 1011.73 715.83 1017.86C714.55 1018.22 713.28 1018.6 712 1018.96L711.99 1018.95Z" fill="#F9B58D"/>
<path d="M1199.94 859.372C1199.92 859.651 1199.87 859.93 1199.8 860.189C1197.99 860.303 1196.19 860.417 1194.38 860.541C1193.29 858.503 1192.2 856.466 1191.12 854.428L1191.14 854.449C1190.82 851.749 1190.5 849.04 1190.18 846.34C1191.12 845.968 1192.07 845.596 1193.01 845.223C1193.39 845.316 1193.76 845.409 1194.14 845.513C1196.07 850.136 1198.01 854.759 1199.94 859.382V859.372Z" fill="#F9B58D"/>
<path d="M1176.1 1039.28C1172.02 1044.61 1167.93 1049.93 1163.85 1055.26C1160.46 1055.07 1160.26 1053.1 1161.9 1050.82C1164.75 1046.85 1167.78 1043.02 1170.95 1039.31C1172.41 1037.61 1174.38 1036.18 1176.1 1039.28Z" fill="#FAEBD3"/>
<path d="M1176.19 803.119C1173.78 804.308 1171.38 805.497 1168.97 806.687C1167.85 806.78 1166.72 806.945 1165.6 806.945C1162.05 806.935 1162.28 805.311 1164.12 803.067C1167.09 801.278 1170.07 799.488 1173.04 797.699C1174.09 799.509 1175.14 801.319 1176.19 803.119Z" fill="#F7A476"/>
<path d="M776.2 762.348C777.15 763.424 778.1 764.499 779.05 765.575C776.33 767.747 773.61 769.929 770.9 772.101C769.27 771.336 767.65 770.57 766.02 769.805C765.8 769.371 765.58 768.947 765.35 768.512C768.96 766.454 772.58 764.396 776.2 762.348Z" fill="#F9B58D"/>
<path d="M719.03 822.687C716.88 821.435 714.73 820.184 712.57 818.922C714.12 817.257 715.67 815.581 717.22 813.916C719.28 815.085 721.35 816.264 723.42 817.433C722.61 819.212 721.8 820.98 720.98 822.759C720.33 822.728 719.68 822.697 719.03 822.676V822.687Z" fill="#F38751"/>
<path d="M746.14 1062.5C742.01 1057.06 737.88 1051.63 733.77 1046.19C733.47 1045.8 733.26 1045.32 733.01 1044.89C734.17 1045.23 735.74 1045.18 736.43 1045.96C739.95 1049.99 743.24 1054.23 746.6 1058.38C747.84 1059.91 749.21 1061.47 746.15 1062.5H746.14Z" fill="#FAEBD3"/>
<path d="M720.98 822.78C721.79 821.001 722.6 819.222 723.42 817.453C723.94 817.453 724.46 817.453 724.97 817.453C726.22 818.56 727.46 819.667 728.65 820.711C725.89 826.524 725.19 826.689 720.98 822.78Z" fill="#F9B58D"/>
<path d="M715.82 1017.85C713.13 1011.73 710.45 1005.61 707.76 999.473C708.64 999.793 710.01 999.845 710.33 1000.48C712.93 1005.51 715.37 1010.64 717.69 1015.82C717.83 1016.13 716.47 1017.16 715.81 1017.85H715.82Z" fill="#FCF5E9"/>
<path d="M836.05 725.104C835.68 724.753 835.32 724.391 834.95 724.039C836.43 722.674 837.91 721.319 839.39 719.954C840.54 722.043 841.68 724.122 842.83 726.211C840.57 725.839 838.31 725.477 836.04 725.104H836.05Z" fill="#F38751"/>
<path d="M696.88 899.987C697.91 895.178 698.93 890.369 699.96 885.549C701.58 890.007 700 897.443 696.88 899.987Z" fill="#FCF5E9"/>
<path d="M1214.8 927.705C1214.6 929.381 1214.4 931.067 1214.21 932.742C1211.86 932.122 1209.51 931.491 1207.16 930.87C1207.19 930.177 1207.21 929.484 1207.24 928.791C1209.76 928.429 1212.28 928.067 1214.8 927.695V927.705Z" fill="#F9B58D"/>
<path d="M770.9 772.111C773.62 769.94 776.34 767.757 779.05 765.585C779.37 765.585 779.7 765.585 780.02 765.575C782.59 770.85 776.64 770.302 775.15 772.815C774.86 773.301 772.37 772.38 770.89 772.111H770.9Z" fill="#FAEBD3"/>
<path d="M1191.13 1004.61C1190.12 1008.02 1189.1 1011.43 1188.09 1014.83C1187.42 1014.25 1186.09 1013.29 1186.17 1013.14C1187.72 1010.24 1189.44 1007.43 1191.13 1004.6V1004.61Z" fill="#FCF5E9"/>
<path d="M1190.17 846.33C1190.49 849.029 1190.81 851.739 1191.13 854.439C1186.96 851.408 1186.62 848.512 1190.17 846.33Z" fill="#FCF5E9"/>
<path d="M1206.01 889.707C1206.01 891.434 1206.01 893.161 1206.01 894.888C1204.83 894.102 1203.65 893.327 1202.46 892.541L1206 889.707H1206.01Z" fill="#FAEBD3"/>
<path d="M1194.36 998.5C1193.28 1000.54 1192.2 1002.59 1191.11 1004.62C1191.2 1002.02 1190.35 998.883 1194.36 998.5Z" fill="#FCF5E9"/>
<path d="M1191.12 854.428C1192.21 856.466 1193.29 858.503 1194.38 860.541C1190.35 860.189 1191.21 857.035 1191.12 854.428Z" fill="#FCF5E9"/>
<path d="M1135.01 754.208C1124.35 747.796 1113.77 741.249 1103.01 735.044C1097.05 731.6 1090.83 728.6 1084.62 725.653C1078.33 722.674 1072.02 719.685 1065.51 717.316C1057.53 714.41 1049.38 711.98 1041.22 709.663C1031.13 706.798 1021.04 703.716 1010.77 701.761C999.75 699.662 988.55 698.007 977.38 697.51C961.42 696.807 945.38 696.859 929.41 697.49C918.11 697.934 906.82 699.527 895.61 701.213C886.74 702.537 877.96 704.554 869.23 706.684C861.6 708.546 854.06 710.863 846.56 713.252C843.9 714.1 841.48 715.786 838.95 717.079C837.53 714.358 836.11 711.628 834.68 708.908C838.36 705.578 842.42 703.602 847.51 703.375C850.28 703.24 852.92 701.182 855.73 700.437C861.44 698.907 867.23 697.676 872.99 696.321C874.16 697.19 875.33 698.059 876.47 698.907C878.6 697.366 880.35 695.721 882.39 694.687C886.29 692.711 890.06 692.018 893.56 696.042C895.87 698.689 897.22 697.541 897.08 694.211C899.31 689.743 904.13 689.547 907.57 689.35C928.95 688.14 950.37 687.075 971.76 687.251C984.42 687.354 997.07 689.712 1009.7 691.326C1014.53 691.936 1019.32 693.125 1024.04 694.387C1025.4 694.749 1026.47 696.29 1027.67 697.293C1028.1 698.617 1028.53 699.951 1028.96 701.275C1029.61 701.658 1030.25 702.051 1030.9 702.433C1031.92 700.717 1032.94 699 1033.95 697.273C1042.35 699.62 1050.88 701.565 1059.11 704.43C1069.43 708.018 1079.53 712.3 1089.68 716.396C1094.06 718.165 1098.33 720.212 1102.65 722.136C1102.43 724.38 1102.22 726.625 1101.91 729.748C1104.32 727.762 1106.05 726.335 1107.78 724.908C1110.18 726.542 1112.54 728.249 1114.98 729.81C1123.93 735.54 1132.91 741.229 1141.88 746.938C1139.58 749.368 1137.27 751.799 1134.97 754.229L1135.01 754.208Z" fill="#FAEBD3"/>
<path d="M755.09 760.052C755.54 763.682 753.63 765.803 751.23 768.274C740.67 779.186 730.45 790.459 720.1 801.588C717.72 804.142 715.31 806.666 712.92 809.2C710.56 807.462 708.19 805.715 705.83 803.977C712.1 795.961 717.89 787.46 724.79 780.065C732.08 772.246 740.42 765.482 748.29 758.232C749.03 757.549 749.67 756.763 750.35 756.029C751.93 757.363 753.52 758.707 755.1 760.052H755.09Z" fill="#FAEBD3"/>
<path d="M815.94 724.256C815.12 725.404 814.3 726.542 814.14 726.78C798.3 735.095 782.67 742.18 769.9 754.395C767.23 751.592 764.56 748.799 761.88 745.996C768.57 741.684 775.17 737.195 781.98 733.099C788.51 729.179 795.23 725.601 801.95 722.043C804.82 720.523 807.92 719.457 810.91 718.185C812.58 720.202 814.25 722.219 815.92 724.246L815.94 724.256Z" fill="#FAEBD3"/>
<path d="M776.2 762.348C772.58 764.406 768.97 766.464 765.35 768.512C764.14 767.281 762.92 766.051 761.71 764.81C764.86 762.286 768.01 759.752 771.16 757.228H771.03C771.55 757.59 772.07 757.942 772.59 758.304L776.2 762.327V762.348Z" fill="#F38751"/>
<path d="M1175.97 795.517C1169.75 788.504 1163.8 781.213 1157.24 774.552C1151.53 768.76 1145.13 763.703 1139.08 758.252C1138.52 757.756 1138.33 756.825 1137.97 756.091C1140.31 754.757 1142.64 753.433 1144.98 752.099C1151.35 756.804 1158.06 761.086 1164 766.32C1170.25 771.832 1175.57 778.462 1181.69 784.15C1183.8 786.115 1183.82 788.132 1184.06 790.439C1181.36 792.124 1178.67 793.821 1175.97 795.506V795.517Z" fill="#FAEBD3"/>
<path d="M1235.83 925.141C1233.21 924.985 1230.58 924.82 1227.22 924.623C1226.73 914.229 1226.24 903.938 1225.75 893.647C1225.86 893.389 1225.98 893.12 1226.09 892.861C1228.4 892.861 1230.71 892.872 1233.02 892.882C1237.92 901.766 1238.08 911.54 1237.9 921.334C1237.88 922.617 1236.56 923.879 1235.84 925.141H1235.83Z" fill="#FAEBD3"/>
<path d="M1221.01 978.653C1221.68 978.312 1222.35 977.96 1223.01 977.619C1223.43 977.588 1223.86 977.557 1224.28 977.526C1226.52 977.588 1228.77 977.64 1231.01 977.702C1230.18 981.208 1229.34 984.714 1228.52 988.23C1228.33 989.058 1228 989.895 1228.05 990.713C1228.36 996.101 1228.33 1001.25 1221.95 1003.11C1219.95 1002.74 1217.95 1002.37 1215.95 1002.01C1215.97 1001.47 1215.98 1000.92 1216 1000.38C1216.38 998.221 1216.64 996.018 1217.15 993.888C1218.37 988.799 1219.71 983.731 1221 978.663L1221.01 978.653Z" fill="#FAEBD3"/>
<path d="M1221.04 976.481C1219.83 976.036 1218.61 975.602 1217.39 975.157C1218.6 975.602 1219.82 976.036 1221.04 976.481Z" fill="#F38751"/>
<path d="M1224.29 977.526C1223.87 977.557 1223.44 977.588 1223.02 977.619C1223.02 977.257 1223.02 976.895 1223.02 976.533C1223.44 976.864 1223.87 977.195 1224.29 977.526Z" fill="#F9F2E4"/>
<path d="M675.56 898.208C677.79 900.298 677.47 902.345 676.73 905.355C675.44 910.547 675.65 916.122 674.95 921.5C674.64 923.899 673.64 926.206 672.96 928.554C669.97 928.326 666.99 928.098 664 927.871C663.64 917.415 664 907.031 667.01 896.926C669.86 897.35 672.71 897.784 675.56 898.208Z" fill="#FAEBD3"/>
<path d="M681.02 976.605C682.29 980.173 683.55 983.742 684.85 987.299C685.02 987.765 685.6 988.127 685.65 988.572C686.15 993.164 686.58 997.756 687.03 1002.35C684.36 1002.75 681.69 1003.14 679.03 1003.55C674.13 995.646 670.56 987.299 671.02 977.619C674.36 977.278 677.69 976.936 681.03 976.595L681.02 976.605Z" fill="#FAEBD3"/>
<path d="M1209.04 841.159C1205.34 835.491 1201.63 829.833 1197.94 824.155C1194.99 819.625 1191.97 815.147 1189.17 810.514C1187.27 807.359 1185.71 803.987 1183.99 800.719C1186.93 799.571 1189.88 798.413 1192.82 797.265C1195.37 801.184 1198.07 805.011 1200.44 809.035C1204.97 816.729 1209.46 824.455 1213.65 832.347C1214.69 834.301 1214.56 836.929 1214.97 839.245C1212.99 839.886 1211 840.528 1209.02 841.169L1209.04 841.159Z" fill="#FAEBD3"/>
<path d="M706.72 816.554C708.38 819.45 707.43 821.187 705.46 824C700.74 830.733 697.23 838.366 693.06 845.533C691.95 847.437 690.26 848.978 688.83 850.684C686.38 849.671 683.93 848.647 681.48 847.633C685.32 836.763 689.38 826.058 696.82 817.029C697.82 815.819 698.5 814.113 700 813.161C702.24 814.289 704.47 815.416 706.71 816.543L706.72 816.554Z" fill="#FAEBD3"/>
<path d="M1220.14 874.441C1218.11 869.539 1216 864.667 1214.14 859.703C1213.85 858.938 1214.68 857.717 1215 856.714C1218.01 856.021 1221.01 855.318 1224.02 854.625L1230.1 872.197C1226.78 872.952 1223.46 873.696 1220.14 874.451V874.441Z" fill="#FAEBD3"/>
<path d="M1206.07 858.513C1205.06 858.534 1204.05 858.555 1203.04 858.565C1200.98 854.056 1198.92 849.546 1196.87 845.037C1198.93 844.448 1200.99 843.868 1203.05 843.279C1204.43 848.119 1205.82 852.97 1207.2 857.81L1207.18 857.707C1206.81 857.976 1206.45 858.234 1206.08 858.503L1206.07 858.513Z" fill="#F2763B"/>
<path d="M684 864.812C683.81 867.222 683.75 869.642 683.4 872.031C683.02 874.617 682.38 877.172 681.85 879.737C678.3 878.826 674.74 877.906 671.19 876.996C670.15 871.256 674.06 867.315 676.06 862.682C678.71 863.395 681.35 864.109 684 864.823V864.812Z" fill="#FAEBD3"/>
<path d="M1226.09 892.861C1225.97 893.12 1225.86 893.389 1225.75 893.647C1225.41 893.44 1225.08 893.234 1224.74 893.027C1225.19 892.975 1225.64 892.913 1226.09 892.861Z" fill="#F38751"/>
<path d="M677.97 898.374C677.45 898.446 676.93 898.519 676.42 898.581C676.94 898.508 677.46 898.436 677.97 898.374Z" fill="#FAEBD3"/>
<path d="M696.87 1023.9C698.81 1026.28 701.06 1028.46 702.62 1031.08C706.6 1037.75 710.28 1044.62 714.08 1051.4C711.07 1052.7 708.06 1053.99 705.05 1055.28C703.09 1051.68 701.23 1048.03 699.15 1044.51C696.52 1040.06 693.63 1035.76 691.08 1031.27C690.66 1030.52 691.56 1029.07 691.52 1027.97C691.5 1027.3 690.83 1026.66 690.46 1026.01C692.59 1025.31 694.73 1024.61 696.87 1023.9Z" fill="#FAEBD3"/>
<path d="M698.96 1001.37C699.58 1001.83 700.5 1002.16 700.78 1002.79C703.15 1008.03 705.43 1013.3 707.68 1018.6C707.93 1019.18 707.8 1019.93 707.84 1020.6C706.56 1020.75 705.28 1020.9 704 1021.05C697.82 1016.22 695.08 1009.52 694.19 1001.81C695.78 1001.67 697.37 1001.52 698.96 1001.38V1001.37Z" fill="#F2763B"/>
<path d="M689.01 1026.24C688.68 1026.31 688.36 1026.38 688.03 1026.46L689.01 1026.24Z" fill="#FAEBD3"/>
<path d="M1193.01 1044.86C1194.97 1039.92 1196.92 1034.99 1198.9 1030.07C1200.27 1026.67 1201.68 1023.29 1203.07 1019.91C1207 1021.1 1210.94 1022.28 1214.87 1023.47C1212.86 1027.61 1210.85 1031.76 1208.83 1035.9C1207.82 1037.98 1207.14 1040.39 1205.64 1042C1203.76 1044.03 1201.2 1045.39 1198.94 1047.04C1196.96 1046.31 1194.99 1045.58 1193.01 1044.86Z" fill="#FAEBD3"/>
<path d="M1202.87 1019.3C1200.51 1018.6 1198.15 1017.89 1195.8 1017.2C1198.32 1012.4 1200.76 1007.57 1203.42 1002.85C1203.83 1002.12 1205.17 1001.94 1206.08 1001.52C1208.87 1002.78 1209.25 1004.42 1207.72 1007.33C1205.74 1011.12 1204.46 1015.3 1202.88 1019.31L1202.87 1019.3Z" fill="#F2763B"/>
<path d="M1206.07 1001.52C1205.16 1001.95 1203.82 1002.13 1203.41 1002.85C1200.76 1007.57 1198.31 1012.4 1195.79 1017.2C1194.5 1016.8 1193.21 1016.39 1191.91 1015.99C1194.27 1010.55 1196.63 1005.12 1198.99 999.68C1201.37 1000.06 1203.76 1000.46 1206.14 1000.84C1206.16 1001.07 1206.13 1001.29 1206.05 1001.52H1206.07Z" fill="#F6925E"/>
<path d="M1169.9 1058.43C1170.77 1056.66 1171.45 1054.75 1172.56 1053.16C1175.35 1049.14 1178.34 1045.26 1181.25 1041.32C1183.32 1042.05 1185.39 1042.79 1187.47 1043.51C1182.99 1049.13 1178.51 1054.73 1174.03 1060.35C1172.66 1059.71 1171.28 1059.07 1169.91 1058.43H1169.9Z" fill="#F2763B"/>
<path d="M772.59 758.325C772.07 757.963 771.55 757.601 771.03 757.249C771.55 757.611 772.07 757.973 772.59 758.325Z" fill="#F05A2B"/>
<path d="M1196.86 845.047C1198.92 849.557 1200.98 854.066 1203.03 858.576C1202 858.845 1200.96 859.103 1199.93 859.372C1197.99 854.749 1196.06 850.126 1194.13 845.503C1195.04 845.358 1195.95 845.203 1196.86 845.058V845.047Z" fill="#F6925E"/>
<path d="M1211.98 894.744C1212.31 894.619 1212.65 894.506 1212.98 894.382C1214.26 894.506 1215.53 894.63 1216.81 894.744C1217.9 894.878 1218.99 895.012 1220.07 895.137C1220.01 895.581 1219.94 896.016 1219.87 896.46C1217.24 895.881 1214.6 895.312 1211.97 894.733L1211.98 894.744Z" fill="#FEFEFE"/>
<path d="M1216.82 894.744C1215.54 894.62 1214.26 894.506 1212.99 894.382C1214.37 894.247 1215.75 894.113 1217.13 893.978C1217.02 894.226 1216.91 894.485 1216.82 894.744Z" fill="#F9B58D"/>
<path d="M1221.01 978.653C1219.72 983.731 1218.38 988.789 1217.16 993.877C1216.65 996.008 1216.38 998.201 1216.01 1000.37C1215.02 999.214 1212.99 997.777 1213.2 996.939C1214.6 991.364 1216.39 985.883 1218.28 980.453C1218.57 979.625 1220.08 979.243 1221.02 978.653H1221.01Z" fill="#F9F2E4"/>
</g>
</g>
</g>
</svg>
