<svg width="308" height="62" viewBox="0 0 308 62" fill="none" xmlns="http://www.w3.org/2000/svg">
<mask id="path-1-outside-1_17_2" maskUnits="userSpaceOnUse" x="-0.0357056" y="-0.097229" width="308" height="62" fill="black">
<rect fill="white" x="-0.0357056" y="-0.097229" width="308" height="62"/>
<path d="M44.1643 47.7268C42.671 47.7694 41.583 47.5348 40.9003 47.0228C40.2603 46.5108 39.7696 45.5934 39.4283 44.2708L36.6763 31.7908L33.6043 45.4868C33.263 46.7241 32.7296 47.6628 32.0043 48.3028C31.279 48.9428 30.2976 49.2201 29.0603 49.1348L20.2283 48.7508C19.247 48.7081 18.351 48.3881 17.5403 47.7908C16.7723 47.1934 16.239 46.1908 15.9403 44.7828L9.02829 11.6948C8.94296 11.3534 9.04963 11.0548 9.34829 10.7988C9.64696 10.5001 9.96696 10.3294 10.3083 10.2868L20.6123 9.00677C20.9536 8.9641 21.231 9.11344 21.4443 9.45477C21.6576 9.75344 21.7856 10.0734 21.8283 10.4148L24.2603 37.9988C24.303 38.3828 24.431 38.7241 24.6443 39.0228C24.8576 39.3214 25.263 39.4921 25.8603 39.5348L27.3323 39.6628C27.8016 39.7054 28.1856 39.6201 28.4843 39.4068C28.783 39.1508 29.0176 38.6814 29.1883 37.9988L33.6043 18.6708C33.6896 18.2441 33.839 17.9028 34.0523 17.6468C34.3083 17.3908 34.735 17.2201 35.3323 17.1348L39.6843 16.7508C40.1536 16.7081 40.5803 16.7721 40.9643 16.9428C41.3483 17.1134 41.583 17.4761 41.6683 18.0308L45.5083 35.8868C45.679 36.8254 46.2336 37.2521 47.1723 37.1668L47.9403 37.1028C48.239 37.0601 48.495 36.9534 48.7083 36.7828C48.9643 36.6121 49.135 36.2281 49.2203 35.6308L51.7803 12.1428C51.9083 11.2894 52.2283 10.6921 52.7403 10.3508C53.2523 9.96677 54.0203 9.81744 55.0443 9.90277L60.8043 10.2228C61.487 10.2654 61.999 10.4788 62.3403 10.8628C62.7243 11.2468 62.8096 11.8228 62.5963 12.5908L55.9403 42.9908C55.6843 43.9721 55.407 44.7614 55.1083 45.3588C54.8096 45.9561 54.447 46.4254 54.0203 46.7668C53.5936 47.0654 53.103 47.2788 52.5483 47.4068C52.0363 47.4921 51.439 47.5348 50.7563 47.5348L44.1643 47.7268ZM93.6903 41.1988C93.5623 43.2468 93.221 44.9534 92.6663 46.3188C92.1116 47.6414 91.3436 48.7081 90.3623 49.5188C89.4236 50.2868 88.293 50.8201 86.9703 51.1188C85.6476 51.4174 84.1543 51.5241 82.4903 51.4388L72.6343 51.0548C71.3116 51.0121 70.0956 50.8201 68.9863 50.4788C67.9196 50.1801 66.981 49.6894 66.1703 49.0068C65.4023 48.2814 64.805 47.3854 64.3783 46.3188C63.9516 45.2094 63.7383 43.8441 63.7383 42.2228L63.8023 22.0628C63.8023 19.1188 64.4636 16.9854 65.7863 15.6628C67.109 14.2974 69.3063 13.4441 72.3783 13.1028L84.5383 11.8228C88.165 11.4388 90.8743 12.0361 92.6663 13.6148C94.4583 15.1934 95.2476 17.6041 95.0343 20.8468L93.6903 41.1988ZM75.7063 18.9268C74.2983 19.0121 73.189 19.5028 72.3783 20.3988C71.6103 21.2948 71.1836 22.5748 71.0983 24.2388L70.5223 39.7908C70.437 41.2841 70.7783 42.3508 71.5463 42.9908C72.3143 43.5881 73.381 43.8654 74.7463 43.8228L78.3303 43.7588C79.781 43.7161 80.8476 43.3321 81.5303 42.6068C82.2556 41.8388 82.661 40.4308 82.7463 38.3828L83.4503 23.0228C83.5356 21.2734 83.0876 20.1001 82.1063 19.5028C81.125 18.9054 79.9516 18.6494 78.5863 18.7348L75.7063 18.9268ZM116.505 10.0948C118.639 10.0948 120.473 10.2654 122.009 10.6068C123.588 10.9054 124.889 11.4388 125.913 12.2068C126.937 12.9748 127.705 14.0201 128.217 15.3428C128.729 16.6654 129.028 18.3081 129.113 20.2708L129.369 26.0308C129.412 27.6094 129.241 28.9748 128.857 30.1268C128.516 31.2788 127.983 32.2601 127.257 33.0708C126.575 33.8388 125.764 34.4361 124.825 34.8628C123.887 35.2894 122.884 35.5881 121.817 35.7588L123.161 40.4308C123.247 40.9001 123.439 41.2628 123.737 41.5188C124.036 41.7748 124.612 41.9668 125.465 42.0948L131.097 42.9908C131.652 43.0761 132.036 43.3321 132.249 43.7588C132.463 44.1854 132.527 44.6974 132.441 45.2948L131.865 49.7748C131.78 50.4148 131.46 50.8841 130.905 51.1828C130.393 51.4814 129.775 51.5454 129.049 51.3748L123.161 50.2228C122.393 50.0948 121.647 49.9028 120.921 49.6468C120.239 49.3908 119.599 49.0494 119.001 48.6228C118.404 48.1534 117.871 47.5561 117.401 46.8308C116.975 46.1054 116.633 45.1881 116.377 44.0788L114.457 35.5668L111.705 35.6308C111.023 35.6308 110.681 36.0574 110.681 36.9108L111.513 48.5588C111.556 49.5828 111.108 50.0948 110.169 50.0948L103.961 50.2868C102.852 50.3721 102.297 49.9241 102.297 48.9428L103.193 19.8228C103.193 19.3534 102.937 19.1614 102.425 19.2468L98.3933 20.0148C97.5826 20.1854 96.9853 20.1214 96.6013 19.8228C96.2173 19.4814 95.9826 18.8414 95.8973 17.9028L95.4493 12.0148C95.4066 11.4601 95.492 11.0334 95.7053 10.7348C95.9186 10.4361 96.3453 10.2868 96.9853 10.2868L116.505 10.0948ZM119.833 21.9988C119.748 20.2921 119.279 19.1401 118.425 18.5428C117.615 17.9454 116.527 17.6468 115.161 17.6468H110.745C110.276 17.6468 109.892 17.7748 109.593 18.0308C109.337 18.2441 109.209 18.6281 109.209 19.1828L109.017 27.8868C108.975 28.8681 109.145 29.4868 109.529 29.7428C109.956 29.9988 110.553 30.1054 111.321 30.0628L115.929 29.8068C117.039 29.7641 117.999 29.4441 118.809 28.8468C119.663 28.2494 120.047 27.0761 119.961 25.3268L119.833 21.9988ZM144.703 46.7028C144.789 47.7268 144.639 48.4521 144.255 48.8788C143.871 49.2628 143.21 49.4974 142.271 49.5828L137.791 49.8388C136.17 49.9668 135.295 49.3268 135.167 47.9188L132.543 13.2308C132.458 12.4201 132.607 11.8441 132.991 11.5028C133.375 11.1188 133.887 10.9481 134.527 10.9908L141.311 11.2468C142.037 11.2894 142.57 11.4814 142.911 11.8228C143.295 12.1214 143.487 12.6761 143.487 13.4868L143.679 28.3348L147.647 28.0788L153.279 13.2948C153.535 12.6548 153.834 12.2068 154.175 11.9508C154.559 11.6521 155.178 11.4814 156.031 11.4388L160.575 11.3108C161.173 11.2681 161.599 11.3961 161.855 11.6948C162.111 11.9508 162.239 12.3134 162.239 12.7828C162.239 13.1241 162.175 13.4868 162.047 13.8708C161.962 14.2121 161.834 14.5534 161.663 14.8948L155.391 28.3988C155.989 28.4841 156.522 28.6974 156.991 29.0388C157.503 29.3374 157.951 29.7001 158.335 30.1268C158.719 30.5108 159.039 30.9374 159.295 31.4068C159.594 31.8334 159.807 32.2388 159.935 32.6228L165.183 46.5748C165.439 47.2148 165.439 47.7694 165.183 48.2388C164.97 48.6654 164.671 48.9001 164.287 48.9428L158.015 49.3908C157.205 49.4761 156.607 49.3908 156.223 49.1348C155.839 48.8361 155.541 48.3454 155.327 47.6628L152.127 37.2948C151.53 35.3748 150.015 34.5428 147.583 34.7988L143.935 35.1828L144.703 46.7028ZM172.394 31.9828C170.048 31.3428 168.448 30.4468 167.594 29.2948C166.784 28.1001 166.4 26.5428 166.442 24.6228L166.506 21.6148C166.506 20.1214 166.656 18.8201 166.954 17.7108C167.296 16.5588 167.85 15.5988 168.618 14.8308C169.386 14.0628 170.41 13.4868 171.69 13.1028C173.013 12.7188 174.677 12.4841 176.682 12.3988L184.234 12.1428C186.368 12.0574 188.138 12.1641 189.546 12.4628C190.954 12.7614 192.064 13.1881 192.874 13.7428C193.728 14.2548 194.346 14.8948 194.73 15.6628C195.114 16.4308 195.37 17.2628 195.498 18.1588L195.818 20.6548C195.989 21.8494 195.776 22.7454 195.178 23.3428C194.581 23.9401 193.856 24.2814 193.002 24.3668L188.714 24.6868C187.733 24.7721 187.008 24.6654 186.538 24.3668C186.069 24.0681 185.792 23.6414 185.706 23.0868L185.45 21.2308C185.322 20.3348 185.024 19.7588 184.554 19.5028C184.085 19.2041 183.424 19.0761 182.57 19.1188L180.01 19.2468C178.133 19.3321 177.152 20.2068 177.066 21.8708L177.002 23.7268C177.002 24.7508 177.216 25.4761 177.642 25.9028C178.112 26.3294 178.858 26.6921 179.882 26.9908L190.826 29.9348C192.789 30.4468 194.304 31.3428 195.37 32.6228C196.48 33.8601 196.97 35.5028 196.842 37.5508L196.522 42.9908C196.394 45.2948 195.562 47.0654 194.026 48.3028C192.49 49.4974 190.165 50.0308 187.05 49.9028L173.29 49.3268C171.626 49.2841 170.261 49.0921 169.194 48.7508C168.17 48.4094 167.36 47.9401 166.762 47.3428C166.208 46.7028 165.824 45.9348 165.61 45.0388C165.44 44.1001 165.376 43.0121 165.418 41.7748L165.61 37.5508C165.653 36.7828 165.866 36.2708 166.25 36.0148C166.634 35.7161 167.125 35.5881 167.722 35.6308L174.058 35.9508C175.381 35.9934 176 36.6334 175.914 37.8708L175.786 39.7268C175.701 40.4948 175.893 41.0281 176.362 41.3268C176.832 41.6254 177.429 41.7961 178.154 41.8388L182.122 42.0948C183.232 42.1801 183.978 42.0308 184.362 41.6468C184.789 41.2201 185.045 40.5588 185.13 39.6628L185.258 37.8708C185.344 36.8894 185.13 36.1854 184.618 35.7588C184.106 35.3321 183.402 34.9908 182.506 34.7348L172.394 31.9828ZM217.879 12.9108C217.836 12.1854 218.007 11.6094 218.391 11.1828C218.817 10.7561 219.393 10.5428 220.119 10.5428L226.519 10.4788C227.031 10.4788 227.5 10.5641 227.927 10.7348C228.353 10.9054 228.588 11.3534 228.631 12.0788L230.423 49.4548C230.508 50.7348 229.783 51.3534 228.247 51.3108L223.639 51.1188C223.169 51.0761 222.828 50.9694 222.615 50.7988C222.444 50.6281 222.337 50.2868 222.295 49.7748L221.399 38.6388C221.399 38.1694 221.164 37.9134 220.695 37.8708L212.567 37.3588C212.097 37.3588 211.863 37.6148 211.863 38.1268L212.119 47.5988C212.119 48.2388 211.969 48.6868 211.671 48.9428C211.372 49.1561 210.924 49.2841 210.327 49.3268L203.223 49.6468C202.583 49.6894 202.092 49.5828 201.751 49.3268C201.452 49.0281 201.26 48.5161 201.175 47.7908L198.231 12.7188C198.145 12.0361 198.252 11.4814 198.551 11.0548C198.892 10.5854 199.511 10.3721 200.407 10.4148L205.271 10.6068C206.252 10.6494 206.871 10.9268 207.127 11.4388C207.425 11.9508 207.596 12.4841 207.639 13.0388L208.791 28.2068C208.833 28.8468 208.961 29.2948 209.175 29.5508C209.388 29.7641 209.793 29.8921 210.391 29.9348L217.495 30.1908C218.092 30.2334 218.476 30.1268 218.647 29.8708C218.817 29.6148 218.881 29.2094 218.839 28.6548L217.879 12.9108ZM262.128 41.1988C262 43.2468 261.658 44.9534 261.104 46.3188C260.549 47.6414 259.781 48.7081 258.8 49.5188C257.861 50.2868 256.73 50.8201 255.408 51.1188C254.085 51.4174 252.592 51.5241 250.928 51.4388L241.072 51.0548C239.749 51.0121 238.533 50.8201 237.424 50.4788C236.357 50.1801 235.418 49.6894 234.608 49.0068C233.84 48.2814 233.242 47.3854 232.816 46.3188C232.389 45.2094 232.176 43.8441 232.176 42.2228L232.24 22.0628C232.24 19.1188 232.901 16.9854 234.224 15.6628C235.546 14.2974 237.744 13.4441 240.816 13.1028L252.976 11.8228C256.602 11.4388 259.312 12.0361 261.104 13.6148C262.896 15.1934 263.685 17.6041 263.472 20.8468L262.128 41.1988ZM244.144 18.9268C242.736 19.0121 241.626 19.5028 240.816 20.3988C240.048 21.2948 239.621 22.5748 239.536 24.2388L238.96 39.7908C238.874 41.2841 239.216 42.3508 239.984 42.9908C240.752 43.5881 241.818 43.8654 243.184 43.8228L246.768 43.7588C248.218 43.7161 249.285 43.3321 249.968 42.6068C250.693 41.8388 251.098 40.4308 251.184 38.3828L251.888 23.0228C251.973 21.2734 251.525 20.1001 250.544 19.5028C249.562 18.9054 248.389 18.6494 247.024 18.7348L244.144 18.9268ZM285.903 10.0948C289.913 10.0521 292.9 11.0334 294.863 13.0388C296.825 15.0441 297.956 17.7748 298.255 21.2308L298.831 28.8468C299.172 32.6868 298.447 35.4388 296.655 37.1028C294.905 38.7668 292.089 39.4921 288.207 39.2788L283.279 39.0228C282.681 38.9801 282.276 39.0868 282.063 39.3428C281.892 39.5988 281.828 39.9401 281.871 40.3668L283.023 50.6708C283.108 51.2681 283.001 51.6948 282.703 51.9508C282.404 52.2068 282.02 52.3348 281.551 52.3348L274.447 52.5268C273.935 52.5694 273.508 52.4628 273.167 52.2068C272.868 51.9934 272.719 51.5881 272.719 50.9908L272.911 19.3108C272.911 18.7988 272.655 18.5641 272.143 18.6068L266.639 19.3748C266.041 19.4601 265.636 19.3748 265.423 19.1188C265.209 18.8628 265.081 18.5641 265.039 18.2228L264.783 12.7188C264.74 11.9508 264.847 11.3534 265.103 10.9268C265.359 10.5001 265.913 10.2868 266.767 10.2868L285.903 10.0948ZM290.447 22.4468C290.319 20.9108 289.807 19.7801 288.911 19.0548C288.015 18.2868 286.607 17.9241 284.687 17.9668L281.423 18.0308C280.484 18.0308 279.993 18.5428 279.951 19.5668L279.631 31.0228C279.588 32.4734 280.292 33.2201 281.743 33.2628L286.991 33.5188C288.612 33.6041 289.7 33.2628 290.255 32.4948C290.852 31.6841 291.087 30.5321 290.959 29.0388L290.447 22.4468Z"/>
</mask>
<path d="M44.1643 47.7268C42.671 47.7694 41.583 47.5348 40.9003 47.0228C40.2603 46.5108 39.7696 45.5934 39.4283 44.2708L36.6763 31.7908L33.6043 45.4868C33.263 46.7241 32.7296 47.6628 32.0043 48.3028C31.279 48.9428 30.2976 49.2201 29.0603 49.1348L20.2283 48.7508C19.247 48.7081 18.351 48.3881 17.5403 47.7908C16.7723 47.1934 16.239 46.1908 15.9403 44.7828L9.02829 11.6948C8.94296 11.3534 9.04963 11.0548 9.34829 10.7988C9.64696 10.5001 9.96696 10.3294 10.3083 10.2868L20.6123 9.00677C20.9536 8.9641 21.231 9.11344 21.4443 9.45477C21.6576 9.75344 21.7856 10.0734 21.8283 10.4148L24.2603 37.9988C24.303 38.3828 24.431 38.7241 24.6443 39.0228C24.8576 39.3214 25.263 39.4921 25.8603 39.5348L27.3323 39.6628C27.8016 39.7054 28.1856 39.6201 28.4843 39.4068C28.783 39.1508 29.0176 38.6814 29.1883 37.9988L33.6043 18.6708C33.6896 18.2441 33.839 17.9028 34.0523 17.6468C34.3083 17.3908 34.735 17.2201 35.3323 17.1348L39.6843 16.7508C40.1536 16.7081 40.5803 16.7721 40.9643 16.9428C41.3483 17.1134 41.583 17.4761 41.6683 18.0308L45.5083 35.8868C45.679 36.8254 46.2336 37.2521 47.1723 37.1668L47.9403 37.1028C48.239 37.0601 48.495 36.9534 48.7083 36.7828C48.9643 36.6121 49.135 36.2281 49.2203 35.6308L51.7803 12.1428C51.9083 11.2894 52.2283 10.6921 52.7403 10.3508C53.2523 9.96677 54.0203 9.81744 55.0443 9.90277L60.8043 10.2228C61.487 10.2654 61.999 10.4788 62.3403 10.8628C62.7243 11.2468 62.8096 11.8228 62.5963 12.5908L55.9403 42.9908C55.6843 43.9721 55.407 44.7614 55.1083 45.3588C54.8096 45.9561 54.447 46.4254 54.0203 46.7668C53.5936 47.0654 53.103 47.2788 52.5483 47.4068C52.0363 47.4921 51.439 47.5348 50.7563 47.5348L44.1643 47.7268ZM93.6903 41.1988C93.5623 43.2468 93.221 44.9534 92.6663 46.3188C92.1116 47.6414 91.3436 48.7081 90.3623 49.5188C89.4236 50.2868 88.293 50.8201 86.9703 51.1188C85.6476 51.4174 84.1543 51.5241 82.4903 51.4388L72.6343 51.0548C71.3116 51.0121 70.0956 50.8201 68.9863 50.4788C67.9196 50.1801 66.981 49.6894 66.1703 49.0068C65.4023 48.2814 64.805 47.3854 64.3783 46.3188C63.9516 45.2094 63.7383 43.8441 63.7383 42.2228L63.8023 22.0628C63.8023 19.1188 64.4636 16.9854 65.7863 15.6628C67.109 14.2974 69.3063 13.4441 72.3783 13.1028L84.5383 11.8228C88.165 11.4388 90.8743 12.0361 92.6663 13.6148C94.4583 15.1934 95.2476 17.6041 95.0343 20.8468L93.6903 41.1988ZM75.7063 18.9268C74.2983 19.0121 73.189 19.5028 72.3783 20.3988C71.6103 21.2948 71.1836 22.5748 71.0983 24.2388L70.5223 39.7908C70.437 41.2841 70.7783 42.3508 71.5463 42.9908C72.3143 43.5881 73.381 43.8654 74.7463 43.8228L78.3303 43.7588C79.781 43.7161 80.8476 43.3321 81.5303 42.6068C82.2556 41.8388 82.661 40.4308 82.7463 38.3828L83.4503 23.0228C83.5356 21.2734 83.0876 20.1001 82.1063 19.5028C81.125 18.9054 79.9516 18.6494 78.5863 18.7348L75.7063 18.9268ZM116.505 10.0948C118.639 10.0948 120.473 10.2654 122.009 10.6068C123.588 10.9054 124.889 11.4388 125.913 12.2068C126.937 12.9748 127.705 14.0201 128.217 15.3428C128.729 16.6654 129.028 18.3081 129.113 20.2708L129.369 26.0308C129.412 27.6094 129.241 28.9748 128.857 30.1268C128.516 31.2788 127.983 32.2601 127.257 33.0708C126.575 33.8388 125.764 34.4361 124.825 34.8628C123.887 35.2894 122.884 35.5881 121.817 35.7588L123.161 40.4308C123.247 40.9001 123.439 41.2628 123.737 41.5188C124.036 41.7748 124.612 41.9668 125.465 42.0948L131.097 42.9908C131.652 43.0761 132.036 43.3321 132.249 43.7588C132.463 44.1854 132.527 44.6974 132.441 45.2948L131.865 49.7748C131.78 50.4148 131.46 50.8841 130.905 51.1828C130.393 51.4814 129.775 51.5454 129.049 51.3748L123.161 50.2228C122.393 50.0948 121.647 49.9028 120.921 49.6468C120.239 49.3908 119.599 49.0494 119.001 48.6228C118.404 48.1534 117.871 47.5561 117.401 46.8308C116.975 46.1054 116.633 45.1881 116.377 44.0788L114.457 35.5668L111.705 35.6308C111.023 35.6308 110.681 36.0574 110.681 36.9108L111.513 48.5588C111.556 49.5828 111.108 50.0948 110.169 50.0948L103.961 50.2868C102.852 50.3721 102.297 49.9241 102.297 48.9428L103.193 19.8228C103.193 19.3534 102.937 19.1614 102.425 19.2468L98.3933 20.0148C97.5826 20.1854 96.9853 20.1214 96.6013 19.8228C96.2173 19.4814 95.9826 18.8414 95.8973 17.9028L95.4493 12.0148C95.4066 11.4601 95.492 11.0334 95.7053 10.7348C95.9186 10.4361 96.3453 10.2868 96.9853 10.2868L116.505 10.0948ZM119.833 21.9988C119.748 20.2921 119.279 19.1401 118.425 18.5428C117.615 17.9454 116.527 17.6468 115.161 17.6468H110.745C110.276 17.6468 109.892 17.7748 109.593 18.0308C109.337 18.2441 109.209 18.6281 109.209 19.1828L109.017 27.8868C108.975 28.8681 109.145 29.4868 109.529 29.7428C109.956 29.9988 110.553 30.1054 111.321 30.0628L115.929 29.8068C117.039 29.7641 117.999 29.4441 118.809 28.8468C119.663 28.2494 120.047 27.0761 119.961 25.3268L119.833 21.9988ZM144.703 46.7028C144.789 47.7268 144.639 48.4521 144.255 48.8788C143.871 49.2628 143.21 49.4974 142.271 49.5828L137.791 49.8388C136.17 49.9668 135.295 49.3268 135.167 47.9188L132.543 13.2308C132.458 12.4201 132.607 11.8441 132.991 11.5028C133.375 11.1188 133.887 10.9481 134.527 10.9908L141.311 11.2468C142.037 11.2894 142.57 11.4814 142.911 11.8228C143.295 12.1214 143.487 12.6761 143.487 13.4868L143.679 28.3348L147.647 28.0788L153.279 13.2948C153.535 12.6548 153.834 12.2068 154.175 11.9508C154.559 11.6521 155.178 11.4814 156.031 11.4388L160.575 11.3108C161.173 11.2681 161.599 11.3961 161.855 11.6948C162.111 11.9508 162.239 12.3134 162.239 12.7828C162.239 13.1241 162.175 13.4868 162.047 13.8708C161.962 14.2121 161.834 14.5534 161.663 14.8948L155.391 28.3988C155.989 28.4841 156.522 28.6974 156.991 29.0388C157.503 29.3374 157.951 29.7001 158.335 30.1268C158.719 30.5108 159.039 30.9374 159.295 31.4068C159.594 31.8334 159.807 32.2388 159.935 32.6228L165.183 46.5748C165.439 47.2148 165.439 47.7694 165.183 48.2388C164.97 48.6654 164.671 48.9001 164.287 48.9428L158.015 49.3908C157.205 49.4761 156.607 49.3908 156.223 49.1348C155.839 48.8361 155.541 48.3454 155.327 47.6628L152.127 37.2948C151.53 35.3748 150.015 34.5428 147.583 34.7988L143.935 35.1828L144.703 46.7028ZM172.394 31.9828C170.048 31.3428 168.448 30.4468 167.594 29.2948C166.784 28.1001 166.4 26.5428 166.442 24.6228L166.506 21.6148C166.506 20.1214 166.656 18.8201 166.954 17.7108C167.296 16.5588 167.85 15.5988 168.618 14.8308C169.386 14.0628 170.41 13.4868 171.69 13.1028C173.013 12.7188 174.677 12.4841 176.682 12.3988L184.234 12.1428C186.368 12.0574 188.138 12.1641 189.546 12.4628C190.954 12.7614 192.064 13.1881 192.874 13.7428C193.728 14.2548 194.346 14.8948 194.73 15.6628C195.114 16.4308 195.37 17.2628 195.498 18.1588L195.818 20.6548C195.989 21.8494 195.776 22.7454 195.178 23.3428C194.581 23.9401 193.856 24.2814 193.002 24.3668L188.714 24.6868C187.733 24.7721 187.008 24.6654 186.538 24.3668C186.069 24.0681 185.792 23.6414 185.706 23.0868L185.45 21.2308C185.322 20.3348 185.024 19.7588 184.554 19.5028C184.085 19.2041 183.424 19.0761 182.57 19.1188L180.01 19.2468C178.133 19.3321 177.152 20.2068 177.066 21.8708L177.002 23.7268C177.002 24.7508 177.216 25.4761 177.642 25.9028C178.112 26.3294 178.858 26.6921 179.882 26.9908L190.826 29.9348C192.789 30.4468 194.304 31.3428 195.37 32.6228C196.48 33.8601 196.97 35.5028 196.842 37.5508L196.522 42.9908C196.394 45.2948 195.562 47.0654 194.026 48.3028C192.49 49.4974 190.165 50.0308 187.05 49.9028L173.29 49.3268C171.626 49.2841 170.261 49.0921 169.194 48.7508C168.17 48.4094 167.36 47.9401 166.762 47.3428C166.208 46.7028 165.824 45.9348 165.61 45.0388C165.44 44.1001 165.376 43.0121 165.418 41.7748L165.61 37.5508C165.653 36.7828 165.866 36.2708 166.25 36.0148C166.634 35.7161 167.125 35.5881 167.722 35.6308L174.058 35.9508C175.381 35.9934 176 36.6334 175.914 37.8708L175.786 39.7268C175.701 40.4948 175.893 41.0281 176.362 41.3268C176.832 41.6254 177.429 41.7961 178.154 41.8388L182.122 42.0948C183.232 42.1801 183.978 42.0308 184.362 41.6468C184.789 41.2201 185.045 40.5588 185.13 39.6628L185.258 37.8708C185.344 36.8894 185.13 36.1854 184.618 35.7588C184.106 35.3321 183.402 34.9908 182.506 34.7348L172.394 31.9828ZM217.879 12.9108C217.836 12.1854 218.007 11.6094 218.391 11.1828C218.817 10.7561 219.393 10.5428 220.119 10.5428L226.519 10.4788C227.031 10.4788 227.5 10.5641 227.927 10.7348C228.353 10.9054 228.588 11.3534 228.631 12.0788L230.423 49.4548C230.508 50.7348 229.783 51.3534 228.247 51.3108L223.639 51.1188C223.169 51.0761 222.828 50.9694 222.615 50.7988C222.444 50.6281 222.337 50.2868 222.295 49.7748L221.399 38.6388C221.399 38.1694 221.164 37.9134 220.695 37.8708L212.567 37.3588C212.097 37.3588 211.863 37.6148 211.863 38.1268L212.119 47.5988C212.119 48.2388 211.969 48.6868 211.671 48.9428C211.372 49.1561 210.924 49.2841 210.327 49.3268L203.223 49.6468C202.583 49.6894 202.092 49.5828 201.751 49.3268C201.452 49.0281 201.26 48.5161 201.175 47.7908L198.231 12.7188C198.145 12.0361 198.252 11.4814 198.551 11.0548C198.892 10.5854 199.511 10.3721 200.407 10.4148L205.271 10.6068C206.252 10.6494 206.871 10.9268 207.127 11.4388C207.425 11.9508 207.596 12.4841 207.639 13.0388L208.791 28.2068C208.833 28.8468 208.961 29.2948 209.175 29.5508C209.388 29.7641 209.793 29.8921 210.391 29.9348L217.495 30.1908C218.092 30.2334 218.476 30.1268 218.647 29.8708C218.817 29.6148 218.881 29.2094 218.839 28.6548L217.879 12.9108ZM262.128 41.1988C262 43.2468 261.658 44.9534 261.104 46.3188C260.549 47.6414 259.781 48.7081 258.8 49.5188C257.861 50.2868 256.73 50.8201 255.408 51.1188C254.085 51.4174 252.592 51.5241 250.928 51.4388L241.072 51.0548C239.749 51.0121 238.533 50.8201 237.424 50.4788C236.357 50.1801 235.418 49.6894 234.608 49.0068C233.84 48.2814 233.242 47.3854 232.816 46.3188C232.389 45.2094 232.176 43.8441 232.176 42.2228L232.24 22.0628C232.24 19.1188 232.901 16.9854 234.224 15.6628C235.546 14.2974 237.744 13.4441 240.816 13.1028L252.976 11.8228C256.602 11.4388 259.312 12.0361 261.104 13.6148C262.896 15.1934 263.685 17.6041 263.472 20.8468L262.128 41.1988ZM244.144 18.9268C242.736 19.0121 241.626 19.5028 240.816 20.3988C240.048 21.2948 239.621 22.5748 239.536 24.2388L238.96 39.7908C238.874 41.2841 239.216 42.3508 239.984 42.9908C240.752 43.5881 241.818 43.8654 243.184 43.8228L246.768 43.7588C248.218 43.7161 249.285 43.3321 249.968 42.6068C250.693 41.8388 251.098 40.4308 251.184 38.3828L251.888 23.0228C251.973 21.2734 251.525 20.1001 250.544 19.5028C249.562 18.9054 248.389 18.6494 247.024 18.7348L244.144 18.9268ZM285.903 10.0948C289.913 10.0521 292.9 11.0334 294.863 13.0388C296.825 15.0441 297.956 17.7748 298.255 21.2308L298.831 28.8468C299.172 32.6868 298.447 35.4388 296.655 37.1028C294.905 38.7668 292.089 39.4921 288.207 39.2788L283.279 39.0228C282.681 38.9801 282.276 39.0868 282.063 39.3428C281.892 39.5988 281.828 39.9401 281.871 40.3668L283.023 50.6708C283.108 51.2681 283.001 51.6948 282.703 51.9508C282.404 52.2068 282.02 52.3348 281.551 52.3348L274.447 52.5268C273.935 52.5694 273.508 52.4628 273.167 52.2068C272.868 51.9934 272.719 51.5881 272.719 50.9908L272.911 19.3108C272.911 18.7988 272.655 18.5641 272.143 18.6068L266.639 19.3748C266.041 19.4601 265.636 19.3748 265.423 19.1188C265.209 18.8628 265.081 18.5641 265.039 18.2228L264.783 12.7188C264.74 11.9508 264.847 11.3534 265.103 10.9268C265.359 10.5001 265.913 10.2868 266.767 10.2868L285.903 10.0948ZM290.447 22.4468C290.319 20.9108 289.807 19.7801 288.911 19.0548C288.015 18.2868 286.607 17.9241 284.687 17.9668L281.423 18.0308C280.484 18.0308 279.993 18.5428 279.951 19.5668L279.631 31.0228C279.588 32.4734 280.292 33.2201 281.743 33.2628L286.991 33.5188C288.612 33.6041 289.7 33.2628 290.255 32.4948C290.852 31.6841 291.087 30.5321 290.959 29.0388L290.447 22.4468Z" fill="#FB4069"/>
<path d="M44.1643 47.7268L44.4213 56.7231L44.4263 56.723L44.1643 47.7268ZM40.9003 47.0228L35.278 54.0506L35.3878 54.1384L35.5003 54.2228L40.9003 47.0228ZM39.4283 44.2708L30.6394 46.2088L30.6739 46.3649L30.7138 46.5197L39.4283 44.2708ZM36.6763 31.7908L45.4651 29.8527L27.8945 29.821L36.6763 31.7908ZM33.6043 45.4868L42.2802 47.8801L42.3383 47.6696L42.3861 47.4565L33.6043 45.4868ZM32.0043 48.3028L37.9589 55.0513L32.0043 48.3028ZM29.0603 49.1348L29.6795 40.1561L29.5655 40.1482L29.4512 40.1433L29.0603 49.1348ZM20.2283 48.7508L20.6192 39.7593L20.2283 48.7508ZM17.5403 47.7908L12.0148 54.8949L12.1072 54.9668L12.2015 55.0363L17.5403 47.7908ZM15.9403 44.7828L7.13046 46.6231L7.13331 46.6367L7.13619 46.6503L15.9403 44.7828ZM9.02829 11.6948L17.8381 9.85442L17.8022 9.68242L17.7596 9.51195L9.02829 11.6948ZM9.34829 10.7988L15.2054 17.6321L15.4679 17.4071L15.7123 17.1627L9.34829 10.7988ZM10.3083 10.2868L9.19881 1.35542L9.192 1.35627L10.3083 10.2868ZM20.6123 9.00677L21.7218 17.9381L21.7286 17.9373L20.6123 9.00677ZM21.4443 9.45477L13.8123 14.2247L13.9594 14.4601L14.1207 14.6859L21.4443 9.45477ZM21.8283 10.4148L30.7935 9.62433L30.7791 9.46107L30.7588 9.29845L21.8283 10.4148ZM24.2603 37.9988L15.2951 38.7892L15.3041 38.891L15.3153 38.9927L24.2603 37.9988ZM25.8603 39.5348L26.64 30.5686L26.5708 30.5626L26.5015 30.5576L25.8603 39.5348ZM27.3323 39.6628L28.1471 30.6997L28.1295 30.6981L28.112 30.6966L27.3323 39.6628ZM28.4843 39.4068L33.7154 46.7304L34.0393 46.4991L34.3414 46.2401L28.4843 39.4068ZM29.1883 37.9988L37.9196 40.1816L37.9418 40.0927L37.9622 40.0034L29.1883 37.9988ZM33.6043 18.6708L42.3782 20.6754L42.4055 20.556L42.4295 20.4358L33.6043 18.6708ZM34.0523 17.6468L27.6883 11.2828L27.3997 11.5715L27.1383 11.8851L34.0523 17.6468ZM35.3323 17.1348L34.5413 8.1696L34.2996 8.19092L34.0595 8.22522L35.3323 17.1348ZM39.6843 16.7508L40.4753 25.7159L40.4872 25.7149L40.4992 25.7138L39.6843 16.7508ZM40.9643 16.9428L37.309 25.1671L37.309 25.1671L40.9643 16.9428ZM41.6683 18.0308L32.773 19.3993L32.8135 19.6626L32.8695 19.923L41.6683 18.0308ZM45.5083 35.8868L54.3631 34.2768L54.3374 34.1352L54.3071 33.9945L45.5083 35.8868ZM47.1723 37.1668L46.4249 28.1979L46.3912 28.2007L46.3575 28.2037L47.1723 37.1668ZM47.9403 37.1028L48.6877 46.0717L48.9513 46.0497L49.2131 46.0123L47.9403 37.1028ZM48.7083 36.7828L43.716 29.2943L43.391 29.511L43.086 29.755L48.7083 36.7828ZM49.2203 35.6308L58.1298 36.9035L58.1511 36.755L58.1673 36.6059L49.2203 35.6308ZM51.7803 12.1428L42.8799 10.8077L42.8529 10.9872L42.8333 11.1676L51.7803 12.1428ZM52.7403 10.3508L57.7326 17.8392L57.9405 17.7006L58.1403 17.5508L52.7403 10.3508ZM55.0443 9.90277L54.2969 18.8717L54.4209 18.882L54.5451 18.8889L55.0443 9.90277ZM60.8043 10.2228L61.3657 1.2403L61.3346 1.23835L61.3035 1.23663L60.8043 10.2228ZM62.3403 10.8628L55.6136 16.8421L55.7893 17.0397L55.9763 17.2267L62.3403 10.8628ZM62.5963 12.5908L53.9246 10.182L53.8579 10.4222L53.8046 10.6658L62.5963 12.5908ZM55.9403 42.9908L64.6489 45.2626L64.6939 45.09L64.732 44.9157L55.9403 42.9908ZM55.1083 45.3588L47.0585 41.3338L47.0584 41.3339L55.1083 45.3588ZM54.0203 46.7668L59.1814 54.1399L59.4175 53.9746L59.6426 53.7946L54.0203 46.7668ZM52.5483 47.4068L54.0279 56.2843L54.3016 56.2387L54.572 56.1763L52.5483 47.4068ZM50.7563 47.5348V38.5348H50.6253L50.4943 38.5386L50.7563 47.5348ZM44.1643 47.7268L43.9073 38.7304C43.6548 38.7377 43.7685 38.708 44.1258 38.7851C44.4809 38.8617 45.3378 39.1009 46.3003 39.8228L40.9003 47.0228L35.5003 54.2228C38.6448 56.5812 42.2633 56.7848 44.4213 56.7231L44.1643 47.7268ZM40.9003 47.0228L46.5226 39.995C47.3734 40.6756 47.8079 41.3685 47.9884 41.7059C48.1673 42.0404 48.1867 42.1919 48.1428 42.0219L39.4283 44.2708L30.7138 46.5197C31.2465 48.5838 32.3995 51.7478 35.278 54.0506L40.9003 47.0228ZM39.4283 44.2708L48.2171 42.3327L45.4651 29.8527L36.6763 31.7908L27.8874 33.7288L30.6394 46.2088L39.4283 44.2708ZM36.6763 31.7908L27.8945 29.821L24.8225 43.517L33.6043 45.4868L42.3861 47.4565L45.4581 33.7605L36.6763 31.7908ZM33.6043 45.4868L24.9284 43.0934C24.903 43.1853 25.0995 42.3927 26.0497 41.5542L32.0043 48.3028L37.9589 55.0513C40.3598 52.9329 41.6229 50.2629 42.2802 47.8801L33.6043 45.4868ZM32.0043 48.3028L26.0497 41.5542C26.7527 40.9339 27.542 40.5376 28.2767 40.33C28.9715 40.1336 29.4814 40.1424 29.6795 40.1561L29.0603 49.1348L28.4411 58.1134C31.3687 58.3153 34.9564 57.7005 37.9589 55.0513L32.0043 48.3028ZM29.0603 49.1348L29.4512 40.1433L20.6192 39.7593L20.2283 48.7508L19.8374 57.7423L28.6694 58.1263L29.0603 49.1348ZM20.2283 48.7508L20.6192 39.7593C20.9987 39.7758 21.4201 39.8505 21.8473 40.0031C22.2727 40.155 22.6192 40.3538 22.8791 40.5453L17.5403 47.7908L12.2015 55.0363C14.413 56.6658 17.0228 57.6199 19.8374 57.7423L20.2283 48.7508ZM17.5403 47.7908L23.0658 40.6866C24.6165 41.8927 24.8072 43.2114 24.7444 42.9152L15.9403 44.7828L7.13619 46.6503C7.6707 49.1702 8.92814 52.4942 12.0148 54.8949L17.5403 47.7908ZM15.9403 44.7828L24.7501 42.9424L17.8381 9.85442L9.02829 11.6948L0.218464 13.5351L7.13046 46.6231L15.9403 44.7828ZM9.02829 11.6948L17.7596 9.51195C18.0989 10.8691 18.1287 12.5372 17.52 14.2418C16.934 15.8826 15.9624 16.9832 15.2054 17.6321L9.34829 10.7988L3.49118 3.96545C2.43552 4.8703 1.26128 6.24828 0.568617 8.18774C-0.146822 10.191 -0.127614 12.1791 0.297011 13.8776L9.02829 11.6948ZM9.34829 10.7988L15.7123 17.1627C14.9265 17.9485 13.4882 18.9593 11.4246 19.2173L10.3083 10.2868L9.192 1.35627C6.44576 1.69954 4.36745 3.05169 2.98432 4.43482L9.34829 10.7988ZM10.3083 10.2868L11.4178 19.2181L21.7218 17.9381L20.6123 9.00677L19.5028 0.0754156L9.19881 1.35542L10.3083 10.2868ZM20.6123 9.00677L21.7286 17.9373C20.2235 18.1254 18.4695 17.9049 16.8094 17.011C15.2396 16.1658 14.3087 15.0189 13.8123 14.2247L21.4443 9.45477L29.0763 4.68479C28.3666 3.54929 27.1903 2.15712 25.3432 1.16254C23.4057 0.119284 21.3424 -0.154539 19.496 0.0762644L20.6123 9.00677ZM21.4443 9.45477L14.1207 14.6859C13.5249 13.8517 13.053 12.7727 12.8978 11.5311L21.8283 10.4148L30.7588 9.29845C30.5183 7.37417 29.7904 5.65514 28.7679 4.22364L21.4443 9.45477ZM21.8283 10.4148L12.8631 11.2052L15.2951 38.7892L24.2603 37.9988L33.2255 37.2083L30.7935 9.62433L21.8283 10.4148ZM24.2603 37.9988L15.3153 38.9927C15.5185 40.8209 16.1664 42.6379 17.3207 44.2539L24.6443 39.0228L31.9679 33.7916C32.6955 34.8103 33.0874 35.9446 33.2052 37.0049L24.2603 37.9988ZM24.6443 39.0228L17.3207 44.2539C19.8535 47.7998 23.6087 48.3969 25.2191 48.5119L25.8603 39.5348L26.5015 30.5576C26.9172 30.5873 29.8618 30.843 31.9679 33.7916L24.6443 39.0228ZM25.8603 39.5348L25.0806 48.5009L26.5526 48.6289L27.3323 39.6628L28.112 30.6966L26.64 30.5686L25.8603 39.5348ZM27.3323 39.6628L26.5175 48.6258C28.5091 48.8069 31.2124 48.5183 33.7154 46.7304L28.4843 39.4068L23.2532 32.0832C25.1589 30.7219 27.0941 30.604 28.1471 30.6997L27.3323 39.6628ZM28.4843 39.4068L34.3414 46.2401C36.7947 44.1372 37.6093 41.4227 37.9196 40.1816L29.1883 37.9988L20.457 35.8159C20.4807 35.7211 20.5781 35.3506 20.8345 34.8378C21.0841 34.3385 21.6165 33.4398 22.6272 32.5735L28.4843 39.4068ZM29.1883 37.9988L37.9622 40.0034L42.3782 20.6754L33.6043 18.6708L24.8304 16.6661L20.4144 35.9941L29.1883 37.9988ZM33.6043 18.6708L42.4295 20.4358C42.3078 21.0442 41.9621 22.2134 40.9663 23.4084L34.0523 17.6468L27.1383 11.8851C25.7158 13.5921 25.0714 15.444 24.7791 16.9057L33.6043 18.6708ZM34.0523 17.6468L40.4163 24.0107C39.484 24.943 38.5318 25.4331 37.9068 25.6831C37.285 25.9318 36.8087 26.0152 36.6051 26.0443L35.3323 17.1348L34.0595 8.22522C32.7041 8.41886 29.9714 8.99974 27.6883 11.2828L34.0523 17.6468ZM35.3323 17.1348L36.1233 26.0999L40.4753 25.7159L39.6843 16.7508L38.8933 7.7856L34.5413 8.1696L35.3323 17.1348ZM39.6843 16.7508L40.4992 25.7138C39.629 25.7929 38.4916 25.6927 37.309 25.1671L40.9643 16.9428L44.6196 8.71847C42.669 7.85155 40.6783 7.62329 38.8694 7.78773L39.6843 16.7508ZM40.9643 16.9428L37.309 25.1671C35.858 24.5222 34.6758 23.474 33.8722 22.232C33.1263 21.0793 32.868 20.0173 32.773 19.3993L41.6683 18.0308L50.5636 16.6622C50.1867 14.2124 48.7107 10.5367 44.6195 8.71847L40.9643 16.9428ZM41.6683 18.0308L32.8695 19.923L36.7095 37.779L45.5083 35.8868L54.3071 33.9945L50.4671 16.1385L41.6683 18.0308ZM45.5083 35.8868L36.6535 37.4967C36.9915 39.3557 37.9631 42.043 40.5649 44.0444C43.1844 46.0594 46.0579 46.3052 47.9871 46.1298L47.1723 37.1668L46.3575 28.2037C47.348 28.1137 49.4748 28.1888 51.5397 29.7772C53.5868 31.3519 54.1958 33.3565 54.3631 34.2768L45.5083 35.8868ZM47.1723 37.1668L47.9197 46.1357L48.6877 46.0717L47.9403 37.1028L47.1929 28.1339L46.4249 28.1979L47.1723 37.1668ZM47.9403 37.1028L49.2131 46.0123C50.9329 45.7666 52.7334 45.0883 54.3306 43.8106L48.7083 36.7828L43.086 29.755C44.2565 28.8186 45.545 28.3536 46.6675 28.1932L47.9403 37.1028ZM48.7083 36.7828L53.7006 44.2712C57.4043 41.8021 57.9925 37.865 58.1298 36.9035L49.2203 35.6308L40.3107 34.358C40.3391 34.1597 40.4407 33.529 40.804 32.7115C41.1662 31.8965 41.9956 30.4413 43.716 29.2943L48.7083 36.7828ZM49.2203 35.6308L58.1673 36.6059L60.7273 13.1179L51.7803 12.1428L42.8333 11.1676L40.2733 34.6556L49.2203 35.6308ZM51.7803 12.1428L60.6807 13.4778C60.5882 14.0947 60.073 16.2789 57.7326 17.8392L52.7403 10.3508L47.748 2.86233C44.3836 5.10527 43.2284 8.48413 42.8799 10.8077L51.7803 12.1428ZM52.7403 10.3508L58.1403 17.5508C57.0931 18.3361 56.0776 18.6571 55.4181 18.7853C54.7825 18.9089 54.3672 18.8775 54.2969 18.8717L55.0443 9.90277L55.7917 0.93386C53.8278 0.770195 50.4148 0.844874 47.3403 3.15076L52.7403 10.3508ZM55.0443 9.90277L54.5451 18.8889L60.3051 19.2089L60.8043 10.2228L61.3035 1.23663L55.5435 0.916628L55.0443 9.90277ZM60.8043 10.2228L60.2429 19.2052C59.3657 19.1504 57.3188 18.7604 55.6136 16.8421L62.3403 10.8628L69.067 4.88349C66.6791 2.19716 63.6082 1.38045 61.3657 1.2403L60.8043 10.2228ZM62.3403 10.8628L55.9763 17.2267C54.7015 15.9519 54.0081 14.3777 53.7895 12.9017C53.593 11.5752 53.8112 10.5902 53.9246 10.182L62.5963 12.5908L71.268 14.9996C71.9024 12.7156 72.3606 8.15511 68.7043 4.49881L62.3403 10.8628ZM62.5963 12.5908L53.8046 10.6658L47.1486 41.0658L55.9403 42.9908L64.732 44.9157L71.388 14.5157L62.5963 12.5908ZM55.9403 42.9908L47.2317 40.719C47.1538 41.0179 47.0905 41.2176 47.0492 41.3354C47.0059 41.4586 47.0031 41.4445 47.0585 41.3338L55.1083 45.3588L63.1581 49.3837C63.841 48.018 64.3072 46.5723 64.6489 45.2626L55.9403 42.9908ZM55.1083 45.3588L47.0584 41.3339C47.2155 41.0198 47.6076 40.3713 48.398 39.739L54.0203 46.7668L59.6426 53.7946C61.2863 52.4796 62.4038 50.8924 63.1581 49.3837L55.1083 45.3588ZM54.0203 46.7668L48.8592 39.3937C49.4635 38.9706 50.0586 38.7448 50.5246 38.6373L52.5483 47.4068L54.572 56.1763C56.1473 55.8128 57.7237 55.1603 59.1814 54.1399L54.0203 46.7668ZM52.5483 47.4068L51.0687 38.5292C51.1287 38.5192 51.1345 38.5214 51.0751 38.5256C51.0168 38.5298 50.9126 38.5348 50.7563 38.5348V47.5348V56.5348C51.7898 56.5348 52.9022 56.4719 54.0279 56.2843L52.5483 47.4068ZM50.7563 47.5348L50.4943 38.5386L43.9023 38.7306L44.1643 47.7268L44.4263 56.723L51.0183 56.531L50.7563 47.5348ZM93.6903 41.1988L84.7099 40.6057L84.7088 40.6215L84.7078 40.6374L93.6903 41.1988ZM92.6663 46.3188L100.966 49.7993L100.986 49.7528L101.004 49.7062L92.6663 46.3188ZM90.3623 49.5188L96.0614 56.4844L96.0779 56.4709L96.0942 56.4574L90.3623 49.5188ZM86.9703 51.1188L84.9879 42.3398L86.9703 51.1188ZM82.4903 51.4388L82.9512 42.4506L82.896 42.4478L82.8407 42.4456L82.4903 51.4388ZM72.6343 51.0548L72.9847 42.0616L72.9546 42.0604L72.9245 42.0594L72.6343 51.0548ZM68.9863 50.4788L71.6331 41.8768L71.5234 41.843L71.413 41.8121L68.9863 50.4788ZM66.1703 49.0068L59.9907 55.5499L60.177 55.7259L60.3731 55.891L66.1703 49.0068ZM64.3783 46.3188L55.9782 49.5496L55.9997 49.6056L56.022 49.6613L64.3783 46.3188ZM63.7383 42.2228L54.7383 42.1942L54.7383 42.2085V42.2228H63.7383ZM63.8023 22.0628L72.8022 22.0913L72.8023 22.0771V22.0628H63.8023ZM65.7863 15.6628L72.1503 22.0267L72.2008 21.9762L72.2505 21.9249L65.7863 15.6628ZM72.3783 13.1028L71.4361 4.15222L71.4103 4.15494L71.3844 4.15781L72.3783 13.1028ZM84.5383 11.8228L85.4805 20.7733L85.4859 20.7727L84.5383 11.8228ZM92.6663 13.6148L86.717 20.368H86.717L92.6663 13.6148ZM95.0343 20.8468L104.015 21.4398L104.015 21.4376L95.0343 20.8468ZM75.7063 18.9268L76.2508 27.9103L76.2779 27.9086L76.305 27.9068L75.7063 18.9268ZM72.3783 20.3988L65.7045 14.3605L65.6235 14.45L65.545 14.5416L72.3783 20.3988ZM71.0983 24.2388L62.1101 23.7778L62.1068 23.8417L62.1045 23.9057L71.0983 24.2388ZM70.5223 39.7908L79.5076 40.3042L79.5128 40.2141L79.5161 40.1239L70.5223 39.7908ZM71.5463 42.9908L65.7846 49.9048L65.9011 50.0018L66.0208 50.0949L71.5463 42.9908ZM74.7463 43.8228L74.5856 34.8242L74.5254 34.8253L74.4652 34.8272L74.7463 43.8228ZM78.3303 43.7588L78.491 52.7573L78.5429 52.7564L78.5949 52.7549L78.3303 43.7588ZM81.5303 42.6068L74.9872 36.4272L74.9818 36.4328L74.9765 36.4385L81.5303 42.6068ZM82.7463 38.3828L73.7557 37.9707L73.7549 37.9894L73.7541 38.0081L82.7463 38.3828ZM83.4503 23.0228L74.461 22.5843L74.4603 22.5975L74.4597 22.6107L83.4503 23.0228ZM78.5863 18.7348L78.0249 9.7523L78.0063 9.75346L77.9876 9.7547L78.5863 18.7348ZM93.6903 41.1988L84.7078 40.6374C84.6185 42.066 84.4044 42.7437 84.3281 42.9314L92.6663 46.3188L101.004 49.7062C102.038 47.1632 102.506 44.4275 102.673 41.7602L93.6903 41.1988ZM92.6663 46.3188L84.3665 42.8382C84.3291 42.9276 84.3219 42.9195 84.3705 42.852C84.4217 42.7809 84.5082 42.681 84.6304 42.5801L90.3623 49.5188L96.0942 56.4574C98.3346 54.6067 99.9203 52.2931 100.966 49.7993L92.6663 46.3188ZM90.3623 49.5188L84.6632 42.5532C84.7807 42.457 84.8911 42.3925 84.9707 42.3549C85.047 42.3189 85.0623 42.323 84.9879 42.3398L86.9703 51.1188L88.9526 59.8977C91.4756 59.328 93.9194 58.237 96.0614 56.4844L90.3623 49.5188ZM86.9703 51.1188L84.9879 42.3398C84.6246 42.4219 83.9746 42.5031 82.9512 42.4506L82.4903 51.4388L82.0294 60.427C84.334 60.5452 86.6707 60.413 88.9526 59.8977L86.9703 51.1188ZM82.4903 51.4388L82.8407 42.4456L72.9847 42.0616L72.6343 51.0548L72.2839 60.048L82.1399 60.4319L82.4903 51.4388ZM72.6343 51.0548L72.9245 42.0594C72.2917 42.039 71.8797 41.9526 71.6331 41.8768L68.9863 50.4788L66.3395 59.0808C68.3116 59.6876 70.3315 59.9852 72.3441 60.0501L72.6343 51.0548ZM68.9863 50.4788L71.413 41.8121C71.4554 41.824 71.5409 41.8529 71.6516 41.9107C71.7634 41.9692 71.8719 42.042 71.9675 42.1226L66.1703 49.0068L60.3731 55.891C62.2115 57.4391 64.3123 58.5162 66.5596 59.1454L68.9863 50.4788ZM66.1703 49.0068L72.3499 42.4637C72.4688 42.5759 72.5643 42.6928 72.6347 42.7985C72.7039 42.9021 72.7319 42.9694 72.7346 42.9763L64.3783 46.3188L56.022 49.6613C56.8905 51.8325 58.1928 53.8519 59.9907 55.5499L66.1703 49.0068ZM64.3783 46.3188L72.7784 43.088C72.8272 43.2148 72.8142 43.2256 72.7904 43.0734C72.7666 42.921 72.7383 42.6457 72.7383 42.2228H63.7383H54.7383C54.7383 44.573 55.0394 47.1087 55.9782 49.5496L64.3783 46.3188ZM63.7383 42.2228L72.7383 42.2513L72.8022 22.0913L63.8023 22.0628L54.8023 22.0342L54.7383 42.1942L63.7383 42.2228ZM63.8023 22.0628H72.8023C72.8023 21.6592 72.8252 21.3664 72.8509 21.1692C72.8766 20.9717 72.9016 20.8975 72.8947 20.9197C72.8872 20.944 72.8422 21.081 72.7236 21.2876C72.602 21.4994 72.4163 21.7606 72.1503 22.0267L65.7863 15.6628L59.4223 9.29881C55.6612 13.06 54.8023 18.0592 54.8023 22.0628H63.8023ZM65.7863 15.6628L72.2505 21.9249C71.8193 22.37 71.5125 22.4551 71.6844 22.3883C71.8705 22.316 72.386 22.1573 73.3722 22.0477L72.3783 13.1028L71.3844 4.15781C67.4443 4.59561 62.7688 5.84278 59.3221 9.40061L65.7863 15.6628ZM72.3783 13.1028L73.3205 22.0533L85.4805 20.7733L84.5383 11.8228L83.5961 2.87222L71.4361 4.15222L72.3783 13.1028ZM84.5383 11.8228L85.4859 20.7727C86.6204 20.6526 87.1893 20.7357 87.3526 20.7717C87.4617 20.7957 87.1371 20.7381 86.717 20.368L92.6663 13.6148L98.6156 6.86154C94.1296 2.90959 88.4097 2.36255 83.5907 2.8728L84.5383 11.8228ZM92.6663 13.6148L86.717 20.368C86.5498 20.2207 86.3936 20.041 86.2662 19.844C86.1405 19.6499 86.0766 19.4913 86.0491 19.4074C86.0009 19.2602 86.1052 19.4735 86.0537 20.2559L95.0343 20.8468L104.015 21.4376C104.341 16.4858 103.197 10.8976 98.6156 6.86154L92.6663 13.6148ZM95.0343 20.8468L86.0539 20.2537L84.7099 40.6057L93.6903 41.1988L102.671 41.7918L104.015 21.4398L95.0343 20.8468ZM75.7063 18.9268L75.1618 9.94325C71.8274 10.1453 68.3578 11.4279 65.7045 14.3605L72.3783 20.3988L79.0521 26.437C78.6078 26.9281 78.0531 27.3267 77.4588 27.5896C76.8891 27.8416 76.4443 27.8986 76.2508 27.9103L75.7063 18.9268ZM72.3783 20.3988L65.545 14.5416C63.043 17.4607 62.2564 20.9254 62.1101 23.7778L71.0983 24.2388L80.0865 24.6997C80.1109 24.2241 80.1776 25.1289 79.2116 26.2559L72.3783 20.3988ZM71.0983 24.2388L62.1045 23.9057L61.5285 39.4577L70.5223 39.7908L79.5161 40.1239L80.0921 24.5719L71.0983 24.2388ZM70.5223 39.7908L61.537 39.2773C61.3729 42.1485 61.8999 46.6674 65.7846 49.9048L71.5463 42.9908L77.308 36.0768C78.392 36.9801 79.0001 38.074 79.2861 38.9678C79.5437 39.7728 79.508 40.2971 79.5076 40.3042L70.5223 39.7908ZM71.5463 42.9908L66.0208 50.0949C69.0028 52.4142 72.4014 52.9004 75.0274 52.8184L74.7463 43.8228L74.4652 34.8272C74.3605 34.8304 75.6258 34.762 77.0718 35.8866L71.5463 42.9908ZM74.7463 43.8228L74.907 52.8213L78.491 52.7573L78.3303 43.7588L78.1696 34.7602L74.5856 34.8242L74.7463 43.8228ZM78.3303 43.7588L78.5949 52.7549C81.3427 52.6741 85.1424 51.9007 88.0841 48.775L81.5303 42.6068L74.9765 36.4385C75.7329 35.6348 76.5554 35.192 77.1698 34.9708C77.4631 34.8652 77.6958 34.8142 77.8423 34.7893C77.9167 34.7767 77.9732 34.7701 78.0097 34.7667C78.0462 34.7632 78.0654 34.7627 78.0657 34.7627L78.3303 43.7588ZM81.5303 42.6068L88.0734 48.7864C91.1653 45.5127 91.6362 41.2116 91.7385 38.7574L82.7463 38.3828L73.7541 38.0081C73.7304 38.5767 73.6728 38.6821 73.7295 38.485C73.7789 38.3134 74.057 37.4121 74.9872 36.4272L81.5303 42.6068ZM82.7463 38.3828L91.7369 38.7948L92.4409 23.4348L83.4503 23.0228L74.4597 22.6107L73.7557 37.9707L82.7463 38.3828ZM83.4503 23.0228L92.4396 23.4613C92.5936 20.3044 91.8946 14.9247 86.7858 11.815L82.1063 19.5028L77.4268 27.1906C76.0511 26.3532 75.1878 25.1345 74.7703 24.0411C74.4117 23.1018 74.4653 22.4953 74.461 22.5843L83.4503 23.0228ZM82.1063 19.5028L86.7858 11.815C83.9499 10.0888 80.87 9.57448 78.0249 9.7523L78.5863 18.7348L79.1477 27.7172C79.1122 27.7195 78.9029 27.7282 78.5718 27.6559C78.2278 27.5809 77.827 27.4341 77.4268 27.1906L82.1063 19.5028ZM78.5863 18.7348L77.9876 9.7547L75.1076 9.9467L75.7063 18.9268L76.305 27.9068L79.185 27.7148L78.5863 18.7348ZM116.505 10.0948V1.09477H116.461L116.417 1.0952L116.505 10.0948ZM122.009 10.6068L120.057 19.3925L120.196 19.4234L120.336 19.4499L122.009 10.6068ZM128.217 15.3428L136.61 12.0938L136.61 12.0938L128.217 15.3428ZM129.113 20.2708L120.122 20.6617L120.122 20.6704L129.113 20.2708ZM129.369 26.0308L138.366 25.7876L138.364 25.7094L138.36 25.6312L129.369 26.0308ZM128.857 30.1268L120.319 27.2807L120.271 27.4246L120.228 27.57L128.857 30.1268ZM127.257 33.0708L120.55 27.0696L120.54 27.0805L120.531 27.0915L127.257 33.0708ZM124.825 34.8628L121.101 26.6695H121.101L124.825 34.8628ZM121.817 35.7588L120.395 26.8718L110.358 28.4778L113.168 38.2469L121.817 35.7588ZM123.161 40.4308L132.016 38.8208L131.935 38.3766L131.811 37.9426L123.161 40.4308ZM123.737 41.5188L129.594 34.6855L129.594 34.6855L123.737 41.5188ZM125.465 42.0948L126.879 33.2065L126.84 33.2003L126.8 33.1943L125.465 42.0948ZM131.097 42.9908L129.683 51.879L129.706 51.8826L129.729 51.8861L131.097 42.9908ZM132.249 43.7588L124.199 47.7837L124.199 47.7837L132.249 43.7588ZM132.441 45.2948L123.532 44.022L123.523 44.0845L123.515 44.1471L132.441 45.2948ZM131.865 49.7748L140.786 50.9642L140.789 50.9434L140.792 50.9225L131.865 49.7748ZM130.905 51.1828L126.638 43.2585L126.503 43.3314L126.37 43.4088L130.905 51.1828ZM129.049 51.3748L131.111 42.614L130.945 42.575L130.777 42.5422L129.049 51.3748ZM123.161 50.2228L124.889 41.3902L124.765 41.366L124.641 41.3452L123.161 50.2228ZM120.921 49.6468L117.761 58.0737L117.843 58.1045L117.926 58.1337L120.921 49.6468ZM119.001 48.6228L113.441 55.6996L113.603 55.8268L113.77 55.9464L119.001 48.6228ZM117.401 46.8308L109.644 51.394L109.741 51.5591L109.845 51.72L117.401 46.8308ZM116.377 44.0788L107.598 46.0591L107.603 46.0808L107.608 46.1025L116.377 44.0788ZM114.457 35.5668L123.237 33.5864L121.615 26.3979L114.248 26.5692L114.457 35.5668ZM111.705 35.6308V44.6308H111.81L111.915 44.6283L111.705 35.6308ZM110.681 36.9108H101.681V37.2318L101.704 37.552L110.681 36.9108ZM111.513 48.5588L120.505 48.1841L120.5 48.0507L120.49 47.9175L111.513 48.5588ZM110.169 50.0948V41.0948H110.03L109.891 41.0991L110.169 50.0948ZM103.961 50.2868L103.683 41.2911L103.477 41.2975L103.271 41.3133L103.961 50.2868ZM102.297 48.9428L93.3016 48.666L93.2973 48.8043V48.9428H102.297ZM103.193 19.8228L112.189 20.0996L112.193 19.9612V19.8228H103.193ZM102.425 19.2468L100.946 10.3692L100.843 10.3863L100.741 10.4057L102.425 19.2468ZM98.3933 20.0148L96.7093 11.1737L96.6241 11.19L96.5392 11.2078L98.3933 20.0148ZM96.6013 19.8228L90.622 26.5495L90.8427 26.7456L91.0758 26.9269L96.6013 19.8228ZM95.8973 17.9028L86.9232 18.5856L86.9283 18.6516L86.9343 18.7176L95.8973 17.9028ZM95.4493 12.0148L104.423 11.332L104.423 11.3245L95.4493 12.0148ZM95.7053 10.7348L88.3817 5.50361L88.3817 5.50364L95.7053 10.7348ZM96.9853 10.2868V19.2868H97.0296L97.0738 19.2863L96.9853 10.2868ZM119.833 21.9988L128.827 21.6529L128.825 21.6011L128.822 21.5493L119.833 21.9988ZM118.425 18.5428L113.087 25.7883L113.175 25.8531L113.264 25.9159L118.425 18.5428ZM109.593 18.0308L115.355 24.9448L115.403 24.9048L115.45 24.8641L109.593 18.0308ZM109.209 19.1828L118.207 19.3813L118.209 19.282V19.1828H109.209ZM109.017 27.8868L118.009 28.2777L118.013 28.1815L118.015 28.0853L109.017 27.8868ZM109.529 29.7428L104.537 37.2312L104.715 37.35L104.899 37.4602L109.529 29.7428ZM111.321 30.0628L111.821 39.0489H111.821L111.321 30.0628ZM115.929 29.8068L115.583 20.8134L115.507 20.8164L115.43 20.8206L115.929 29.8068ZM118.809 28.8468L113.648 21.4737L113.559 21.5364L113.471 21.6013L118.809 28.8468ZM119.961 25.3268L110.968 25.6727L110.97 25.719L110.972 25.7653L119.961 25.3268ZM116.505 10.0948V19.0948C118.197 19.0948 119.343 19.2337 120.057 19.3925L122.009 10.6068L123.962 1.82109C121.604 1.29717 119.08 1.09477 116.505 1.09477V10.0948ZM122.009 10.6068L120.336 19.4499C120.612 19.5021 120.739 19.5516 120.756 19.5585C120.768 19.5635 120.67 19.5242 120.513 19.4068L125.913 12.2068L131.313 5.00677C128.945 3.23017 126.276 2.25441 123.682 1.76364L122.009 10.6068ZM125.913 12.2068L120.513 19.4068C120.31 19.2541 120.136 19.0744 120.004 18.8955C119.877 18.7216 119.828 18.6024 119.824 18.5917L128.217 15.3428L136.61 12.0938C135.558 9.37522 133.828 6.8928 131.313 5.00677L125.913 12.2068ZM128.217 15.3428L119.824 18.5917C119.875 18.724 120.064 19.3295 120.122 20.6617L129.113 20.2708L138.105 19.8798C137.992 17.2867 137.583 14.6069 136.61 12.0938L128.217 15.3428ZM129.113 20.2708L120.122 20.6704L120.378 26.4304L129.369 26.0308L138.36 25.6312L138.104 19.8712L129.113 20.2708ZM129.369 26.0308L120.373 26.2739C120.395 27.1025 120.289 27.3725 120.319 27.2807L128.857 30.1268L137.395 32.9728C138.194 30.5771 138.429 28.1163 138.366 25.7876L129.369 26.0308ZM128.857 30.1268L120.228 27.57C120.223 27.5873 120.238 27.5319 120.294 27.4291C120.351 27.3238 120.436 27.1975 120.55 27.0696L127.257 33.0708L133.964 39.0719C135.666 37.1697 136.807 34.9769 137.486 32.6836L128.857 30.1268ZM127.257 33.0708L120.531 27.0915C120.598 27.0158 120.688 26.9307 120.799 26.8493C120.909 26.7679 121.014 26.7089 121.101 26.6695L124.825 34.8628L128.55 43.0561C130.629 42.111 132.463 40.761 133.984 39.05L127.257 33.0708ZM124.825 34.8628L121.101 26.6695C120.93 26.7474 120.705 26.8223 120.395 26.8718L121.817 35.7588L123.239 44.6457C125.063 44.3539 126.844 43.8314 128.55 43.0561L124.825 34.8628ZM121.817 35.7588L113.168 38.2469L114.512 42.9189L123.161 40.4308L131.811 37.9426L130.467 33.2706L121.817 35.7588ZM123.161 40.4308L114.306 42.0407C114.68 44.0959 115.698 46.4818 117.88 48.3521L123.737 41.5188L129.594 34.6855C131.179 36.0437 131.813 37.7043 132.016 38.8208L123.161 40.4308ZM123.737 41.5188L117.88 48.3521C120.286 50.4142 123.17 50.8511 124.13 50.9952L125.465 42.0948L126.8 33.1943C126.692 33.178 126.878 33.1961 127.239 33.3166C127.431 33.3804 127.739 33.4953 128.116 33.6884C128.487 33.8784 129.019 34.1924 129.594 34.6855L123.737 41.5188ZM125.465 42.0948L124.051 50.983L129.683 51.879L131.097 42.9908L132.511 34.1025L126.879 33.2065L125.465 42.0948ZM131.097 42.9908L129.729 51.8861C128.985 51.7716 127.918 51.4743 126.809 50.7352C125.653 49.9644 124.769 48.9221 124.199 47.7837L132.249 43.7588L140.299 39.7339C138.538 36.2107 135.324 34.5351 132.466 34.0954L131.097 42.9908ZM132.249 43.7588L124.199 47.7837C123.401 46.1864 123.427 44.7559 123.532 44.022L132.441 45.2948L141.351 46.5676C141.626 44.639 141.524 42.1844 140.299 39.7338L132.249 43.7588ZM132.441 45.2948L123.515 44.1471L122.939 48.6271L131.865 49.7748L140.792 50.9225L141.368 46.4425L132.441 45.2948ZM131.865 49.7748L122.944 48.5853C123.062 47.7051 123.392 46.6117 124.125 45.5367C124.863 44.4545 125.787 43.7172 126.638 43.2585L130.905 51.1828L135.172 59.107C138.343 57.3998 140.331 54.3812 140.786 50.9642L131.865 49.7748ZM130.905 51.1828L126.37 43.4088C128.327 42.2672 130.195 42.3987 131.111 42.614L129.049 51.3748L126.988 60.1355C129.354 60.6922 132.459 60.6957 135.44 58.9568L130.905 51.1828ZM129.049 51.3748L130.777 42.5422L124.889 41.3902L123.161 50.2228L121.433 59.0553L127.321 60.2073L129.049 51.3748ZM123.161 50.2228L124.641 41.3452C124.382 41.3021 124.143 41.2397 123.917 41.1599L120.921 49.6468L117.926 58.1337C119.15 58.5658 120.404 58.8874 121.682 59.1003L123.161 50.2228ZM120.921 49.6468L124.081 41.2198C124.107 41.2293 124.135 41.242 124.165 41.2576C124.194 41.2731 124.217 41.288 124.232 41.2992L119.001 48.6228L113.77 55.9464C115.002 56.8265 116.338 57.54 117.761 58.0737L120.921 49.6468ZM119.001 48.6228L124.562 41.5459C124.845 41.7685 124.96 41.9454 124.957 41.9415L117.401 46.8308L109.845 51.72C110.781 53.1668 111.963 54.5384 113.441 55.6996L119.001 48.6228ZM117.401 46.8308L125.159 42.2676C125.251 42.4253 125.276 42.5028 125.26 42.4602C125.245 42.4185 125.201 42.2907 125.147 42.055L116.377 44.0788L107.608 46.1025C108.002 47.8119 108.621 49.6556 109.644 51.394L117.401 46.8308ZM116.377 44.0788L125.157 42.0984L123.237 33.5864L114.457 35.5668L105.678 37.5471L107.598 46.0591L116.377 44.0788ZM114.457 35.5668L114.248 26.5692L111.496 26.6332L111.705 35.6308L111.915 44.6283L114.667 44.5643L114.457 35.5668ZM111.705 35.6308V26.6308C109.378 26.6308 106.206 27.4577 103.909 30.3285C101.92 32.8159 101.681 35.5225 101.681 36.9108H110.681H119.681C119.681 37.4457 119.614 39.5123 117.965 41.573C116.01 44.0172 113.35 44.6308 111.705 44.6308V35.6308ZM110.681 36.9108L101.704 37.552L102.536 49.2L111.513 48.5588L120.49 47.9175L119.658 36.2695L110.681 36.9108ZM111.513 48.5588L102.521 48.9334C102.494 48.2824 102.523 45.9701 104.436 43.7842C106.498 41.428 109.071 41.0948 110.169 41.0948V50.0948V59.0948C112.206 59.0948 115.473 58.5056 117.982 55.6373C120.343 52.9394 120.575 49.8592 120.505 48.1841L111.513 48.5588ZM110.169 50.0948L109.891 41.0991L103.683 41.2911L103.961 50.2868L104.24 59.2825L110.448 59.0905L110.169 50.0948ZM103.961 50.2868L103.271 41.3133C103.769 41.275 106.085 41.1687 108.368 43.0133C110.925 45.0786 111.297 47.7969 111.297 48.9428H102.297H93.2973C93.2973 51.07 93.9466 54.503 97.0583 57.0162C99.8968 59.3089 103.045 59.3839 104.652 59.2603L103.961 50.2868ZM102.297 48.9428L111.293 49.2196L112.189 20.0996L103.193 19.8228L94.1976 19.546L93.3016 48.666L102.297 48.9428ZM103.193 19.8228H112.193C112.193 18.138 111.711 14.609 108.401 12.1268C105.376 9.85766 102.174 10.1646 100.946 10.3692L102.425 19.2468L103.905 28.1243C103.189 28.2436 100.371 28.6039 97.6013 26.5268C94.5477 24.2365 94.1933 21.0382 94.1933 19.8228H103.193ZM102.425 19.2468L100.741 10.4057L96.7093 11.1737L98.3933 20.0148L100.077 28.8558L104.109 28.0878L102.425 19.2468ZM98.3933 20.0148L96.5392 11.2078C96.7344 11.1667 97.375 11.0473 98.2961 11.146C99.2713 11.2505 100.719 11.6235 102.127 12.7186L96.6013 19.8228L91.0758 26.9269C94.6379 29.6974 98.597 29.1692 100.247 28.8217L98.3933 20.0148ZM96.6013 19.8228L102.581 13.0961C103.802 14.1822 104.354 15.3524 104.587 15.9885C104.82 16.6241 104.857 17.0512 104.86 17.0879L95.8973 17.9028L86.9343 18.7176C87.0717 20.2293 87.576 23.8419 90.622 26.5495L96.6013 19.8228ZM95.8973 17.9028L104.871 17.22L104.423 11.332L95.4493 12.0148L86.4752 12.6976L86.9232 18.5856L95.8973 17.9028ZM95.4493 12.0148L104.423 11.3245C104.462 11.8338 104.538 13.8529 103.029 15.9659L95.7053 10.7348L88.3817 5.50364C86.4457 8.21399 86.3513 11.0864 86.4758 12.705L95.4493 12.0148ZM95.7053 10.7348L103.029 15.9659C101.829 17.6464 100.286 18.4988 99.1584 18.8935C98.1092 19.2607 97.2912 19.2868 96.9853 19.2868V10.2868V1.28677C95.5547 1.28677 91.222 1.52721 88.3817 5.50361L95.7053 10.7348ZM96.9853 10.2868L97.0738 19.2863L116.594 19.0943L116.505 10.0948L116.417 1.0952L96.8968 1.2872L96.9853 10.2868ZM119.833 21.9988L128.822 21.5493C128.686 18.8304 127.85 14.1542 123.586 11.1697L118.425 18.5428L113.264 25.9159C112.017 25.0428 111.373 23.9624 111.082 23.2504C110.822 22.6102 110.835 22.2558 110.845 22.4482L119.833 21.9988ZM118.425 18.5428L123.764 11.2973C120.941 9.21678 117.774 8.64677 115.161 8.64677V17.6468V26.6468C115.279 26.6468 114.289 26.6741 113.087 25.7883L118.425 18.5428ZM115.161 17.6468V8.64677H110.745V17.6468V26.6468H115.161V17.6468ZM110.745 17.6468V8.64677C108.562 8.64677 105.968 9.28414 103.736 11.1975L109.593 18.0308L115.45 24.8641C113.816 26.2654 111.989 26.6468 110.745 26.6468V17.6468ZM109.593 18.0308L103.832 11.1168C100.489 13.9019 100.209 17.6855 100.209 19.1828H109.209H118.209C118.209 19.5406 118.175 20.3296 117.843 21.3248C117.492 22.3785 116.764 23.7705 115.355 24.9448L109.593 18.0308ZM109.209 19.1828L100.211 18.9843L100.019 27.6883L109.017 27.8868L118.015 28.0853L118.207 19.3813L109.209 19.1828ZM109.017 27.8868L100.026 27.4958C99.9829 28.4826 100.007 29.9187 100.437 31.4801C100.874 33.0637 101.95 35.5063 104.537 37.2312L109.529 29.7428L114.522 22.2543C116.725 23.7232 117.523 25.7286 117.789 26.6934C118.049 27.6362 118.009 28.2723 118.009 28.2777L109.017 27.8868ZM109.529 29.7428L104.899 37.4602C107.501 39.0218 110.166 39.1408 111.821 39.0489L111.321 30.0628L110.822 21.0766C110.959 21.069 111.338 21.0582 111.879 21.1549C112.429 21.253 113.254 21.4819 114.16 22.0253L109.529 29.7428ZM111.321 30.0628L111.821 39.0489L116.429 38.7929L115.929 29.8068L115.43 20.8206L110.822 21.0766L111.321 30.0628ZM115.929 29.8068L116.275 38.8001C118.994 38.6956 121.738 37.8681 124.148 36.0923L118.809 28.8468L113.471 21.6013C113.827 21.3385 114.226 21.1329 114.635 20.9966C115.037 20.8627 115.369 20.8217 115.583 20.8134L115.929 29.8068ZM118.809 28.8468L123.97 36.2199C128.72 32.8953 129.082 27.5837 128.951 24.8883L119.961 25.3268L110.972 25.7653C110.982 25.966 110.923 25.5147 111.184 24.7194C111.482 23.8086 112.198 22.4885 113.648 21.4737L118.809 28.8468ZM119.961 25.3268L128.955 24.9809L128.827 21.6529L119.833 21.9988L110.84 22.3447L110.968 25.6727L119.961 25.3268ZM144.703 46.7028L135.723 47.3014L135.728 47.3759L135.734 47.4502L144.703 46.7028ZM144.255 48.8788L150.619 55.2427L150.787 55.0754L150.945 54.8995L144.255 48.8788ZM142.271 49.5828L142.785 58.5681L142.936 58.5595L143.086 58.5458L142.271 49.5828ZM137.791 49.8388L137.278 40.8534L137.18 40.859L137.083 40.8667L137.791 49.8388ZM135.167 47.9188L126.193 48.5976L126.198 48.6657L126.204 48.7336L135.167 47.9188ZM132.543 13.2308L141.518 12.5519L141.508 12.4201L141.494 12.2886L132.543 13.2308ZM132.991 11.5028L138.971 18.2294L139.168 18.0537L139.355 17.8667L132.991 11.5028ZM134.527 10.9908L133.929 19.9708L134.058 19.9795L134.188 19.9844L134.527 10.9908ZM141.311 11.2468L141.84 2.2623L141.745 2.25674L141.651 2.25317L141.311 11.2468ZM142.911 11.8228L136.547 18.1867L136.944 18.5829L137.386 18.9269L142.911 11.8228ZM143.487 13.4868H134.487V13.545L134.488 13.6031L143.487 13.4868ZM143.679 28.3348L134.68 28.4511L134.803 37.9262L144.259 37.3161L143.679 28.3348ZM147.647 28.0788L148.227 37.0601L153.999 36.6877L156.058 31.2827L147.647 28.0788ZM153.279 13.2948L144.923 9.95224L144.895 10.0213L144.869 10.0908L153.279 13.2948ZM154.175 11.9508L159.575 19.1507L159.638 19.1034L159.701 19.055L154.175 11.9508ZM156.031 11.4388L155.778 2.44234L155.68 2.4451L155.582 2.45L156.031 11.4388ZM160.575 11.3108L160.829 20.3072L161.023 20.3017L161.217 20.2879L160.575 11.3108ZM161.855 11.6948L155.022 17.5519L155.247 17.8143L155.491 18.0587L161.855 11.6948ZM162.047 13.8708L153.509 11.0247L153.4 11.3526L153.316 11.6879L162.047 13.8708ZM161.663 14.8948L153.613 10.8698L153.555 10.9859L153.501 11.1036L161.663 14.8948ZM155.391 28.3988L147.229 24.6076L142.126 35.595L154.118 37.3083L155.391 28.3988ZM156.991 29.0388L151.698 36.3174L152.065 36.5842L152.456 36.8128L156.991 29.0388ZM158.335 30.1268L151.646 36.1475L151.804 36.3234L151.971 36.4907L158.335 30.1268ZM159.295 31.4068L151.394 35.7164L151.634 36.1569L151.922 36.5679L159.295 31.4068ZM159.935 32.6228L151.397 35.4688L151.451 35.6312L151.512 35.7914L159.935 32.6228ZM165.183 46.5748L156.76 49.7434L156.792 49.8307L156.827 49.9173L165.183 46.5748ZM165.183 48.2388L157.282 43.9291L157.205 44.0702L157.133 44.2139L165.183 48.2388ZM164.287 48.9428L164.929 57.9199L165.105 57.9073L165.281 57.8877L164.287 48.9428ZM158.015 49.3908L157.374 40.4136L157.223 40.4244L157.073 40.4402L158.015 49.3908ZM156.223 49.1348L150.698 56.2389L150.957 56.4408L151.231 56.6232L156.223 49.1348ZM155.327 47.6628L146.728 50.317L146.732 50.3321L146.737 50.3472L155.327 47.6628ZM152.127 37.2948L160.727 34.6405L160.724 34.6309L160.721 34.6212L152.127 37.2948ZM147.583 34.7988L146.641 25.8482L147.583 34.7988ZM143.935 35.1828L142.993 26.2322L134.379 27.139L134.955 35.7814L143.935 35.1828ZM144.703 46.7028L135.734 47.4502C135.731 47.4105 135.689 46.9347 135.84 46.1999C135.996 45.4414 136.421 44.1303 137.566 42.8581L144.255 48.8788L150.945 54.8995C153.902 51.6136 153.813 47.6472 153.672 45.9554L144.703 46.7028ZM144.255 48.8788L137.891 42.5148C138.88 41.5257 139.886 41.0653 140.462 40.8609C141.034 40.6577 141.415 40.6235 141.456 40.6197L142.271 49.5828L143.086 58.5458C144.725 58.3968 147.989 57.8726 150.619 55.2427L144.255 48.8788ZM142.271 49.5828L141.758 40.5974L137.278 40.8534L137.791 49.8388L138.305 58.8241L142.785 58.5681L142.271 49.5828ZM137.791 49.8388L137.083 40.8667C137.38 40.8432 139.244 40.7356 141.234 42.1915C143.473 43.8301 144.036 46.067 144.13 47.104L135.167 47.9188L126.204 48.7336C126.427 51.1785 127.491 54.4395 130.605 56.718C133.469 58.8139 136.581 58.9623 138.5 58.8109L137.791 49.8388ZM135.167 47.9188L144.142 47.2399L141.518 12.5519L132.543 13.2308L123.569 13.9096L126.193 48.5976L135.167 47.9188ZM132.543 13.2308L141.494 12.2886C141.53 12.636 141.79 15.7231 138.971 18.2294L132.991 11.5028L127.012 4.77609C123.424 7.96506 123.386 12.2042 123.593 14.1729L132.543 13.2308ZM132.991 11.5028L139.355 17.8667C138.566 18.6563 137.587 19.2656 136.509 19.6249C135.469 19.9718 134.559 20.0129 133.929 19.9708L134.527 10.9908L135.126 2.0107C132.412 1.82978 129.183 2.58337 126.627 5.13881L132.991 11.5028ZM134.527 10.9908L134.188 19.9844L140.972 20.2404L141.311 11.2468L141.651 2.25317L134.867 1.99717L134.527 10.9908ZM141.311 11.2468L140.783 20.2312C140.386 20.2079 138.389 20.0281 136.547 18.1867L142.911 11.8228L149.275 5.45881C146.751 2.93475 143.687 2.37097 141.84 2.2623L141.311 11.2468ZM142.911 11.8228L137.386 18.9269C135.942 17.8038 135.193 16.4317 134.838 15.4068C134.508 14.4525 134.487 13.7298 134.487 13.4868H143.487H152.487C152.487 11.7214 152.133 7.59357 148.437 4.71861L142.911 11.8228ZM143.487 13.4868L134.488 13.6031L134.68 28.4511L143.679 28.3348L152.679 28.2184L152.487 13.3704L143.487 13.4868ZM143.679 28.3348L144.259 37.3161L148.227 37.0601L147.647 28.0788L147.068 19.0974L143.1 19.3534L143.679 28.3348ZM147.647 28.0788L156.058 31.2827L161.69 16.4987L153.279 13.2948L144.869 10.0908L139.237 24.8748L147.647 28.0788ZM153.279 13.2948L161.636 16.6373C161.593 16.7437 161.46 17.0561 161.184 17.4711C160.909 17.8835 160.403 18.5301 159.575 19.1507L154.175 11.9508L148.775 4.75079C146.534 6.43171 145.451 8.6312 144.923 9.95224L153.279 13.2948ZM154.175 11.9508L159.701 19.055C158.716 19.8207 157.804 20.1414 157.321 20.2747C156.826 20.4111 156.51 20.4261 156.481 20.4275L156.031 11.4388L155.582 2.45C154.115 2.52333 151.231 2.83869 148.65 4.84658L154.175 11.9508ZM156.031 11.4388L156.285 20.4352L160.829 20.3072L160.575 11.3108L160.322 2.31434L155.778 2.44234L156.031 11.4388ZM160.575 11.3108L161.217 20.2879C160.503 20.3388 157.436 20.3684 155.022 17.5519L161.855 11.6948L168.689 5.83767C165.762 2.42376 161.842 2.19737 159.934 2.33364L160.575 11.3108ZM161.855 11.6948L155.491 18.0587C153.601 16.1683 153.239 13.9623 153.239 12.7828H162.239H171.239C171.239 10.6645 170.622 7.73328 168.219 5.33079L161.855 11.6948ZM162.239 12.7828H153.239C153.239 11.9962 153.387 11.3925 153.509 11.0247L162.047 13.8708L170.585 16.7168C170.964 15.581 171.239 14.252 171.239 12.7828H162.239ZM162.047 13.8708L153.316 11.6879C153.403 11.3411 153.515 11.0667 153.613 10.8698L161.663 14.8948L169.713 18.9197C170.153 18.0401 170.521 17.0831 170.779 16.0536L162.047 13.8708ZM161.663 14.8948L153.501 11.1036L147.229 24.6076L155.391 28.3988L163.554 32.1899L169.826 18.6859L161.663 14.8948ZM155.391 28.3988L154.118 37.3083C153.322 37.1946 152.464 36.8743 151.698 36.3174L156.991 29.0388L162.285 21.7602C160.58 20.5205 158.655 19.7736 156.664 19.4892L155.391 28.3988ZM156.991 29.0388L152.456 36.8128C152.19 36.6575 151.905 36.4357 151.646 36.1475L158.335 30.1268L165.025 24.1061C163.998 22.9645 162.816 22.0174 161.526 21.2648L156.991 29.0388ZM158.335 30.1268L151.971 36.4907C151.757 36.2766 151.556 36.0137 151.394 35.7164L159.295 31.4068L167.196 27.0971C166.522 25.8611 165.681 24.7449 164.699 23.7628L158.335 30.1268ZM159.295 31.4068L151.922 36.5679C151.858 36.4757 151.609 36.1054 151.397 35.4688L159.935 32.6228L168.473 29.7767C168.005 28.3722 167.33 27.1912 166.668 26.2456L159.295 31.4068ZM159.935 32.6228L151.512 35.7914L156.76 49.7434L165.183 46.5748L173.607 43.4062L168.359 29.4542L159.935 32.6228ZM165.183 46.5748L156.827 49.9173C156.629 49.4234 156.375 48.5793 156.375 47.4708C156.375 46.3009 156.662 45.067 157.282 43.9291L165.183 48.2388L173.084 52.5484C174.978 49.0759 174.481 45.5859 173.54 43.2323L165.183 46.5748ZM165.183 48.2388L157.133 44.2139C157.473 43.5341 158.111 42.5439 159.239 41.6579C160.432 40.7207 161.849 40.1583 163.293 39.9978L164.287 48.9428L165.281 57.8877C169.433 57.4264 172.021 54.6875 173.233 52.2637L165.183 48.2388ZM164.287 48.9428L163.646 39.9656L157.374 40.4136L158.015 49.3908L158.657 58.3679L164.929 57.9199L164.287 48.9428ZM158.015 49.3908L157.073 40.4402C157.166 40.4305 157.592 40.3898 158.232 40.4812C158.871 40.5725 160.001 40.8364 161.216 41.6463L156.223 49.1348L151.231 56.6232C154.272 58.6508 157.496 58.4952 158.957 58.3413L158.015 49.3908ZM156.223 49.1348L161.749 42.0306C163.347 43.274 163.828 44.6917 163.918 44.9783L155.327 47.6628L146.737 50.3472C147.253 51.9991 148.331 54.3983 150.698 56.2389L156.223 49.1348ZM155.327 47.6628L163.927 45.0085L160.727 34.6405L152.127 37.2948L143.528 39.949L146.728 50.317L155.327 47.6628ZM152.127 37.2948L160.721 34.6212C159.852 31.8279 158.008 29.0626 154.876 27.3425C151.968 25.7452 148.953 25.6049 146.641 25.8482L147.583 34.7988L148.525 43.7493C148.646 43.7366 147.604 43.8844 146.21 43.1191C144.593 42.2309 143.805 40.8416 143.534 39.9684L152.127 37.2948ZM147.583 34.7988L146.641 25.8482L142.993 26.2322L143.935 35.1828L144.877 44.1333L148.525 43.7493L147.583 34.7988ZM143.935 35.1828L134.955 35.7814L135.723 47.3014L144.703 46.7028L153.683 46.1041L152.915 34.5841L143.935 35.1828ZM172.394 31.9828L170.026 40.6656L170.031 40.6669L172.394 31.9828ZM167.594 29.2948L160.147 34.3483L160.252 34.5023L160.362 34.6518L167.594 29.2948ZM166.442 24.6228L175.44 24.8227L175.44 24.8142L166.442 24.6228ZM166.506 21.6148L175.504 21.8062L175.506 21.7105V21.6148H166.506ZM166.954 17.7108L158.325 15.154L158.293 15.2621L158.264 15.371L166.954 17.7108ZM168.618 14.8308L174.982 21.1947L168.618 14.8308ZM171.69 13.1028L169.181 4.45965L169.143 4.47082L169.104 4.48233L171.69 13.1028ZM176.682 12.3988L176.377 3.40394L176.339 3.40525L176.3 3.40691L176.682 12.3988ZM184.234 12.1428L184.539 21.1376L184.567 21.1367L184.594 21.1356L184.234 12.1428ZM189.546 12.4628L191.414 3.65866L191.414 3.65866L189.546 12.4628ZM192.874 13.7428L187.792 21.1705L188.014 21.3221L188.244 21.4602L192.874 13.7428ZM195.498 18.1588L204.425 17.0143L204.417 16.9501L204.408 16.886L195.498 18.1588ZM195.818 20.6548L186.891 21.7992L186.9 21.8635L186.909 21.9276L195.818 20.6548ZM193.002 24.3668L193.672 33.3418L193.785 33.3334L193.898 33.3221L193.002 24.3668ZM188.714 24.6868L188.045 15.7117L187.99 15.7158L187.935 15.7206L188.714 24.6868ZM185.706 23.0868L176.791 24.3165L176.8 24.386L176.811 24.4553L185.706 23.0868ZM185.45 21.2308L194.366 20.001L194.363 19.9795L194.36 19.958L185.45 21.2308ZM184.554 19.5028L179.722 27.0957L179.978 27.2586L180.245 27.4038L184.554 19.5028ZM182.57 19.1188L182.121 10.13H182.121L182.57 19.1188ZM180.01 19.2468L180.419 28.2375L180.439 28.2366L180.46 28.2355L180.01 19.2468ZM177.066 21.8708L168.078 21.4098L168.074 21.4852L168.072 21.5606L177.066 21.8708ZM177.002 23.7268L168.008 23.4166L168.002 23.5716V23.7268H177.002ZM177.642 25.9028L171.278 32.2667L171.43 32.4182L171.588 32.5622L177.642 25.9028ZM179.882 26.9908L177.362 35.6308L177.453 35.6572L177.544 35.6818L179.882 26.9908ZM190.826 29.9348L188.488 38.6258L188.521 38.6347L188.555 38.6433L190.826 29.9348ZM195.37 32.6228L188.456 38.3844L188.561 38.5095L188.669 38.6307L195.37 32.6228ZM196.842 37.5508L187.86 36.9894L187.859 37.0058L187.858 37.0223L196.842 37.5508ZM196.522 42.9908L187.538 42.4623L187.537 42.4769L187.536 42.4915L196.522 42.9908ZM194.026 48.3028L199.552 55.4069L199.612 55.3598L199.672 55.3116L194.026 48.3028ZM187.05 49.9028L186.674 58.8949L186.681 58.8952L187.05 49.9028ZM173.29 49.3268L173.667 40.3346L173.594 40.3316L173.521 40.3297L173.29 49.3268ZM169.194 48.7508L166.348 57.2889L166.4 57.3061L166.451 57.3226L169.194 48.7508ZM166.762 47.3428L159.961 53.2371L160.171 53.4797L160.398 53.7067L166.762 47.3428ZM165.61 45.0388L156.755 46.6487L156.799 46.8874L156.855 47.1234L165.61 45.0388ZM165.418 41.7748L156.428 41.3661L156.425 41.4153L156.424 41.4646L165.418 41.7748ZM165.61 37.5508L156.624 37.0515L156.622 37.0968L156.62 37.1421L165.61 37.5508ZM166.25 36.0148L171.243 43.5032L171.516 43.3208L171.776 43.1189L166.25 36.0148ZM167.722 35.6308L167.081 44.6079L167.175 44.6146L167.268 44.6193L167.722 35.6308ZM174.058 35.9508L173.604 44.9393L173.686 44.9434L173.768 44.9461L174.058 35.9508ZM175.914 37.8708L184.893 38.49V38.49L175.914 37.8708ZM175.786 39.7268L184.731 40.7207L184.752 40.5337L184.765 40.346L175.786 39.7268ZM176.362 41.3268L181.194 33.7338L181.194 33.7338L176.362 41.3268ZM178.154 41.8388L178.734 32.8574L178.708 32.8558L178.683 32.8543L178.154 41.8388ZM182.122 42.0948L182.813 33.1213L182.757 33.117L182.702 33.1134L182.122 42.0948ZM184.362 41.6468L190.726 48.0107V48.0107L184.362 41.6468ZM185.13 39.6628L194.09 40.5161L194.1 40.4101L194.107 40.304L185.13 39.6628ZM185.258 37.8708L176.292 37.0911L176.286 37.1603L176.281 37.2295L185.258 37.8708ZM184.618 35.7588L190.38 28.8448V28.8448L184.618 35.7588ZM182.506 34.7348L184.979 26.0811L184.924 26.0655L184.87 26.0506L182.506 34.7348ZM172.394 31.9828L174.762 23.2999C174.436 23.2108 174.199 23.1301 174.038 23.0676C173.877 23.0046 173.816 22.9695 173.832 22.9782C173.844 22.985 174.315 23.2475 174.826 23.9377L167.594 29.2948L160.362 34.6518C163.005 38.2192 166.964 39.8305 170.026 40.6656L172.394 31.9828ZM167.594 29.2948L175.042 24.2413C175.298 24.6186 175.402 24.934 175.437 25.0761C175.467 25.2013 175.433 25.1406 175.44 24.8227L166.442 24.6228L157.445 24.4228C157.374 27.6027 157.989 31.1681 160.147 34.3483L167.594 29.2948ZM166.442 24.6228L175.44 24.8142L175.504 21.8062L166.506 21.6148L157.508 21.4233L157.444 24.4313L166.442 24.6228ZM166.506 21.6148H175.506C175.506 20.6892 175.602 20.2085 175.645 20.0505L166.954 17.7108L158.264 15.371C157.709 17.4317 157.506 19.5536 157.506 21.6148H166.506ZM166.954 17.7108L175.583 20.2676C175.57 20.3145 175.524 20.4471 175.419 20.6293C175.312 20.8152 175.165 21.0117 174.982 21.1947L168.618 14.8308L162.254 8.46681C160.317 10.4046 159.046 12.7199 158.325 15.154L166.954 17.7108ZM168.618 14.8308L174.982 21.1947C174.481 21.696 174.098 21.7766 174.276 21.7232L171.69 13.1028L169.104 4.48233C166.722 5.19695 164.292 6.42958 162.254 8.46681L168.618 14.8308ZM171.69 13.1028L174.2 21.7459C174.594 21.6315 175.484 21.4579 177.065 21.3906L176.682 12.3988L176.3 3.40691C173.87 3.51029 171.432 3.80606 169.181 4.45965L171.69 13.1028ZM176.682 12.3988L176.987 21.3936L184.539 21.1376L184.234 12.1428L183.929 3.14794L176.377 3.40394L176.682 12.3988ZM184.234 12.1428L184.594 21.1356C186.303 21.0672 187.263 21.1786 187.679 21.2669L189.546 12.4628L191.414 3.65866C189.014 3.14963 186.432 3.04765 183.875 3.14996L184.234 12.1428ZM189.546 12.4628L187.679 21.2669C187.841 21.3013 187.965 21.3331 188.054 21.3589C188.144 21.3848 188.192 21.4024 188.203 21.4069C188.215 21.4114 188.183 21.3996 188.114 21.3647C188.046 21.3298 187.934 21.2677 187.792 21.1705L192.874 13.7428L197.956 6.31501C195.833 4.86211 193.484 4.09776 191.414 3.65866L189.546 12.4628ZM192.874 13.7428L188.244 21.4602C187.868 21.2345 187.177 20.6815 186.68 19.6877L194.73 15.6628L202.78 11.6378C201.515 9.10808 199.588 7.27505 197.505 6.02533L192.874 13.7428ZM194.73 15.6628L186.68 19.6877C186.648 19.6222 186.624 19.5608 186.608 19.5095C186.593 19.4589 186.589 19.4305 186.589 19.4316L195.498 18.1588L204.408 16.886C204.15 15.0845 203.62 13.3169 202.78 11.6378L194.73 15.6628ZM195.498 18.1588L186.571 19.3032L186.891 21.7992L195.818 20.6548L204.745 19.5103L204.425 17.0143L195.498 18.1588ZM195.818 20.6548L186.909 21.9276C186.881 21.7352 186.809 21.0725 187.031 20.1382C187.274 19.1175 187.83 17.9634 188.814 16.9788L195.178 23.3428L201.542 29.7067C204.903 26.3459 205.118 22.1108 204.728 19.382L195.818 20.6548ZM195.178 23.3428L188.814 16.9788C189.211 16.5825 189.727 16.1986 190.354 15.9034C190.98 15.609 191.587 15.4634 192.107 15.4114L193.002 24.3668L193.898 33.3221C196.784 33.0335 199.452 31.7973 201.542 29.7067L195.178 23.3428ZM193.002 24.3668L192.333 15.3917L188.045 15.7117L188.714 24.6868L189.384 33.6618L193.672 33.3418L193.002 24.3668ZM188.714 24.6868L187.935 15.7206C187.942 15.72 188.013 15.7139 188.139 15.7155C188.263 15.717 188.471 15.7264 188.744 15.7665C189.255 15.8417 190.254 16.0634 191.37 16.7738L186.538 24.3668L181.706 31.9597C184.708 33.8701 187.891 33.7923 189.494 33.6529L188.714 24.6868ZM186.538 24.3668L191.37 16.7738C192.12 17.2508 192.898 17.954 193.524 18.9179C194.15 19.8799 194.47 20.8652 194.602 21.7183L185.706 23.0868L176.811 24.4553C177.287 27.5475 179.027 30.2547 181.706 31.9597L186.538 24.3668ZM185.706 23.0868L194.622 21.857L194.366 20.001L185.45 21.2308L176.535 22.4605L176.791 24.3165L185.706 23.0868ZM185.45 21.2308L194.36 19.958C194.104 18.169 193.141 13.9348 188.864 11.6017L184.554 19.5028L180.245 27.4038C178.597 26.5049 177.638 25.2287 177.141 24.2696C176.68 23.3818 176.568 22.692 176.541 22.5036L185.45 21.2308ZM184.554 19.5028L189.386 11.9098C186.705 10.2038 183.903 10.0409 182.121 10.13L182.57 19.1188L183.02 28.1075C182.906 28.1132 182.537 28.1234 181.996 28.0188C181.445 27.9121 180.619 27.6662 179.722 27.0957L184.554 19.5028ZM182.57 19.1188L182.121 10.13L179.561 10.258L180.01 19.2468L180.46 28.2355L183.02 28.1075L182.57 19.1188ZM180.01 19.2468L179.602 10.2561C177.465 10.3532 174.455 10.9508 171.878 13.2481C169.141 15.6874 168.209 18.8519 168.078 21.4098L177.066 21.8708L186.054 22.3317C186.009 23.2256 185.61 25.1208 183.855 26.6854C182.258 28.1081 180.678 28.2257 180.419 28.2375L180.01 19.2468ZM177.066 21.8708L168.072 21.5606L168.008 23.4166L177.002 23.7268L185.997 24.0369L186.061 22.1809L177.066 21.8708ZM177.002 23.7268H168.002C168.002 25.577 168.312 29.3006 171.278 32.2667L177.642 25.9028L184.006 19.5388C185.094 20.6269 185.584 21.7764 185.797 22.4993C186.001 23.1944 186.002 23.6617 186.002 23.7268H177.002ZM177.642 25.9028L171.588 32.5622C173.536 34.333 175.806 35.1769 177.362 35.6308L179.882 26.9908L182.402 18.3508C182.246 18.3052 182.298 18.3078 182.486 18.3992C182.662 18.4843 183.135 18.7329 183.696 19.2433L177.642 25.9028ZM179.882 26.9908L177.544 35.6818L188.488 38.6258L190.826 29.9348L193.164 21.2437L182.22 18.2997L179.882 26.9908ZM190.826 29.9348L188.555 38.6433C188.845 38.7192 188.916 38.775 188.852 38.7369C188.819 38.7176 188.76 38.6789 188.686 38.616C188.61 38.5526 188.532 38.4748 188.456 38.3844L195.37 32.6228L202.284 26.8611C199.774 23.8492 196.476 22.1073 193.098 21.2262L190.826 29.9348ZM195.37 32.6228L188.669 38.6307C188.309 38.2294 188.069 37.7677 187.947 37.3586C187.835 36.9854 187.87 36.8211 187.86 36.9894L196.842 37.5508L205.825 38.1122C206.066 34.258 205.152 30.0514 202.071 26.6149L195.37 32.6228ZM196.842 37.5508L187.858 37.0223L187.538 42.4623L196.522 42.9908L205.507 43.5193L205.827 38.0793L196.842 37.5508ZM196.522 42.9908L187.536 42.4915C187.525 42.6938 187.502 42.5489 187.657 42.2193C187.827 41.8578 188.093 41.5251 188.38 41.294L194.026 48.3028L199.672 55.3116C203.535 52.1996 205.265 47.8645 205.508 43.49L196.522 42.9908ZM194.026 48.3028L188.501 41.1986C188.975 40.8296 189.285 40.7883 189.118 40.8265C188.932 40.8692 188.407 40.9509 187.42 40.9104L187.05 49.9028L186.681 58.8952C190.719 59.0611 195.583 58.4941 199.552 55.4069L194.026 48.3028ZM187.05 49.9028L187.427 40.9106L173.667 40.3346L173.29 49.3268L172.914 58.3189L186.674 58.8949L187.05 49.9028ZM173.29 49.3268L173.521 40.3297C172.964 40.3154 172.554 40.2782 172.272 40.2385C171.984 40.198 171.889 40.1634 171.937 40.179L169.194 48.7508L166.451 57.3226C168.622 58.0173 170.914 58.2688 173.06 58.3238L173.29 49.3268ZM169.194 48.7508L172.04 40.2126C171.985 40.1941 172.5 40.3526 173.126 40.9788L166.762 47.3428L160.398 53.7067C162.219 55.5276 164.356 56.6248 166.348 57.2889L169.194 48.7508ZM166.762 47.3428L173.563 41.4484C174.039 41.9965 174.273 42.5676 174.366 42.9542L165.61 45.0388L156.855 47.1234C157.374 49.302 158.377 51.409 159.961 53.2371L166.762 47.3428ZM165.61 45.0388L174.465 43.4288C174.438 43.2781 174.386 42.858 174.413 42.0849L165.418 41.7748L156.424 41.4646C156.365 43.1662 156.442 44.9221 156.755 46.6487L165.61 45.0388ZM165.418 41.7748L174.409 42.1834L174.601 37.9594L165.61 37.5508L156.62 37.1421L156.428 41.3661L165.418 41.7748ZM165.61 37.5508L174.596 38.05C174.581 38.3202 174.515 39.0799 174.11 40.0523C173.673 41.1006 172.805 42.4615 171.243 43.5032L166.25 36.0148L161.258 28.5263C157.305 31.1618 156.72 35.3235 156.624 37.0515L165.61 37.5508ZM166.25 36.0148L171.776 43.1189C170.024 44.4813 168.165 44.6853 167.081 44.6079L167.722 35.6308L168.364 26.6536C166.085 26.4909 163.244 26.9509 160.725 28.9106L166.25 36.0148ZM167.722 35.6308L167.268 44.6193L173.604 44.9393L174.058 35.9508L174.512 26.9622L168.176 26.6422L167.722 35.6308ZM174.058 35.9508L173.768 44.9461C173.215 44.9282 171.002 44.7441 169.043 42.718C166.97 40.5729 166.874 38.142 166.936 37.2516L175.914 37.8708L184.893 38.49C185.04 36.3622 184.677 32.9927 181.985 30.2076C179.408 27.5415 176.225 27.016 174.348 26.9554L174.058 35.9508ZM175.914 37.8708L166.936 37.2515L166.808 39.1076L175.786 39.7268L184.765 40.346L184.893 38.49L175.914 37.8708ZM175.786 39.7268L166.841 38.7329C166.547 41.3791 167.058 46.0734 171.53 48.9197L176.362 41.3268L181.194 33.7338C182.676 34.6765 183.769 36.0837 184.334 37.6543C184.841 39.0625 184.788 40.2086 184.731 40.7207L175.786 39.7268ZM176.362 41.3268L171.53 48.9197C173.629 50.255 175.825 50.7173 177.626 50.8232L178.154 41.8388L178.683 32.8543C179.033 32.8749 180.035 32.9959 181.194 33.7338L176.362 41.3268ZM178.154 41.8388L177.575 50.8201L181.543 51.0761L182.122 42.0948L182.702 33.1134L178.734 32.8574L178.154 41.8388ZM182.122 42.0948L181.432 51.0683C182.467 51.1479 183.82 51.1639 185.279 50.872C186.721 50.5838 188.867 49.8704 190.726 48.0107L184.362 41.6468L177.998 35.2828C179.474 33.8071 181.055 33.3604 181.749 33.2215C182.462 33.079 182.887 33.127 182.813 33.1213L182.122 42.0948ZM184.362 41.6468L190.726 48.0107C193.208 45.5293 193.9 42.5077 194.09 40.5161L185.13 39.6628L176.171 38.8095C176.19 38.6099 176.37 36.9109 177.998 35.2828L184.362 41.6468ZM185.13 39.6628L194.107 40.304L194.235 38.512L185.258 37.8708L176.281 37.2295L176.153 39.0215L185.13 39.6628ZM185.258 37.8708L194.224 38.6504C194.436 36.217 194.097 31.9425 190.38 28.8448L184.618 35.7588L178.857 42.6728C176.163 40.4284 176.251 37.5619 176.292 37.0911L185.258 37.8708ZM184.618 35.7588L190.38 28.8448C188.602 27.363 186.633 26.5536 184.979 26.0811L182.506 34.7348L180.034 43.3885C180.073 43.3998 179.974 43.3752 179.78 43.2811C179.585 43.1866 179.249 42.9999 178.857 42.6728L184.618 35.7588ZM182.506 34.7348L184.87 26.0506L174.758 23.2986L172.394 31.9828L170.031 40.6669L180.143 43.4189L182.506 34.7348ZM217.879 12.9108L208.894 13.4393L208.895 13.4489L208.895 13.4585L217.879 12.9108ZM218.391 11.1828L212.027 4.8188L211.859 4.98616L211.701 5.16208L218.391 11.1828ZM220.119 10.5428V19.5428H220.164L220.209 19.5423L220.119 10.5428ZM226.519 10.4788V1.47877H226.474L226.429 1.47922L226.519 10.4788ZM228.631 12.0788L237.62 11.6478L237.618 11.599L237.615 11.5503L228.631 12.0788ZM230.423 49.4548L221.433 49.8858L221.437 49.9697L221.443 50.0535L230.423 49.4548ZM228.247 51.3108L227.872 60.303L227.934 60.3056L227.997 60.3073L228.247 51.3108ZM223.639 51.1188L222.824 60.0818L223.044 60.1018L223.264 60.111L223.639 51.1188ZM222.615 50.7988L216.251 57.1627L216.603 57.5152L216.993 57.8266L222.615 50.7988ZM222.295 49.7748L213.324 50.4966L213.325 50.5094L213.326 50.5222L222.295 49.7748ZM221.399 38.6388H212.399V39.0003L212.428 39.3606L221.399 38.6388ZM220.695 37.8708L221.51 28.9077L221.385 28.8964L221.261 28.8886L220.695 37.8708ZM212.567 37.3588L213.133 28.3766L212.85 28.3588H212.567V37.3588ZM211.863 38.1268H202.863V38.2484L202.866 38.3699L211.863 38.1268ZM212.119 47.5988H221.119V47.4772L221.116 47.3556L212.119 47.5988ZM211.671 48.9428L216.902 56.2664L217.226 56.0351L217.528 55.7761L211.671 48.9428ZM210.327 49.3268L210.732 58.3177L210.85 58.3123L210.968 58.3039L210.327 49.3268ZM203.223 49.6468L202.818 40.6559L202.721 40.6603L202.624 40.6667L203.223 49.6468ZM201.751 49.3268L195.387 55.6907L195.839 56.143L196.351 56.5268L201.751 49.3268ZM201.175 47.7908L192.206 48.5436L192.219 48.6932L192.236 48.8423L201.175 47.7908ZM198.231 12.7188L207.199 11.9659L207.184 11.7838L207.161 11.6025L198.231 12.7188ZM198.551 11.0548L191.272 5.76122L191.224 5.82699L191.178 5.89362L198.551 11.0548ZM200.407 10.4148L199.979 19.4046L200.015 19.4063L200.052 19.4078L200.407 10.4148ZM205.271 10.6068L205.662 1.61526L205.644 1.61448L205.626 1.61377L205.271 10.6068ZM207.127 11.4388L199.077 15.4637L199.207 15.7231L199.353 15.9736L207.127 11.4388ZM207.639 13.0388L216.613 12.3572L216.612 12.3485L207.639 13.0388ZM208.791 28.2068L217.771 27.6081L217.768 27.5666L217.765 27.5252L208.791 28.2068ZM209.175 29.5508L202.261 35.3124L202.522 35.6261L202.811 35.9147L209.175 29.5508ZM210.391 29.9348L209.75 38.9119L209.908 38.9232L210.067 38.9289L210.391 29.9348ZM217.495 30.1908L218.136 21.2136L217.978 21.2023L217.819 21.1966L217.495 30.1908ZM218.647 29.8708L211.158 24.8785L211.158 24.8785L218.647 29.8708ZM218.839 28.6548L209.855 29.2025L209.86 29.2738L209.865 29.3451L218.839 28.6548ZM217.879 12.9108L226.863 12.3823C226.922 13.3862 226.707 15.3961 225.08 17.2035L218.391 11.1828L211.701 5.16208C209.307 7.82277 208.75 10.9847 208.894 13.4393L217.879 12.9108ZM218.391 11.1828L224.755 17.5467C224.034 18.2674 223.174 18.807 222.269 19.1425C221.393 19.4667 220.634 19.5428 220.119 19.5428V10.5428V1.54277C217.523 1.54277 214.474 2.37145 212.027 4.8188L218.391 11.1828ZM220.119 10.5428L220.209 19.5423L226.609 19.4783L226.519 10.4788L226.429 1.47922L220.029 1.54322L220.119 10.5428ZM226.519 10.4788V19.4788C226.016 19.4788 225.336 19.3915 224.584 19.0911L227.927 10.7348L231.269 2.37848C229.665 1.73665 228.045 1.47877 226.519 1.47877V10.4788ZM227.927 10.7348L224.584 19.0911C222.6 18.2975 221.221 16.8464 220.45 15.3748C219.776 14.0871 219.67 13.0042 219.646 12.6073L228.631 12.0788L237.615 11.5503C237.499 9.57618 236.593 4.50812 231.269 2.37848L227.927 10.7348ZM228.631 12.0788L219.641 12.5098L221.433 49.8858L230.423 49.4548L239.412 49.0238L237.62 11.6478L228.631 12.0788ZM230.423 49.4548L221.443 50.0535C221.367 48.9168 221.601 46.1643 224.102 44.0313C226.209 42.2347 228.326 42.3095 228.497 42.3142L228.247 51.3108L227.997 60.3073C229.704 60.3547 232.952 60.1415 235.783 57.7263C239.009 54.9745 239.564 51.2728 239.403 48.8561L230.423 49.4548ZM228.247 51.3108L228.621 42.3186L224.013 42.1266L223.639 51.1188L223.264 60.111L227.872 60.303L228.247 51.3108ZM223.639 51.1188L224.454 42.1557C224.666 42.175 225.121 42.2307 225.715 42.4165C226.3 42.5991 227.246 42.9783 228.237 43.771L222.615 50.7988L216.993 57.8266C219.26 59.6409 221.724 59.9818 222.824 60.0818L223.639 51.1188ZM222.615 50.7988L228.979 44.4348C230.298 45.7544 230.809 47.1298 230.997 47.7303C231.205 48.3969 231.252 48.8849 231.264 49.0274L222.295 49.7748L213.326 50.5222C213.38 51.1767 213.502 52.0914 213.816 53.0992C214.111 54.0411 214.761 55.6724 216.251 57.1627L222.615 50.7988ZM222.295 49.7748L231.266 49.053L230.37 37.917L221.399 38.6388L212.428 39.3606L213.324 50.4966L222.295 49.7748ZM221.399 38.6388H230.399C230.399 36.9555 229.963 34.3109 227.857 32.0132C225.756 29.7212 223.169 29.0586 221.51 28.9077L220.695 37.8708L219.88 46.8338C218.69 46.7256 216.455 46.2124 214.588 44.1763C212.717 42.1347 212.399 39.8527 212.399 38.6388H221.399ZM220.695 37.8708L221.261 28.8886L213.133 28.3766L212.567 37.3588L212.001 46.341L220.129 46.853L220.695 37.8708ZM212.567 37.3588V28.3588C210.734 28.3588 207.764 28.8949 205.404 31.4692C203.18 33.8953 202.863 36.6681 202.863 38.1268H211.863H220.863C220.863 39.0734 220.662 41.4622 218.673 43.6323C216.548 45.9506 213.931 46.3588 212.567 46.3588V37.3588ZM211.863 38.1268L202.866 38.3699L203.122 47.8419L212.119 47.5988L221.116 47.3556L220.86 37.8836L211.863 38.1268ZM212.119 47.5988H203.119C203.119 47.2242 203.153 44.3897 205.814 42.1095L211.671 48.9428L217.528 55.7761C220.785 52.9839 221.119 49.2534 221.119 47.5988H212.119ZM211.671 48.9428L206.44 41.6192C207.318 40.9917 208.128 40.6909 208.638 40.5451C209.153 40.398 209.53 40.3608 209.686 40.3496L210.327 49.3268L210.968 58.3039C212.279 58.2102 214.653 57.873 216.902 56.2664L211.671 48.9428ZM210.327 49.3268L209.922 40.3359L202.818 40.6559L203.223 49.6468L203.628 58.6377L210.732 58.3177L210.327 49.3268ZM203.223 49.6468L202.624 40.6667C203.088 40.6358 205.085 40.5775 207.151 42.1268L201.751 49.3268L196.351 56.5268C199.099 58.588 202.078 58.7431 203.821 58.6268L203.223 49.6468ZM201.751 49.3268L208.115 42.9628C209.1 43.9478 209.582 44.9518 209.81 45.5587C210.037 46.1656 210.097 46.6054 210.113 46.7392L201.175 47.7908L192.236 48.8423C192.403 50.2572 192.938 53.2421 195.387 55.6907L201.751 49.3268ZM201.175 47.7908L210.143 47.0379L207.199 11.9659L198.231 12.7188L189.262 13.4716L192.206 48.5436L201.175 47.7908ZM198.231 12.7188L207.161 11.6025C207.262 12.4077 207.269 14.2939 205.924 16.2159L198.551 11.0548L191.178 5.89362C189.235 8.66893 189.029 11.6646 189.3 13.8351L198.231 12.7188ZM198.551 11.0548L205.829 16.3483C203.565 19.4618 200.378 19.4236 199.979 19.4046L200.407 10.4148L200.835 1.42495C198.643 1.3206 194.219 1.7091 191.272 5.76122L198.551 11.0548ZM200.407 10.4148L200.052 19.4078L204.916 19.5998L205.271 10.6068L205.626 1.61377L200.762 1.42177L200.407 10.4148ZM205.271 10.6068L204.88 19.5983C204.701 19.5905 203.873 19.5449 202.789 19.0594C201.568 18.5118 200.042 17.3947 199.077 15.4637L207.127 11.4388L215.177 7.41386C212.63 2.31973 207.497 1.69506 205.662 1.61526L205.271 10.6068ZM207.127 11.4388L199.353 15.9736C199.012 15.3898 198.734 14.618 198.665 13.729L207.639 13.0388L216.612 12.3485C216.459 10.3502 215.839 8.51174 214.901 6.90392L207.127 11.4388ZM207.639 13.0388L198.665 13.7204L199.817 28.8884L208.791 28.2068L217.765 27.5252L216.613 12.3572L207.639 13.0388ZM208.791 28.2068L199.811 28.8054C199.881 29.8522 200.136 32.7625 202.261 35.3124L209.175 29.5508L216.089 23.7891C217.037 24.9272 217.42 26.0164 217.573 26.5503C217.735 27.1175 217.764 27.5125 217.771 27.6081L208.791 28.2068ZM209.175 29.5508L202.811 35.9147C205.48 38.5837 208.81 38.8448 209.75 38.9119L210.391 29.9348L211.032 20.9576C211.175 20.9678 211.669 21.0098 212.349 21.2245C212.995 21.4285 214.292 21.9399 215.539 23.1868L209.175 29.5508ZM210.391 29.9348L210.067 38.9289L217.171 39.1849L217.495 30.1908L217.819 21.1966L210.715 20.9406L210.391 29.9348ZM217.495 30.1908L216.854 39.1679C217.73 39.2305 222.979 39.5976 226.135 34.8631L218.647 29.8708L211.158 24.8785C212.588 22.7344 214.562 21.8212 215.822 21.4711C216.988 21.1473 217.872 21.1948 218.136 21.2136L217.495 30.1908ZM218.647 29.8708L226.135 34.8631C228.019 32.038 227.899 29.0953 227.812 27.9645L218.839 28.6548L209.865 29.3451C209.851 29.1528 209.825 28.656 209.933 27.9711C210.039 27.2976 210.325 26.1287 211.158 24.8785L218.647 29.8708ZM218.839 28.6548L227.822 28.107L226.862 12.363L217.879 12.9108L208.895 13.4585L209.855 29.2025L218.839 28.6548ZM262.128 41.1988L253.147 40.6057L253.146 40.6215L253.145 40.6374L262.128 41.1988ZM261.104 46.3188L269.404 49.7993L269.423 49.7528L269.442 49.7062L261.104 46.3188ZM258.8 49.5188L264.499 56.4844L264.515 56.4709L264.532 56.4574L258.8 49.5188ZM255.408 51.1188L253.425 42.3398L255.408 51.1188ZM250.928 51.4388L251.389 42.4506L251.333 42.4478L251.278 42.4456L250.928 51.4388ZM241.072 51.0548L241.422 42.0616L241.392 42.0604L241.362 42.0594L241.072 51.0548ZM237.424 50.4788L240.071 41.8768L239.961 41.843L239.85 41.8121L237.424 50.4788ZM234.608 49.0068L228.428 55.5499L228.615 55.7259L228.811 55.891L234.608 49.0068ZM232.816 46.3188L224.416 49.5496L224.437 49.6056L224.46 49.6613L232.816 46.3188ZM232.176 42.2228L223.176 42.1942L223.176 42.2085V42.2228H232.176ZM232.24 22.0628L241.24 22.0913L241.24 22.0771V22.0628H232.24ZM234.224 15.6628L240.588 22.0267L240.638 21.9762L240.688 21.9249L234.224 15.6628ZM240.816 13.1028L239.874 4.15222L239.848 4.15494L239.822 4.15781L240.816 13.1028ZM252.976 11.8228L253.918 20.7733L253.923 20.7727L252.976 11.8228ZM261.104 13.6148L255.155 20.368L261.104 13.6148ZM263.472 20.8468L272.452 21.4398L272.452 21.4376L263.472 20.8468ZM244.144 18.9268L244.688 27.9103L244.715 27.9086L244.742 27.9068L244.144 18.9268ZM240.816 20.3988L234.142 14.3605L234.061 14.45L233.982 14.5416L240.816 20.3988ZM239.536 24.2388L230.548 23.7778L230.544 23.8417L230.542 23.9057L239.536 24.2388ZM238.96 39.7908L247.945 40.3042L247.95 40.2141L247.954 40.1239L238.96 39.7908ZM239.984 42.9908L234.222 49.9048L234.339 50.0018L234.458 50.0949L239.984 42.9908ZM243.184 43.8228L243.023 34.8242L242.963 34.8253L242.903 34.8272L243.184 43.8228ZM246.768 43.7588L246.928 52.7573L246.98 52.7564L247.032 52.7549L246.768 43.7588ZM249.968 42.6068L243.425 36.4272L243.419 36.4328L243.414 36.4385L249.968 42.6068ZM251.184 38.3828L242.193 37.9707L242.192 37.9894L242.192 38.0081L251.184 38.3828ZM251.888 23.0228L242.898 22.5843L242.898 22.5975L242.897 22.6107L251.888 23.0228ZM247.024 18.7348L246.462 9.7523L246.444 9.75346L246.425 9.7547L247.024 18.7348ZM262.128 41.1988L253.145 40.6374C253.056 42.066 252.842 42.7437 252.766 42.9314L261.104 46.3188L269.442 49.7062C270.475 47.1632 270.944 44.4275 271.11 41.7602L262.128 41.1988ZM261.104 46.3188L252.804 42.8382C252.767 42.9276 252.759 42.9195 252.808 42.852C252.859 42.7809 252.946 42.681 253.068 42.5801L258.8 49.5188L264.532 56.4574C266.772 54.6067 268.358 52.2931 269.404 49.7993L261.104 46.3188ZM258.8 49.5188L253.101 42.5532C253.218 42.457 253.329 42.3925 253.408 42.3549C253.484 42.3189 253.5 42.323 253.425 42.3398L255.408 51.1188L257.39 59.8977C259.913 59.328 262.357 58.237 264.499 56.4844L258.8 49.5188ZM255.408 51.1188L253.425 42.3398C253.062 42.4219 252.412 42.5031 251.389 42.4506L250.928 51.4388L250.467 60.427C252.772 60.5452 255.108 60.413 257.39 59.8977L255.408 51.1188ZM250.928 51.4388L251.278 42.4456L241.422 42.0616L241.072 51.0548L240.721 60.048L250.577 60.4319L250.928 51.4388ZM241.072 51.0548L241.362 42.0594C240.729 42.039 240.317 41.9526 240.071 41.8768L237.424 50.4788L234.777 59.0808C236.749 59.6876 238.769 59.9852 240.782 60.0501L241.072 51.0548ZM237.424 50.4788L239.85 41.8121C239.893 41.824 239.978 41.8529 240.089 41.9107C240.201 41.9692 240.309 42.042 240.405 42.1226L234.608 49.0068L228.811 55.891C230.649 57.4391 232.75 58.5162 234.997 59.1454L237.424 50.4788ZM234.608 49.0068L240.787 42.4637C240.906 42.5759 241.002 42.6928 241.072 42.7985C241.141 42.9021 241.169 42.9694 241.172 42.9763L232.816 46.3188L224.46 49.6613C225.328 51.8325 226.63 53.8519 228.428 55.5499L234.608 49.0068ZM232.816 46.3188L241.216 43.088C241.265 43.2148 241.252 43.2256 241.228 43.0734C241.204 42.921 241.176 42.6457 241.176 42.2228H232.176H223.176C223.176 44.573 223.477 47.1087 224.416 49.5496L232.816 46.3188ZM232.176 42.2228L241.176 42.2513L241.24 22.0913L232.24 22.0628L223.24 22.0342L223.176 42.1942L232.176 42.2228ZM232.24 22.0628H241.24C241.24 21.6592 241.263 21.3664 241.288 21.1692C241.314 20.9717 241.339 20.8975 241.332 20.9197C241.325 20.944 241.28 21.081 241.161 21.2876C241.039 21.4994 240.854 21.7606 240.588 22.0267L234.224 15.6628L227.86 9.29881C224.099 13.06 223.24 18.0592 223.24 22.0628H232.24ZM234.224 15.6628L240.688 21.9249C240.257 22.37 239.95 22.4551 240.122 22.3883C240.308 22.316 240.824 22.1573 241.81 22.0477L240.816 13.1028L239.822 4.15781C235.882 4.59561 231.206 5.84278 227.76 9.40061L234.224 15.6628ZM240.816 13.1028L241.758 22.0533L253.918 20.7733L252.976 11.8228L252.034 2.87222L239.874 4.15222L240.816 13.1028ZM252.976 11.8228L253.923 20.7727C255.058 20.6526 255.627 20.7357 255.79 20.7717C255.899 20.7957 255.575 20.7381 255.155 20.368L261.104 13.6148L267.053 6.86154C262.567 2.90959 256.847 2.36255 252.028 2.8728L252.976 11.8228ZM261.104 13.6148L255.155 20.368C254.987 20.2207 254.831 20.041 254.704 19.844C254.578 19.6499 254.514 19.4913 254.487 19.4074C254.438 19.2602 254.543 19.4735 254.491 20.2559L263.472 20.8468L272.452 21.4376C272.778 16.4858 271.635 10.8976 267.053 6.86154L261.104 13.6148ZM263.472 20.8468L254.491 20.2537L253.147 40.6057L262.128 41.1988L271.108 41.7918L272.452 21.4398L263.472 20.8468ZM244.144 18.9268L243.599 9.94325C240.265 10.1453 236.795 11.4279 234.142 14.3605L240.816 20.3988L247.49 26.437C247.045 26.9281 246.491 27.3267 245.896 27.5896C245.327 27.8416 244.882 27.8986 244.688 27.9103L244.144 18.9268ZM240.816 20.3988L233.982 14.5416C231.48 17.4607 230.694 20.9254 230.548 23.7778L239.536 24.2388L248.524 24.6997C248.548 24.2241 248.615 25.1289 247.649 26.2559L240.816 20.3988ZM239.536 24.2388L230.542 23.9057L229.966 39.4577L238.96 39.7908L247.954 40.1239L248.53 24.5719L239.536 24.2388ZM238.96 39.7908L229.974 39.2773C229.81 42.1485 230.337 46.6674 234.222 49.9048L239.984 42.9908L245.745 36.0768C246.829 36.9801 247.438 38.074 247.724 38.9678C247.981 39.7728 247.946 40.2971 247.945 40.3042L238.96 39.7908ZM239.984 42.9908L234.458 50.0949C237.44 52.4142 240.839 52.9004 243.465 52.8184L243.184 43.8228L242.903 34.8272C242.798 34.8304 244.063 34.762 245.509 35.8866L239.984 42.9908ZM243.184 43.8228L243.344 52.8213L246.928 52.7573L246.768 43.7588L246.607 34.7602L243.023 34.8242L243.184 43.8228ZM246.768 43.7588L247.032 52.7549C249.78 52.6741 253.58 51.9007 256.522 48.775L249.968 42.6068L243.414 36.4385C244.17 35.6348 244.993 35.192 245.607 34.9708C245.901 34.8652 246.133 34.8142 246.28 34.7893C246.354 34.7767 246.411 34.7701 246.447 34.7667C246.484 34.7632 246.503 34.7627 246.503 34.7627L246.768 43.7588ZM249.968 42.6068L256.511 48.7864C259.603 45.5127 260.074 41.2116 260.176 38.7574L251.184 38.3828L242.192 38.0081C242.168 38.5767 242.11 38.6821 242.167 38.485C242.216 38.3134 242.494 37.4121 243.425 36.4272L249.968 42.6068ZM251.184 38.3828L260.174 38.7948L260.878 23.4348L251.888 23.0228L242.897 22.6107L242.193 37.9707L251.184 38.3828ZM251.888 23.0228L260.877 23.4613C261.031 20.3044 260.332 14.9247 255.223 11.815L250.544 19.5028L245.864 27.1906C244.489 26.3532 243.625 25.1345 243.208 24.0411C242.849 23.1018 242.903 22.4953 242.898 22.5843L251.888 23.0228ZM250.544 19.5028L255.223 11.815C252.387 10.0888 249.307 9.57448 246.462 9.7523L247.024 18.7348L247.585 27.7172C247.55 27.7195 247.34 27.7282 247.009 27.6559C246.665 27.5809 246.264 27.4341 245.864 27.1906L250.544 19.5028ZM247.024 18.7348L246.425 9.7547L243.545 9.9467L244.144 18.9268L244.742 27.9068L247.622 27.7148L247.024 18.7348ZM285.903 10.0948L285.993 19.0943L285.999 19.0943L285.903 10.0948ZM294.863 13.0388L288.431 19.3339L294.863 13.0388ZM298.255 21.2308L307.229 20.552L307.226 20.5039L307.221 20.4559L298.255 21.2308ZM298.831 28.8468L289.856 29.5255L289.861 29.5846L289.866 29.6436L298.831 28.8468ZM296.655 37.1028L290.531 30.5076L290.491 30.5445L290.452 30.5817L296.655 37.1028ZM288.207 39.2788L288.701 30.2923L288.687 30.2916L288.674 30.2909L288.207 39.2788ZM283.279 39.0228L282.638 47.9999L282.725 48.0061L282.812 48.0107L283.279 39.0228ZM282.063 39.3428L275.149 33.5811L274.841 33.9504L274.574 34.3505L282.063 39.3428ZM281.871 40.3668L272.915 41.2623L272.921 41.3146L272.927 41.3667L281.871 40.3668ZM283.023 50.6708L274.079 51.6708L274.094 51.8074L274.113 51.9436L283.023 50.6708ZM281.551 52.3348V43.3348H281.429L281.308 43.3381L281.551 52.3348ZM274.447 52.5268L274.204 43.5301L273.951 43.5369L273.699 43.5579L274.447 52.5268ZM273.167 52.2068L278.567 45.0068L278.483 44.944L278.398 44.8832L273.167 52.2068ZM272.719 50.9908L263.719 50.9362L263.719 50.9635V50.9908H272.719ZM272.911 19.3108L281.911 19.3653L281.911 19.338V19.3108H272.911ZM272.143 18.6068L271.395 9.63786L271.146 9.6586L270.899 9.69312L272.143 18.6068ZM266.639 19.3748L265.395 10.4611L265.381 10.4632L265.366 10.4652L266.639 19.3748ZM265.423 19.1188L272.337 13.3571V13.3571L265.423 19.1188ZM265.039 18.2228L256.049 18.6409L256.065 18.9912L256.108 19.3391L265.039 18.2228ZM264.783 12.7188L273.773 12.3006L273.771 12.2601L273.769 12.2195L264.783 12.7188ZM265.103 10.9268L272.82 15.5572L265.103 10.9268ZM266.767 10.2868V19.2868H266.812L266.857 19.2863L266.767 10.2868ZM290.447 22.4468L299.42 21.7498L299.418 21.7246L299.416 21.6994L290.447 22.4468ZM288.911 19.0548L283.054 25.8881L283.15 25.9704L283.248 26.05L288.911 19.0548ZM284.687 17.9668L284.863 26.965L284.875 26.9648L284.887 26.9646L284.687 17.9668ZM281.423 18.0308V27.0308H281.511L281.599 27.029L281.423 18.0308ZM279.951 19.5668L270.959 19.1921L270.956 19.2538L270.954 19.3155L279.951 19.5668ZM279.631 31.0228L288.627 31.2874L288.627 31.2741L279.631 31.0228ZM281.743 33.2628L282.181 24.2735L282.094 24.2692L282.007 24.2667L281.743 33.2628ZM286.991 33.5188L287.464 24.5312L287.447 24.5303L287.429 24.5295L286.991 33.5188ZM290.255 32.4948L283.009 27.156L282.984 27.1905L282.959 27.2254L290.255 32.4948ZM290.959 29.0388L281.986 29.7357L281.989 29.7715L281.992 29.8074L290.959 29.0388ZM285.903 10.0948L285.999 19.0943C287.276 19.0807 288.003 19.2379 288.341 19.3491C288.631 19.4442 288.575 19.4813 288.431 19.3339L294.863 13.0388L301.295 6.7436C296.99 2.34512 291.203 1.03787 285.807 1.09528L285.903 10.0948ZM294.863 13.0388L288.431 19.3339C288.615 19.5219 289.125 20.1218 289.288 22.0057L298.255 21.2308L307.221 20.4559C306.787 15.4277 305.036 10.5663 301.295 6.7436L294.863 13.0388ZM298.255 21.2308L289.28 21.9095L289.856 29.5255L298.831 28.8468L307.805 28.168L307.229 20.552L298.255 21.2308ZM298.831 28.8468L289.866 29.6436C289.919 30.2355 289.921 30.6811 289.902 30.9994C289.883 31.318 289.847 31.4716 289.84 31.497C289.835 31.5176 289.864 31.3969 289.98 31.1937C290.1 30.9825 290.282 30.7382 290.531 30.5076L296.655 37.1028L302.779 43.6979C307.557 39.261 308.24 33.0485 307.795 28.0499L298.831 28.8468ZM296.655 37.1028L290.452 30.5817C290.894 30.1608 291.212 30.1211 290.986 30.1792C290.715 30.249 290.011 30.3643 288.701 30.2923L288.207 39.2788L287.713 48.2652C292.608 48.5342 298.471 47.797 302.858 43.6238L296.655 37.1028ZM288.207 39.2788L288.674 30.2909L283.746 30.0349L283.279 39.0228L282.812 48.0107L287.74 48.2667L288.207 39.2788ZM283.279 39.0228L283.92 30.0456C282.653 29.9552 278.287 29.8148 275.149 33.5811L282.063 39.3428L288.977 45.1044C287.608 46.7467 285.954 47.4752 284.817 47.7744C283.75 48.0552 282.938 48.0214 282.638 47.9999L283.279 39.0228ZM282.063 39.3428L274.574 34.3505C272.866 36.9123 272.746 39.5692 272.915 41.2623L281.871 40.3668L290.826 39.4712C290.91 40.311 290.918 42.2852 289.551 44.3351L282.063 39.3428ZM281.871 40.3668L272.927 41.3667L274.079 51.6708L283.023 50.6708L291.967 49.6708L290.815 39.3668L281.871 40.3668ZM283.023 50.6708L274.113 51.9436C274.009 51.2154 273.739 47.7802 276.846 45.1175L282.703 51.9508L288.56 58.7841C292.264 55.6094 292.207 51.3209 291.932 49.398L283.023 50.6708ZM282.703 51.9508L276.846 45.1175C278.481 43.7161 280.307 43.3348 281.551 43.3348V52.3348V61.3348C283.734 61.3348 286.328 60.6974 288.56 58.7841L282.703 51.9508ZM281.551 52.3348L281.308 43.3381L274.204 43.5301L274.447 52.5268L274.69 61.5235L281.794 61.3315L281.551 52.3348ZM274.447 52.5268L273.699 43.5579C274.913 43.4567 276.8 43.6817 278.567 45.0068L273.167 52.2068L267.767 59.4068C270.216 61.2439 272.957 61.6821 275.194 61.4957L274.447 52.5268ZM273.167 52.2068L278.398 44.8832C281.645 47.2022 281.719 50.5236 281.719 50.9908H272.719H263.719C263.719 52.6526 264.092 56.7846 267.936 59.5304L273.167 52.2068ZM272.719 50.9908L281.719 51.0453L281.911 19.3653L272.911 19.3108L263.911 19.2562L263.719 50.9362L272.719 50.9908ZM272.911 19.3108H281.911C281.911 17.739 281.522 14.6116 278.8 12.1164C276.086 9.62798 272.947 9.50858 271.395 9.63786L272.143 18.6068L272.89 27.5757C271.851 27.6623 269.096 27.6389 266.637 25.3852C264.171 23.1247 263.911 20.3705 263.911 19.3108H272.911ZM272.143 18.6068L270.899 9.69312L265.395 10.4611L266.639 19.3748L267.883 28.2884L273.387 27.5204L272.143 18.6068ZM266.639 19.3748L265.366 10.4652C265.675 10.421 266.561 10.3193 267.741 10.5678C269.027 10.8385 270.858 11.5827 272.337 13.3571L265.423 19.1188L258.509 24.8804C261.918 28.9716 266.696 28.458 267.912 28.2843L266.639 19.3748ZM265.423 19.1188L272.337 13.3571C273.263 14.469 273.806 15.7965 273.969 17.1065L265.039 18.2228L256.108 19.3391C256.357 21.3317 257.156 23.2565 258.509 24.8804L265.423 19.1188ZM265.039 18.2228L274.029 17.8046L273.773 12.3006L264.783 12.7188L255.793 13.1369L256.049 18.6409L265.039 18.2228ZM264.783 12.7188L273.769 12.2195C273.777 12.356 273.787 12.735 273.691 13.2769C273.593 13.8262 273.364 14.6515 272.82 15.5572L265.103 10.9268L257.385 6.2963C255.824 8.89892 255.705 11.5634 255.797 13.218L264.783 12.7188ZM265.103 10.9268L272.82 15.5572C271.725 17.3828 270.161 18.3777 268.942 18.8469C267.843 19.2692 267.003 19.2868 266.767 19.2868V10.2868V1.28677C265.052 1.28677 260.177 1.64329 257.385 6.2963L265.103 10.9268ZM266.767 10.2868L266.857 19.2863L285.993 19.0943L285.903 10.0948L285.812 1.09522L266.676 1.28722L266.767 10.2868ZM290.447 22.4468L299.416 21.6994C299.155 18.5738 297.956 14.7977 294.574 12.0596L288.911 19.0548L283.248 26.05C282.524 25.4642 282.045 24.7707 281.768 24.1593C281.511 23.5921 281.479 23.2131 281.478 23.1942L290.447 22.4468ZM288.911 19.0548L294.768 12.2215C291.407 9.34037 287.316 8.90613 284.487 8.96899L284.687 17.9668L284.887 26.9646C285.27 26.956 285.24 27.0002 284.938 26.9223C284.613 26.8386 283.864 26.5828 283.054 25.8881L288.911 19.0548ZM284.687 17.9668L284.51 8.9685L281.246 9.0325L281.423 18.0308L281.599 27.029L284.863 26.965L284.687 17.9668ZM281.423 18.0308V9.03077C279.328 9.03077 276.294 9.64032 273.853 12.1876C271.538 14.6036 271.031 17.4503 270.959 19.1921L279.951 19.5668L288.943 19.9414C288.913 20.6592 288.673 22.738 286.849 24.6419C284.898 26.6772 282.579 27.0308 281.423 27.0308V18.0308ZM279.951 19.5668L270.954 19.3155L270.634 30.7715L279.631 31.0228L288.627 31.2741L288.947 19.8181L279.951 19.5668ZM279.631 31.0228L270.635 30.7582C270.573 32.8702 271.011 36.1223 273.578 38.8449C276.146 41.5675 279.366 42.1968 281.478 42.2589L281.743 33.2628L282.007 24.2667C282.669 24.2861 284.812 24.5207 286.675 26.4967C288.538 28.4726 288.646 30.626 288.627 31.2874L279.631 31.0228ZM281.743 33.2628L281.304 42.2521L286.552 42.5081L286.991 33.5188L287.429 24.5295L282.181 24.2735L281.743 33.2628ZM286.991 33.5188L286.518 42.5063C289.003 42.6371 294.219 42.377 297.551 37.7642L290.255 32.4948L282.959 27.2254C284.034 25.7362 285.408 25.0282 286.329 24.7395C287.143 24.4841 287.62 24.5395 287.464 24.5312L286.991 33.5188ZM290.255 32.4948L297.5 37.8336C299.9 34.577 300.152 30.9063 299.926 28.2702L290.959 29.0388L281.992 29.8074C282.022 30.1579 281.804 28.7912 283.009 27.156L290.255 32.4948ZM290.959 29.0388L299.932 28.3418L299.42 21.7498L290.447 22.4468L281.474 23.1437L281.986 29.7357L290.959 29.0388Z" fill="white" mask="url(#path-1-outside-1_17_2)"/>
</svg>
