<?xml version="1.0" encoding="UTF-8"?>
<svg id="Layer_2" data-name="Layer 2" xmlns="http://www.w3.org/2000/svg" viewBox="0 0 1921 301.01">
  <defs>
    <style>
      .cls-1 {
        fill: #fdca34;
      }

      .cls-1, .cls-2, .cls-3, .cls-4, .cls-5, .cls-6, .cls-7 {
        stroke-width: 0px;
      }

      .cls-2 {
        fill: #6b2907;
      }

      .cls-3 {
        fill: #fdcb35;
      }

      .cls-4 {
        fill: #f98229;
      }

      .cls-5 {
        fill: #6a2601;
      }

      .cls-6 {
        fill: #6b2906;
      }

      .cls-7 {
        fill: #d9c9c1;
      }
    </style>
  </defs>
  <g id="Layer_1-2" data-name="Layer 1">
    <g>
      <path class="cls-3" d="M1921,108.64v95.68c-17.62-.79-35.25-1.59-52.87-2.38-39.9-1.8-79.8-3.62-119.7-5.41-26.27-1.18-52.54-2.34-78.81-3.48-24.27-1.06-48.55-2.07-72.82-3.11-20.29-.87-40.57-1.73-60.86-2.64-24.44-1.1-48.88-2.29-73.32-3.36-21.12-.93-42.24-1.7-63.36-2.62-25.11-1.1-50.21-2.33-75.32-3.43-20.45-.9-40.91-1.64-61.36-2.57-33.08-1.5-66.16-3.16-99.24-4.63-21.28-.95-42.58-1.62-63.86-2.56-39.9-1.76-79.8-3.64-119.7-5.43-26.44-1.19-52.87-2.33-79.31-3.48-24.61-1.06-49.21-2.08-73.82-3.14-20.12-.87-40.23-1.76-60.35-2.67-24.27-1.09-48.54-2.25-72.82-3.32-21.28-.93-42.57-1.73-63.85-2.67-24.44-1.08-48.88-2.29-73.32-3.37-21.12-.93-42.24-1.7-63.36-2.64-24.44-1.08-48.87-2.33-73.31-3.4-21.12-.93-42.24-1.66-63.36-2.57-25.77-1.12-51.53-2.37-77.3-3.51-19.95-.88-39.91-1.64-59.86-2.52-25.77-1.14-51.54-2.36-77.3-3.53-20.78-.95-41.56-1.91-62.35-2.8-25.77-1.1-51.54-2.12-77.32-3.18,0-35.54,0-71.08,0-106.63,13.96.8,27.91,1.7,41.87,2.38,27.43,1.33,54.87,2.48,82.29,3.83,34.74,1.71,69.47,3.6,104.21,5.31,30.09,1.48,60.18,2.75,90.27,4.24,35.74,1.77,71.47,3.74,107.2,5.53,29.92,1.5,59.85,2.79,89.77,4.29,29.25,1.47,58.49,3.16,87.75,4.62,27.1,1.35,54.2,2.45,81.3,3.78,35.57,1.75,71.14,3.65,106.71,5.42,22.11,1.1,44.23,2.02,66.33,3.15,29.09,1.48,58.16,3.15,87.25,4.59,27.09,1.34,54.2,2.41,81.3,3.75,35.41,1.74,70.8,3.66,106.21,5.44,22.28,1.12,44.56,2.05,66.84,3.17,29.09,1.47,58.16,3.12,87.25,4.56,27.09,1.34,54.2,2.42,81.3,3.76,35.41,1.74,70.8,3.64,106.2,5.44,23.44,1.19,46.88,2.3,70.32,3.48,28.09,1.41,56.18,2.91,84.27,4.26,26.93,1.3,53.87,2.37,80.8,3.7,35.4,1.75,70.8,3.68,106.2,5.49,34.41,1.76,68.82,3.46,103.22,5.19Z"/>
      <path class="cls-1" d="M2.15,205.77c0-17.63.02-35.26.02-52.89,7.82.25,15.64.41,23.46.76,25.27,1.12,50.53,2.35,75.8,3.46,21.12.92,42.24,1.64,63.36,2.58,24.27,1.08,48.53,2.4,72.8,3.44,30.76,1.32,61.53,2.37,92.29,3.7,40.4,1.75,80.79,3.71,121.19,5.49,25.27,1.12,50.56,2,75.83,3.13,33.08,1.47,66.15,3.17,99.24,4.59,30.93,1.33,61.87,2.34,92.8,3.68,40.73,1.76,81.46,3.73,122.19,5.54,25.11,1.11,50.22,2.05,75.33,3.12,25.94,1.11,51.87,2.32,77.81,3.44,20.28.88,40.57,1.64,60.86,2.56,33.25,1.51,66.49,3.18,99.74,4.63,31.26,1.36,62.53,2.46,93.79,3.81,40.24,1.73,80.46,3.64,120.7,5.4,25.11,1.1,50.22,2.02,75.33,3.1,35.41,1.52,70.82,3.14,106.23,4.68,19.79.86,39.58,1.58,59.36,2.48,24.44,1.11,48.87,2.44,73.31,3.51,21.78.95,43.58,1.56,65.36,2.51,40.4,1.77,80.79,3.7,121.19,5.53,16.96.77,33.92,1.47,50.88,2.2v53.82c-19.45-.75-38.91-1.43-58.36-2.26-25.77-1.11-51.54-2.37-77.31-3.5-19.95-.88-39.91-1.61-59.86-2.52-24.27-1.11-48.53-2.41-72.81-3.49-21.28-.94-42.58-1.6-63.86-2.54-39.9-1.76-79.8-3.65-119.7-5.45-26.44-1.19-52.88-2.35-79.32-3.49-24.44-1.06-48.88-2.07-73.33-3.12-20.12-.86-40.24-1.69-60.36-2.6-32.75-1.5-65.49-3.13-98.24-4.57-30.6-1.35-61.2-2.46-91.8-3.79-39.9-1.74-79.8-3.62-119.7-5.39-25.11-1.11-50.22-2.1-75.32-3.21-24.77-1.09-49.54-2.28-74.31-3.37-20.95-.92-41.91-1.71-62.86-2.64-24.94-1.1-49.87-2.32-74.81-3.41-20.62-.91-41.24-1.67-61.86-2.58-25.27-1.11-50.54-2.35-75.81-3.46-20.45-.9-40.91-1.64-61.36-2.57-33.08-1.5-66.16-3.17-99.24-4.64-21.28-.95-42.58-1.57-63.86-2.51-40.07-1.76-80.13-3.69-120.2-5.47-24.61-1.1-49.22-2.04-73.83-3.09-9.81-.42-19.62-.95-29.42-1.4-23.77-1.08-47.54-2.13-71.31-3.2Z"/>
      <path class="cls-4" d="M2.16,142.93c0-4.54,0-9.08-.01-13.62,9.98.45,19.95.88,29.93,1.34,25.76,1.18,51.52,2.42,77.28,3.55,19.79.87,39.58,1.53,59.36,2.44,32.74,1.5,65.47,3.24,98.21,4.68,30.09,1.32,60.2,2.24,90.29,3.56,39.72,1.74,79.44,3.72,119.16,5.57,27.43,1.27,54.86,2.51,82.29,3.72,38.06,1.68,76.13,3.36,114.2,4.96,23.44.98,46.89,1.67,70.33,2.71,40.06,1.78,80.1,3.77,120.16,5.58,24.94,1.13,49.89,2.02,74.83,3.12,25.09,1.11,50.18,2.42,75.27,3.52,20.62.91,41.24,1.58,61.86,2.49,25.09,1.11,50.18,2.43,75.27,3.53,20.45.9,40.91,1.56,61.36,2.45,26.43,1.15,52.85,2.45,79.28,3.62,19.28.85,38.58,1.54,57.86,2.4,26.26,1.17,52.51,2.46,78.77,3.62,19.45.86,38.91,1.54,58.36,2.4,26.43,1.17,52.85,2.46,79.28,3.63,19.28.85,38.58,1.51,57.86,2.4,24.26,1.12,48.52,2.5,72.78,3.57,21.28.94,42.57,1.49,63.85,2.43,31.08,1.38,62.16,2.98,93.24,4.47,22.59,1.08,45.19,2.14,67.79,3.21v11.96c-12.14-.4-24.29-.67-36.43-1.22-24.6-1.11-49.19-2.48-73.8-3.53-30.43-1.3-60.88-2.27-91.3-3.59-40.56-1.76-81.12-3.78-121.68-5.58-24.94-1.11-49.89-1.94-74.84-3.06-33.42-1.5-66.82-3.19-100.24-4.71-23.94-1.09-47.89-2.02-71.83-3.06-37.74-1.63-75.48-3.28-113.22-4.94-30.42-1.34-60.85-2.71-91.27-4.05-37.41-1.64-74.82-3.28-112.23-4.89-24.28-1.05-48.56-2.02-72.83-3.06-29.43-1.26-58.86-2.61-88.29-3.82-23.61-.97-47.24-1.66-70.85-2.7-40.23-1.77-80.45-3.74-120.68-5.56-36.41-1.65-72.83-3.23-109.24-4.82-29.43-1.29-58.86-2.62-88.29-3.83-23.95-.98-47.9-1.69-71.85-2.73-40.73-1.78-81.45-3.77-122.18-5.58-24.94-1.11-49.89-1.99-74.84-3.07-35.91-1.55-71.82-3.18-107.74-4.76-10.98-.48-21.96-.92-32.93-1.41-24.1-1.1-48.2-2.22-72.29-3.33Z"/>
      <path class="cls-2" d="M2.15,13.27V4.25c4.78,0,9.38-.19,13.96.03,33.24,1.58,66.48,3.2,99.71,4.88,35.23,1.78,70.45,3.69,105.68,5.43,27.25,1.35,54.52,2.44,81.77,3.78,29.08,1.43,58.16,3.06,87.24,4.52,22.27,1.12,44.54,2.07,66.81,3.19,35.4,1.78,70.78,3.71,106.18,5.45,27.25,1.34,54.52,2.41,81.77,3.76,29.08,1.43,58.15,3.11,87.23,4.55,27.75,1.38,55.52,2.53,83.27,3.91,29.41,1.47,58.81,3.14,88.22,4.63,18.94.96,37.9,1.69,56.85,2.6,20.94,1.01,41.87,2.13,62.81,3.18,19.11.96,38.22,1.88,57.33,2.85,22.1,1.12,44.2,2.3,66.3,3.39,18.61.92,37.23,1.73,55.84,2.66,21.93,1.09,43.86,2.26,65.8,3.37,17.95.91,35.9,1.76,53.84,2.66,22.93,1.14,45.86,2.35,68.79,3.46,27.42,1.32,54.85,2.53,82.27,3.87,20.77,1.01,41.54,2.19,62.31,3.2,28.25,1.38,56.51,2.62,84.76,4.04,29.41,1.47,58.81,3.12,88.22,4.63,17.95.92,35.9,1.7,53.85,2.59,22.6,1.12,45.19,2.29,67.79,3.42,17.45.87,34.9,1.73,52.35,2.57,12.63.61,25.26,1.2,37.89,1.81v9.97c-34.41-1.73-68.82-3.43-103.22-5.19-35.4-1.81-70.8-3.74-106.2-5.49-26.93-1.33-53.87-2.4-80.8-3.7-28.09-1.35-56.18-2.85-84.27-4.26-23.44-1.18-46.88-2.29-70.32-3.48-35.4-1.8-70.8-3.7-106.2-5.44-27.09-1.33-54.2-2.42-81.3-3.76-29.09-1.44-58.16-3.09-87.25-4.56-22.28-1.13-44.56-2.05-66.84-3.17-35.4-1.77-70.8-3.69-106.21-5.44-27.1-1.33-54.2-2.41-81.3-3.75-29.09-1.44-58.16-3.11-87.25-4.59-22.11-1.12-44.22-2.04-66.33-3.15-35.57-1.77-71.13-3.67-106.71-5.42-27.1-1.33-54.2-2.43-81.3-3.78-29.25-1.46-58.49-3.15-87.75-4.62-29.92-1.5-59.85-2.79-89.77-4.29-35.74-1.79-71.47-3.75-107.2-5.53-30.09-1.49-60.18-2.76-90.27-4.24-34.74-1.71-69.47-3.6-104.21-5.31-27.43-1.35-54.86-2.49-82.29-3.83-13.96-.68-27.91-1.58-41.87-2.38Z"/>
      <path class="cls-6" d="M2.15,205.77c23.77,1.07,47.54,2.12,71.31,3.2,9.81.44,19.61.98,29.42,1.4,24.61,1.05,49.22,2,73.83,3.09,40.07,1.79,80.13,3.71,120.2,5.47,21.28.94,42.58,1.57,63.86,2.51,33.08,1.47,66.16,3.13,99.24,4.64,20.45.93,40.91,1.66,61.36,2.57,25.27,1.11,50.54,2.35,75.81,3.46,20.62.91,41.24,1.67,61.86,2.58,24.94,1.1,49.87,2.31,74.81,3.41,20.95.92,41.91,1.72,62.86,2.64,24.77,1.09,49.54,2.28,74.31,3.37,25.11,1.1,50.22,2.09,75.32,3.21,39.9,1.77,79.8,3.65,119.7,5.39,30.6,1.33,61.2,2.45,91.8,3.79,32.75,1.44,65.49,3.07,98.24,4.57,20.12.92,40.24,1.75,60.36,2.6,24.44,1.04,48.88,2.06,73.33,3.12,26.44,1.14,52.88,2.3,79.32,3.49,39.9,1.8,79.8,3.69,119.7,5.45,21.28.94,42.58,1.6,63.86,2.54,24.27,1.08,48.53,2.38,72.81,3.49,19.95.91,39.91,1.64,59.86,2.52,25.77,1.14,51.54,2.4,77.31,3.5,19.45.84,38.9,1.51,58.36,2.26v8.97c-4.71.23-9.41.47-14.12.7-3.3-.19-6.6-.39-9.9-.58-5.7-.18-11.4-.36-17.1-.54-2.95-.18-5.9-.36-8.85-.54-1.38-.12-2.76-.23-4.14-.35-15.46-.67-30.91-1.31-46.37-2.02-39.73-1.81-79.46-3.71-119.2-5.46-31.09-1.36-62.2-2.47-93.29-3.83-32.75-1.43-65.5-3.07-98.25-4.53-24.94-1.11-49.89-2.01-74.83-3.12-39.57-1.77-79.13-3.72-118.7-5.45-31.09-1.37-62.19-2.45-93.29-3.82-32.75-1.43-65.49-3.1-98.25-4.56-24.77-1.11-49.55-1.99-74.33-3.09-39.74-1.77-79.46-3.71-119.2-5.45-31.09-1.36-62.19-2.45-93.28-3.81-32.75-1.44-65.49-3.11-98.25-4.58-24.61-1.1-49.22-1.98-73.83-3.07-39.74-1.77-79.47-3.69-119.21-5.44-22.1-.97-44.22-1.63-66.32-2.59-32.24-1.41-64.48-3.02-96.72-4.44-31.76-1.4-63.52-2.62-95.28-4.01-41.73-1.83-83.45-3.78-125.17-5.61-21.94-.96-43.89-1.7-65.84-2.67-31.56-1.39-63.12-2.89-95.16-4.36,0-3.51,0-6.75,0-10Z"/>
      <path class="cls-5" d="M1921,214.29c-22.6-1.07-45.19-2.12-67.79-3.21-31.08-1.49-62.15-3.09-93.24-4.47-21.28-.95-42.57-1.49-63.85-2.43-24.27-1.07-48.52-2.45-72.78-3.57-19.28-.89-38.57-1.54-57.86-2.4-26.43-1.17-52.85-2.46-79.28-3.63-19.45-.86-38.91-1.54-58.36-2.4-26.26-1.16-52.51-2.46-78.77-3.62-19.28-.86-38.58-1.54-57.86-2.4-26.43-1.17-52.85-2.47-79.28-3.62-20.45-.89-40.91-1.54-61.36-2.45-25.09-1.11-50.18-2.42-75.27-3.53-20.62-.91-41.24-1.58-61.86-2.49-25.09-1.11-50.18-2.41-75.27-3.52-24.94-1.1-49.89-1.99-74.83-3.12-40.05-1.81-80.1-3.81-120.16-5.58-23.44-1.04-46.89-1.73-70.33-2.71-38.07-1.59-76.13-3.28-114.2-4.96-27.43-1.21-54.86-2.45-82.29-3.72-39.72-1.84-79.43-3.82-119.16-5.57-30.09-1.32-60.2-2.24-90.29-3.56-32.74-1.43-65.47-3.17-98.21-4.68-19.78-.91-39.58-1.57-59.36-2.44-25.76-1.13-51.52-2.37-77.28-3.55-9.97-.46-19.95-.9-29.93-1.34,0-3.14,0-6.28,0-9.42,25.77,1.06,51.55,2.08,77.32,3.18,20.78.89,41.57,1.85,62.35,2.8,25.77,1.17,51.53,2.39,77.3,3.53,19.95.88,39.91,1.64,59.86,2.52,25.77,1.14,51.53,2.39,77.3,3.51,21.12.92,42.24,1.65,63.36,2.57,24.44,1.07,48.87,2.31,73.31,3.4,21.12.94,42.24,1.71,63.36,2.64,24.44,1.08,48.88,2.29,73.32,3.37,21.28.94,42.57,1.74,63.85,2.67,24.27,1.07,48.54,2.22,72.82,3.32,20.12.91,40.23,1.8,60.35,2.67,24.61,1.06,49.21,2.08,73.82,3.14,26.44,1.14,52.88,2.29,79.31,3.48,39.9,1.8,79.8,3.67,119.7,5.43,21.28.94,42.58,1.61,63.86,2.56,33.08,1.48,66.16,3.13,99.24,4.63,20.45.93,40.91,1.67,61.36,2.57,25.11,1.11,50.21,2.33,75.32,3.43,21.12.93,42.24,1.69,63.36,2.62,24.44,1.07,48.88,2.26,73.32,3.36,20.28.91,40.57,1.77,60.86,2.64,24.27,1.04,48.55,2.06,72.82,3.11,26.27,1.14,52.54,2.3,78.81,3.48,39.9,1.79,79.8,3.61,119.7,5.41,17.62.8,35.25,1.59,52.87,2.38v9.97Z"/>
      <path class="cls-5" d="M2.16,142.93c24.1,1.11,48.19,2.23,72.29,3.33,10.98.5,21.96.93,32.93,1.41,35.91,1.59,71.82,3.22,107.74,4.76,24.94,1.07,49.9,1.96,74.84,3.07,40.73,1.81,81.45,3.81,122.18,5.58,23.94,1.04,47.9,1.75,71.85,2.73,29.43,1.21,58.86,2.54,88.29,3.83,36.41,1.6,72.83,3.17,109.24,4.82,40.23,1.82,80.45,3.8,120.68,5.56,23.61,1.04,47.23,1.73,70.85,2.7,29.43,1.21,58.86,2.56,88.29,3.82,24.28,1.04,48.56,2.02,72.83,3.06,37.41,1.61,74.82,3.25,112.23,4.89,30.42,1.34,60.85,2.71,91.27,4.05,37.74,1.66,75.48,3.31,113.22,4.94,23.94,1.04,47.89,1.97,71.83,3.06,33.42,1.52,66.82,3.22,100.24,4.71,24.94,1.12,49.89,1.95,74.84,3.06,40.56,1.81,81.11,3.82,121.68,5.58,30.43,1.32,60.87,2.29,91.3,3.59,24.6,1.05,49.2,2.42,73.8,3.53,12.14.55,24.28.82,36.43,1.22v9.97c-16.96-.73-33.92-1.43-50.88-2.2-40.4-1.83-80.79-3.76-121.19-5.53-21.78-.95-43.58-1.56-65.36-2.51-24.44-1.07-48.87-2.39-73.31-3.51-19.78-.9-39.58-1.62-59.36-2.48-35.41-1.54-70.82-3.16-106.23-4.68-25.11-1.08-50.22-2-75.33-3.1-40.23-1.76-80.46-3.66-120.7-5.4-31.26-1.35-62.53-2.44-93.79-3.81-33.25-1.45-66.49-3.12-99.74-4.63-20.28-.92-40.57-1.68-60.86-2.56-25.94-1.12-51.87-2.33-77.81-3.44-25.11-1.08-50.22-2.01-75.33-3.12-40.73-1.81-81.46-3.78-122.19-5.54-30.93-1.33-61.87-2.34-92.8-3.68-33.08-1.43-66.16-3.12-99.24-4.59-25.27-1.12-50.56-2.01-75.83-3.13-40.4-1.79-80.79-3.74-121.19-5.49-30.76-1.33-61.53-2.38-92.29-3.7-24.27-1.04-48.53-2.36-72.8-3.44-21.12-.94-42.24-1.66-63.36-2.58-25.27-1.1-50.54-2.34-75.8-3.46-7.81-.35-15.64-.51-23.46-.76,0-3.31,0-6.63,0-9.94Z"/>
      <path class="cls-7" d="M1879.88,298.58c5.7.18,11.4.36,17.1.54-1.66.63-3.31,1.25-4.97,1.88-4,0-8,0-11.99,0-.05-.81-.1-1.61-.14-2.42Z"/>
      <path class="cls-7" d="M1906.88,299.7c4.71-.23,9.41-.47,14.12-.7-.5.66-.98,1.89-1.5,1.91-4.16.16-8.33.09-12.49.09-.04-.43-.08-.86-.13-1.29Z"/>
      <path class="cls-7" d="M1866.88,297.69c1.38.12,2.76.23,4.14.35-1.38-.12-2.76-.23-4.14-.35Z"/>
    </g>
  </g>
</svg>